<?xml version="1.0" encoding="UTF-8" standalone="no"?>
<svg
   xmlns:dc="http://purl.org/dc/elements/1.1/"
   xmlns:cc="http://creativecommons.org/ns#"
   xmlns:rdf="http://www.w3.org/1999/02/22-rdf-syntax-ns#"
   xmlns:svg="http://www.w3.org/2000/svg"
   xmlns="http://www.w3.org/2000/svg"
   viewBox="0 0 2217.5 688.75"
   height="688.75"
   width="2217.5"
   xml:space="preserve"
   version="1.1"
   id="svg2"><metadata
     id="metadata8"><rdf:RDF><cc:Work
         rdf:about=""><dc:format>image/svg+xml</dc:format><dc:type
           rdf:resource="http://purl.org/dc/dcmitype/StillImage" /></cc:Work></rdf:RDF></metadata><defs
     id="defs6"><clipPath
       id="clipPath16"
       clipPathUnits="userSpaceOnUse"><path
         id="path18"
         d="M 0,551 1774,551 1774,0 0,0 0,551 Z" /></clipPath><linearGradient
       id="linearGradient36"
       spreadMethod="pad"
       gradientTransform="matrix(114.5988,114.5988,114.5988,-114.5988,1514.6237,233.11926)"
       gradientUnits="userSpaceOnUse"
       y2="0"
       x2="1"
       y1="0"
       x1="0"><stop
         id="stop38"
         offset="0"
         style="stop-opacity:1;stop-color:#3163ab" /><stop
         id="stop40"
         offset="1"
         style="stop-opacity:1;stop-color:#328bcb" /></linearGradient><clipPath
       id="clipPath48"
       clipPathUnits="userSpaceOnUse"><path
         id="path50"
         d="M 0,551 1774,551 1774,0 0,0 0,551 Z" /></clipPath></defs><g
     transform="matrix(1.25,0,0,-1.25,0,688.75)"
     id="g10"><g
       id="g12"><g
         clip-path="url(#clipPath16)"
         id="g14"><g
           transform="translate(1585.2555,162.6365)"
           id="g20"><path
             id="path22"
             style="fill:#1d1d1d;fill-opacity:1;fill-rule:nonzero;stroke:none"
             d="m 0,0 -1435.187,0 c -35.663,0 -56.57,29.081 -46.461,64.625 l 34.974,122.96 c 10.11,35.544 47.561,64.625 83.224,64.625 l 1435.187,0 c 35.663,0 56.571,-29.081 46.461,-64.625 L 83.224,64.625 C 73.114,29.081 35.663,0 0,0" /></g></g></g><g
       id="g24"><g
         id="g26"><g
           id="g32"><g
             id="g34"><path
               id="path42"
               style="fill:url(#linearGradient36);stroke:none"
               d="m 1571.81,327.542 -51.062,25.606 10.735,-56.105 -40.134,-40.65 56.678,-7.128 26.258,-50.73 24.294,51.699 56.362,9.297 -41.663,39.081 8.574,56.476 -50.042,-27.546 z" /></g></g></g></g><g
       id="g44"><g
         clip-path="url(#clipPath48)"
         id="g46"><g
           transform="translate(290.2383,205.4346)"
           id="g52"><path
             id="path54"
             style="fill:#ffffff;fill-opacity:1;fill-rule:nonzero;stroke:none"
             d="m 0,0 -116.607,0 c -8.211,0 -14.954,1.95 -20.221,5.851 -5.267,3.9 -7.904,9.476 -7.904,16.732 0,3.829 0.754,7.935 2.258,12.317 l 38.596,110.448 c 4.24,12.179 12.041,18.271 23.403,18.271 l 138.368,0 -13.55,-38.596 -96.898,0 c -9.033,0 -14.576,-3.079 -16.629,-9.238 0.411,1.505 -7.734,-21.556 -24.43,-69.183 -0.138,-0.549 -0.205,-1.098 -0.205,-1.643 0,-4.244 3.419,-6.364 10.264,-6.364 l 97.309,0 L 0,0 Z" /></g><g
           transform="translate(482.1851,317.73)"
           id="g56"><path
             id="path58"
             style="fill:#ffffff;fill-opacity:1;fill-rule:nonzero;stroke:none"
             d="m 0,0 c 0.545,1.366 0.821,2.736 0.821,4.106 0,5.748 -2.464,8.622 -7.39,8.622 l -59.535,0 c -7.939,0 -13.344,-4.106 -16.219,-12.317 l -21.35,-61.383 c -0.549,-1.37 -0.821,-2.807 -0.821,-4.311 0,-5.613 2.463,-8.417 7.39,-8.417 l 59.535,0 c 4.927,0 8.69,1.232 11.292,3.695 1.642,1.642 3.214,4.446 4.721,8.417 L 0,0 Z M 47.833,8.006 10.675,-97.104 c -1.918,-5.337 -5.408,-9.376 -10.47,-12.112 -3.971,-2.053 -8.282,-3.079 -12.933,-3.079 l -118.865,0 c -16.423,0 -24.635,7.047 -24.635,21.145 0,6.294 1.575,13.616 4.722,21.966 l 3.49,8.622 33.668,96.488 c 1.777,5.338 5.2,9.373 10.265,12.113 4.105,2.187 8.484,3.284 13.138,3.284 l 118.865,0 c 16.286,0 24.43,-7.051 24.43,-21.145 0,-5.886 -1.508,-13.277 -4.517,-22.172" /></g><g
           transform="translate(725.251,325.7363)"
           id="g60"><path
             id="path62"
             style="fill:#ffffff;fill-opacity:1;fill-rule:nonzero;stroke:none"
             d="m 0,0 -42.701,-120.302 -44.343,0 39.211,112.296 c 0.411,1.366 0.616,2.736 0.616,4.106 0,5.748 -2.396,8.622 -7.185,8.622 l -59.536,0 c -8.077,0 -13.481,-4.106 -16.218,-12.318 l -39.211,-112.706 -44.754,0 57.277,163.619 136.931,0 c 16.285,0 24.43,-7.051 24.43,-21.145 C 4.517,16.286 3.009,8.895 0,0" /></g><g
           transform="translate(918.8418,369.0532)"
           id="g64"><path
             id="path66"
             style="fill:#ffffff;fill-opacity:1;fill-rule:nonzero;stroke:none"
             d="m 0,0 -49.271,-139.805 c -5.613,-15.878 -17.793,-23.814 -36.542,-23.814 l -128.308,0 13.549,38.596 95.872,0 c 4.651,0 8.895,1.093 12.728,3.284 3.42,2.053 5.678,4.517 6.775,7.391 L -44.549,0 0,0 Z" /></g><g
           transform="translate(1112.4297,369.0532)"
           id="g68"><path
             id="path70"
             style="fill:#ffffff;fill-opacity:1;fill-rule:nonzero;stroke:none"
             d="m 0,0 -51.939,-148.427 c -1.78,-5.338 -5.204,-9.376 -10.264,-12.112 -4.106,-2.053 -8.488,-3.08 -13.139,-3.08 l -118.865,0 c -16.285,0 -24.43,6.98 -24.43,20.94 0,6.021 1.575,13.412 4.722,22.172 l 42.7,120.507 44.139,0 -39.211,-112.295 c -0.41,-1.37 -0.615,-2.807 -0.615,-4.311 0,-5.614 2.392,-8.417 7.185,-8.417 l 59.533,0 c 8.075,0 13.481,4.035 16.219,12.112 L -44.754,0 0,0 Z" /></g><g
           transform="translate(1310.7412,369.0532)"
           id="g72"><path
             id="path74"
             style="fill:#ffffff;fill-opacity:1;fill-rule:nonzero;stroke:none"
             d="m 0,0 -13.755,-38.595 -112.295,0 c -4.654,0 -8.796,-1.062 -12.42,-3.182 -3.628,-2.124 -5.922,-4.619 -6.878,-7.494 l -40.647,-114.348 -44.754,0 49.27,139.805 C -175.869,-7.939 -163.618,0 -144.731,0 L 0,0 Z" /></g><g
           transform="translate(1445.8232,319.8726)"
           id="g76"><path
             id="path78"
             style="fill:#ffffff;fill-opacity:1;fill-rule:nonzero;stroke:none"
             d="m 0,0 c 0.272,0.815 0.411,1.697 0.411,2.646 0,5.293 -3.355,7.939 -10.059,7.939 l -57.483,0 c -4.927,0 -8.417,-0.339 -10.47,-1.016 -2.874,-1.088 -4.792,-3.125 -5.748,-6.108 l -5.543,-17.1 84.375,0 L 0,0 Z m 47.833,8 -21.35,-60.234 -129.335,0 -3.49,-10.563 c -0.959,-2.624 -1.436,-4.831 -1.436,-6.627 0,-4.279 2.735,-6.419 8.211,-6.419 l 117.838,0 -13.549,-38.595 -127.076,0 c -24.09,0 -36.132,7.525 -36.132,22.583 0,4.24 1.507,10.742 4.516,19.502 l 37.569,108.806 c 3.008,8.484 10.332,12.728 21.966,12.728 l 120.507,0 c 17.245,0 25.867,-7.105 25.867,-21.309 0,-5.328 -1.37,-11.952 -4.106,-19.872" /></g></g></g></g></svg>