<?xml version="1.0" standalone="no"?>
<!DOCTYPE svg PUBLIC "-//W3C//DTD SVG 20010904//EN"
 "http://www.w3.org/TR/2001/REC-SVG-20010904/DTD/svg10.dtd">
<svg version="1.0" xmlns="http://www.w3.org/2000/svg"
 width="360.000000pt" height="224.000000pt" viewBox="0 0 360.000000 224.000000"
 preserveAspectRatio="xMidYMid meet">
<metadata>
Created by potrace 1.13, written by Peter Selinger 2001-2015
</metadata>
<g transform="translate(0.000000,224.000000) scale(0.100000,-0.100000)"
fill="#000000" stroke="none">
<path d="M920 2225 c-9 -11 -32 -15 -79 -15 l-67 0 -56 -57 c-48 -50 -56 -65
-62 -108 -6 -48 -11 -55 -153 -197 -101 -101 -155 -148 -172 -150 -35 -4 -42
-51 -12 -68 28 -14 61 3 61 33 0 15 46 68 149 171 139 139 150 152 156 195 5
38 16 56 58 99 51 51 52 52 112 52 34 0 66 -5 72 -11 19 -19 58 -6 61 19 7 44
-41 70 -68 37z"/>
<path d="M1150 2185 c-27 -33 13 -80 50 -57 11 6 46 12 78 12 55 0 60 -2 99
-42 23 -24 43 -54 45 -67 7 -56 73 -52 73 5 0 24 -5 30 -26 32 -15 2 -46 24
-74 53 -48 48 -50 49 -111 49 -43 0 -65 5 -74 15 -16 19 -44 19 -60 0z"/>
<path d="M522 2158 c-6 -6 -12 -21 -12 -33 0 -12 -30 -50 -75 -95 -74 -73 -75
-75 -75 -125 0 -49 -2 -53 -63 -113 -38 -38 -71 -62 -84 -62 -25 0 -46 -31
-37 -54 7 -18 47 -31 63 -21 6 3 11 15 11 26 0 11 31 53 70 94 67 71 70 76 70
122 0 47 2 51 73 120 39 39 81 73 91 75 10 1 24 11 30 21 22 35 -32 75 -62 45z"/>
<path d="M1020 2145 c-9 -10 -31 -15 -74 -15 l-61 0 -363 -363 -362 -362 0
-461 c0 -398 -2 -463 -15 -474 -33 -27 -7 -75 37 -68 25 3 38 42 19 61 -8 8
-11 154 -11 472 l0 460 353 353 352 352 61 0 c33 0 65 -5 71 -11 19 -19 58 -6
61 19 7 44 -41 70 -68 37z"/>
<path d="M1255 2061 c-4 -7 -66 -11 -173 -11 l-166 0 -343 -342 -343 -343 0
-523 c0 -460 -2 -526 -16 -547 -28 -43 4 -87 47 -65 22 12 25 42 5 73 -11 18
-13 116 -12 529 l1 508 340 340 340 340 151 0 c125 0 154 -3 164 -16 8 -8 25
-14 39 -12 22 3 26 8 26 38 0 30 -3 35 -27 38 -14 2 -29 -2 -33 -7z"/>
<path d="M1622 2038 c-25 -25 -7 -68 29 -68 29 0 42 -28 45 -96 l3 -66 -125
-121 c-69 -67 -133 -122 -142 -123 -27 -4 -43 -34 -31 -56 6 -10 17 -22 25
-25 18 -7 54 24 54 46 0 9 55 70 121 137 l122 122 0 85 c1 68 -2 90 -16 105
-9 10 -17 25 -17 33 0 20 -20 39 -40 39 -9 0 -21 -5 -28 -12z"/>
<path d="M916 1910 c-24 -22 -50 -40 -58 -40 -22 0 -40 -25 -36 -52 6 -42 78
-32 78 11 0 9 17 34 38 54 l38 37 282 0 c260 0 283 -1 288 -17 11 -37 22 -48
47 -51 21 -3 28 2 33 23 16 65 -35 75 -379 75 l-287 0 -44 -40z"/>
<path d="M1074 1855 c-10 -8 -30 -15 -44 -15 -17 0 -42 -17 -75 -50 -46 -47
-52 -50 -100 -50 -28 0 -56 5 -62 11 -6 6 -23 9 -39 7 -23 -2 -30 -9 -32 -30
-3 -22 2 -30 22 -40 21 -9 29 -8 44 5 12 11 36 17 72 17 50 0 56 3 106 50 55
52 76 59 108 35 11 -8 23 -15 27 -15 13 0 39 31 39 45 0 14 -26 45 -39 45 -4
0 -16 -7 -27 -15z"/>
<path d="M1494 1752 c-4 -21 -116 -139 -425 -448 l-419 -419 0 -146 c0 -118
-3 -149 -15 -159 -33 -27 -7 -75 37 -68 28 4 36 42 15 66 -11 13 -14 47 -13
155 l1 139 420 414 c231 227 427 413 436 414 23 0 41 25 37 52 -2 18 -10 24
-36 26 -29 3 -33 0 -38 -26z"/>
<path d="M1332 1758 c-7 -7 -12 -21 -12 -33 0 -29 -507 -535 -536 -535 -30 0
-48 -25 -40 -55 6 -22 11 -26 39 -23 26 2 33 8 35 29 4 35 516 546 552 551 17
2 26 10 28 26 6 42 -37 69 -66 40z"/>
<path d="M187 1572 c-10 -10 -17 -25 -17 -33 0 -8 -20 -35 -45 -59 l-45 -44 0
-126 c0 -123 -1 -126 -28 -160 -49 -59 -52 -72 -52 -206 l0 -127 46 -54 c44
-51 46 -55 29 -73 -19 -21 -13 -55 11 -64 22 -8 54 11 54 32 0 31 -37 95 -74
131 l-36 35 0 123 0 124 40 53 40 53 0 119 0 120 48 46 c26 25 56 48 67 50 23
4 32 42 15 64 -17 19 -34 18 -53 -4z"/>
<path d="M2307 1553 c-4 -3 -7 -11 -7 -17 0 -6 4 -5 9 2 12 20 46 10 46 -13 0
-13 -8 -21 -22 -23 -14 -2 -23 2 -23 10 0 7 -53 -40 -118 -105 l-118 -118 -48
22 c-90 39 -178 14 -221 -63 -15 -29 -17 -43 -10 -74 12 -46 52 -76 133 -99
79 -23 110 -44 122 -81 17 -50 -7 -97 -59 -117 -23 -10 -50 -17 -60 -17 -38 0
-82 23 -97 51 -10 20 -22 29 -39 29 -48 0 -54 -66 -6 -75 14 -3 47 -13 74 -21
123 -41 240 37 222 146 -9 54 -47 85 -137 111 -43 12 -86 30 -98 41 -45 42
-35 103 22 138 45 27 103 25 157 -6 l45 -25 121 121 c80 79 128 120 142 120
26 0 40 34 23 55 -13 16 -42 20 -53 8z"/>
<path d="M497 1543 c-4 -3 -7 -16 -7 -27 0 -28 -116 -141 -153 -150 -23 -6
-28 -11 -25 -33 6 -54 69 -56 76 -2 5 32 110 139 138 139 30 0 48 24 40 55 -5
19 -13 25 -35 25 -15 0 -31 -3 -34 -7z"/>
<path d="M477 1382 c-10 -10 -17 -24 -17 -32 0 -7 -31 -46 -70 -86 l-70 -74 0
-233 c0 -154 -4 -237 -11 -244 -6 -6 -9 -21 -7 -34 4 -30 48 -38 68 -13 12 14
12 20 -3 46 -15 25 -17 60 -17 246 l0 217 72 72 c40 40 80 73 90 73 15 0 38
27 38 44 0 10 -32 36 -44 36 -7 0 -20 -8 -29 -18z"/>
<path d="M1400 1321 c-72 -22 -138 -79 -164 -143 -34 -81 -12 -205 47 -266 68
-71 152 -94 250 -69 34 9 73 18 86 19 32 4 50 32 35 56 -16 24 -57 22 -69 -5
-18 -41 -99 -61 -173 -43 -97 23 -162 108 -162 211 1 152 139 251 292 209 26
-8 38 -17 40 -33 6 -42 77 -33 78 10 0 19 -31 45 -47 39 -8 -4 -35 1 -59 9
-47 16 -112 18 -154 6z"/>
<path d="M2419 1317 c-128 -48 -195 -162 -168 -286 21 -99 91 -171 187 -192
47 -11 64 -10 121 4 36 10 74 17 83 17 26 0 49 39 37 62 -15 29 -56 23 -74
-11 -12 -24 -25 -32 -69 -42 -136 -30 -256 68 -256 208 1 129 94 223 222 223
37 0 96 -17 113 -32 12 -10 -203 -228 -225 -228 -21 0 -40 -20 -39 -40 0 -9 4
-6 9 8 10 23 34 29 46 11 7 -13 254 228 254 248 0 7 -19 22 -42 34 -53 27
-149 34 -199 16z"/>
<path d="M2905 1316 c-47 -21 -77 -60 -82 -108 -8 -67 25 -100 132 -134 99
-32 129 -58 128 -111 -2 -72 -93 -121 -171 -91 -20 7 -41 24 -47 36 -14 31
-54 40 -72 17 -15 -22 -16 -25 -4 -43 8 -13 34 -22 131 -44 60 -14 124 4 162
44 24 26 28 38 28 88 0 52 -3 61 -29 83 -16 13 -67 36 -115 51 -91 28 -116 49
-116 98 0 42 47 88 96 95 53 7 107 -11 119 -39 15 -34 69 -32 73 1 4 27 -21
53 -43 45 -7 -3 -29 2 -50 10 -45 19 -100 20 -140 2z"/>
<path d="M3353 1311 c-64 -29 -92 -106 -61 -164 17 -33 36 -44 123 -73 98 -32
125 -54 125 -104 0 -99 -136 -144 -220 -73 -17 13 -34 23 -40 21 -22 -8 -250
-242 -242 -250 5 -5 59 42 120 104 l112 113 39 -22 c84 -48 176 -39 230 22 26
29 31 44 31 84 0 78 -25 100 -154 137 -93 26 -125 72 -95 138 31 68 187 75
203 10 6 -21 12 -25 39 -22 26 2 33 8 35 30 3 29 -25 52 -51 42 -9 -3 -29 2
-46 10 -40 21 -97 20 -148 -3z"/>
<path d="M420 1131 c-10 -21 -4 -51 11 -51 5 0 9 -135 9 -310 0 -265 -2 -314
-16 -335 -14 -22 -14 -25 6 -45 16 -16 25 -18 39 -11 27 15 34 41 16 61 -22
24 -23 603 -1 646 11 19 12 33 5 46 -13 24 -55 23 -69 -1z"/>
<path d="M973 1094 c-7 -3 -13 -15 -13 -27 0 -13 -41 -63 -115 -137 l-115
-117 0 -143 0 -143 -50 -53 -50 -53 0 -73 0 -73 78 -78 77 -77 85 0 85 0 174
174 c116 116 183 176 201 180 32 6 44 29 30 57 -20 36 -88 12 -74 -26 3 -6
-74 -88 -169 -183 l-173 -172 -70 0 -70 0 -72 73 c-72 72 -72 73 -72 128 0 53
2 57 50 104 l50 49 0 150 0 149 106 108 c70 71 115 109 132 111 14 2 30 11 36
21 20 32 -22 67 -61 51z"/>
<path d="M632 1058 c-6 -6 -12 -19 -12 -28 0 -9 -13 -29 -30 -45 -26 -25 -30
-36 -30 -81 0 -34 -5 -56 -15 -64 -23 -19 -18 -49 10 -62 19 -8 28 -8 40 2 19
16 19 54 0 70 -35 29 17 140 66 140 44 0 53 73 9 78 -14 2 -31 -3 -38 -10z"/>
<path d="M1602 718 c-7 -7 -12 -20 -12 -29 0 -9 -138 -157 -306 -328 l-306
-311 -73 0 c-53 0 -76 4 -85 15 -28 34 -87 -6 -64 -42 8 -12 21 -17 40 -15 16
2 68 6 115 10 l86 7 308 312 c169 172 310 311 314 308 12 -7 51 24 51 40 0 17
-27 45 -44 45 -6 0 -17 -5 -24 -12z"/>
<path d="M542 698 c-16 -16 -15 -43 3 -58 13 -10 15 -51 15 -246 l0 -233 -27
-3 c-47 -5 -40 -78 7 -78 38 0 41 20 42 285 1 198 5 260 15 270 26 27 9 75
-27 75 -9 0 -21 -5 -28 -12z"/>
<path d="M1312 688 c-6 -6 -12 -19 -12 -28 0 -15 -171 -193 -184 -191 -18 3
-26 -1 -36 -19 -8 -15 -6 -24 10 -40 24 -24 55 -14 65 22 9 31 165 188 186
188 45 0 53 73 9 78 -14 2 -31 -3 -38 -10z"/>
<path d="M1082 598 c-6 -6 -12 -19 -12 -28 0 -9 -16 -31 -35 -50 -34 -33 -35
-36 -35 -113 l0 -79 -43 -42 c-75 -75 -100 -80 -151 -27 -22 23 -26 33 -18 47
20 36 -12 73 -51 58 -9 -3 -19 -15 -23 -27 -5 -16 7 -33 59 -84 87 -85 106
-85 193 -1 l64 61 0 77 c0 73 1 77 33 107 17 17 41 33 51 35 10 1 24 11 30 21
22 35 -32 75 -62 45z"/>
<path d="M307 573 c-11 -10 -8 -51 3 -58 6 -3 10 -39 10 -79 l0 -72 45 -44
c27 -26 45 -53 45 -67 0 -25 30 -46 54 -37 35 13 30 74 -7 74 -12 0 -41 19
-64 42 -42 41 -43 44 -43 106 0 49 4 68 16 77 12 8 15 20 10 38 -5 21 -12 27
-35 27 -15 0 -31 -3 -34 -7z"/>
<path d="M1548 519 c-10 -5 -18 -20 -18 -32 0 -26 -117 -147 -142 -147 -22 0
-40 -25 -36 -52 2 -18 9 -23 33 -23 25 0 32 5 41 33 13 42 112 142 139 142 43
0 59 44 27 73 -21 20 -21 20 -44 6z"/>
<path d="M1523 363 c-7 -2 -13 -15 -13 -27 0 -13 -24 -45 -63 -84 l-63 -62
-60 0 c-53 0 -63 -3 -88 -29 -15 -16 -40 -31 -56 -34 -52 -11 -42 -83 11 -75
17 2 25 10 27 27 2 13 17 37 32 53 25 25 36 28 92 28 l64 0 64 65 c35 35 67
62 71 59 15 -9 49 35 42 53 -11 29 -31 38 -60 26z"/>
</g>
</svg>
