<?xml version="1.0" encoding="UTF-8" standalone="no"?>
<svg
   xmlns:dc="https://purl.org/dc/elements/1.1/"
   xmlns:cc="https://creativecommons.org/ns#"
   xmlns:rdf="https://www.w3.org/1999/02/22-rdf-syntax-ns#"
   xmlns:svg="https://www.w3.org/2000/svg"
   xmlns="https://www.w3.org/2000/svg"
   viewBox="0 0 382.5 330"
   height="330"
   width="382.5"
   xml:space="preserve"
   version="1.1"
   id="svg2"><metadata
     id="metadata8"><rdf:RDF><cc:Work
         rdf:about=""><dc:format>image/svg+xml</dc:format><dc:type
           rdf:resource="https://purl.org/dc/dcmitype/StillImage" /></cc:Work></rdf:RDF></metadata><defs
     id="defs6"><clipPath
       id="clipPath16"
       clipPathUnits="userSpaceOnUse"><path
         id="path18"
         d="m 53.046,145.055 c 0.268,-5.735 11.38,-10.914 28.636,-13.201 l 0,0 c 4.145,-0.631 6.95,-0.791 11.599,-1.057 l 0,0 c 2.106,-0.12 8.164,-0.35 8.164,-0.35 l 0,0 0.058,1.288 c 0,0 -7.061,0.3 -9.159,0.388 l 0,0 c -2.919,0.124 -5.029,0.214 -8.554,0.722 l 0,0 c -19.08,2.357 -29.069,7.977 -29.271,12.288 l 0,0 -1.473,-0.078 z" /></clipPath><linearGradient
       id="linearGradient28"
       spreadMethod="pad"
       gradientTransform="matrix(12.196823,0,0,-12.196823,89.248047,137.79004)"
       gradientUnits="userSpaceOnUse"
       y2="0"
       x2="1"
       y1="0"
       x1="0"><stop
         id="stop30"
         offset="0"
         style="stop-opacity:1;stop-color:#ffffff" /><stop
         id="stop32"
         offset="1"
         style="stop-opacity:0;stop-color:#ffffff" /></linearGradient><mask
       id="mask34"
       height="1"
       width="1"
       y="0"
       x="0"
       maskUnits="userSpaceOnUse"><g
         id="g36"><g
           id="g38"><g
             id="g40"><g
               id="g42"><path
                 id="path44"
                 style="fill:url(#linearGradient28);stroke:none"
                 d="m -32768,32767 65535,0 0,-65534 -65535,0 0,65534 z" /></g></g></g></g></mask><linearGradient
       id="linearGradient50"
       spreadMethod="pad"
       gradientTransform="matrix(12.196823,0,0,-12.196823,89.248047,137.79004)"
       gradientUnits="userSpaceOnUse"
       y2="0"
       x2="1"
       y1="0"
       x1="0"><stop
         id="stop52"
         offset="0"
         style="stop-opacity:1;stop-color:#ffffff" /><stop
         id="stop54"
         offset="1"
         style="stop-opacity:1;stop-color:#ffffff" /></linearGradient><clipPath
       id="clipPath62"
       clipPathUnits="userSpaceOnUse"><path
         id="path64"
         d="M 0,264 306,264 306,0 0,0 0,264 Z" /></clipPath><clipPath
       id="clipPath102"
       clipPathUnits="userSpaceOnUse"><path
         id="path104"
         d="m 250.897,157.875 c 0.108,-1.861 -5.419,-6.85 -27.129,-12.383 l 0,0 c -18.446,-4.703 -43.147,-8.416 -69.554,-10.454 l 0,0 c -5.703,-0.438 -29.829,-2.054 -35.625,-2.323 l 0,0 -0.368,-0.017 -0.533,-4.338 0.514,0.025 c 5.686,0.262 30.158,1.965 36.276,2.439 l 0,0 c 18.704,1.442 36.856,3.754 52.499,6.69 l 0,0 c 6.43,1.203 12.442,2.513 17.87,3.896 l 0,0 c 20.292,5.174 29.985,10.637 29.626,16.715 l 0,0 -3.576,-0.25 z" /></clipPath><linearGradient
       id="linearGradient114"
       spreadMethod="pad"
       gradientTransform="matrix(83.45343,7.180954,7.180954,-83.453415,116.23926,136.89844)"
       gradientUnits="userSpaceOnUse"
       y2="0"
       x2="1"
       y1="0"
       x1="0"><stop
         id="stop116"
         offset="0"
         style="stop-opacity:0;stop-color:#ffffff" /><stop
         id="stop118"
         offset="0.41503764"
         style="stop-opacity:1;stop-color:#ffffff" /><stop
         id="stop120"
         offset="1"
         style="stop-opacity:1;stop-color:#ffffff" /></linearGradient><mask
       id="mask122"
       height="1"
       width="1"
       y="0"
       x="0"
       maskUnits="userSpaceOnUse"><g
         id="g124"><g
           id="g126"><g
             id="g128"><g
               id="g130"><path
                 id="path132"
                 style="fill:url(#linearGradient114);stroke:none"
                 d="m -32768,32767 65535,0 0,-65534 -65535,0 0,65534 z" /></g></g></g></g></mask><linearGradient
       id="linearGradient138"
       spreadMethod="pad"
       gradientTransform="matrix(83.45343,7.180954,7.180954,-83.453415,116.23926,136.89844)"
       gradientUnits="userSpaceOnUse"
       y2="0"
       x2="1"
       y1="0"
       x1="0"><stop
         id="stop140"
         offset="0"
         style="stop-opacity:1;stop-color:#ffffff" /><stop
         id="stop142"
         offset="0.41503764"
         style="stop-opacity:1;stop-color:#ffffff" /><stop
         id="stop144"
         offset="1"
         style="stop-opacity:1;stop-color:#ffffff" /></linearGradient><clipPath
       id="clipPath152"
       clipPathUnits="userSpaceOnUse"><path
         id="path154"
         d="M 0,264 306,264 306,0 0,0 0,264 Z" /></clipPath></defs><g
     transform="matrix(1.25,0,0,-1.25,0,330)"
     id="g10"><g
       id="g12"><g
         clip-path="url(#clipPath16)"
         id="g14"><g
           id="g20"><g
             id="g22" /><g
             mask="url(#mask34)"
             id="g46"><g
               id="g48"><path
                 id="path56"
                 style="fill:url(#linearGradient50);stroke:none"
                 d="m 53.046,145.055 c 0.268,-5.735 11.38,-10.914 28.636,-13.201 l 0,0 c 4.145,-0.631 6.95,-0.791 11.599,-1.057 l 0,0 c 2.106,-0.12 8.164,-0.35 8.164,-0.35 l 0,0 0.058,1.288 c 0,0 -7.061,0.3 -9.159,0.388 l 0,0 c -2.919,0.124 -5.029,0.214 -8.554,0.722 l 0,0 c -19.08,2.357 -29.069,7.977 -29.271,12.288 l 0,0 -1.473,-0.078 z" /></g></g></g></g></g><g
       id="g58"><g
         clip-path="url(#clipPath62)"
         id="g60"><g
           transform="translate(254.4736,158.125)"
           id="g66"><path
             id="path68"
             style="fill:#ffffff;fill-opacity:1;fill-rule:nonzero;stroke:none"
             d="m 0,0 c -0.251,5.442 -10.786,9.332 -31.312,11.572 -9.914,1.083 -21.58,1.633 -34.676,1.633 -11.36,0 -23.514,-0.416 -36.121,-1.234 -21.884,-1.421 -44.34,-4.401 -63.233,-8.388 -1.551,-0.327 -3.061,-0.719 -4.521,-1.097 -0.825,-0.214 -1.638,-0.425 -2.444,-0.621 -13.45,-3.253 -29.419,-8.484 -29.121,-14.935 l 1.474,0.078 c -0.192,4.144 10.27,9.18 27.989,13.47 1.363,0.329 2.75,0.596 4.219,0.881 0.911,0.176 1.832,0.354 2.763,0.551 16.59,3.501 38.374,6.196 62.995,7.793 11.329,0.736 22.536,1.11 33.31,1.11 13.778,0 26.232,-0.597 37.013,-1.775 20.495,-2.24 27.946,-6.28 28.088,-9.288 L 0,0 Z" /></g><g
           transform="translate(129.6904,184.1631)"
           id="g70"><path
             id="path72"
             style="fill:#ffffff;fill-opacity:1;fill-rule:nonzero;stroke:none"
             d="m 0,0 -47.008,0 -21.024,-84.278 47.389,0 3.207,13.101 -31.543,0 6.057,24.18 26.975,0 3.261,12.985 -27.089,0 5.197,20.909 31.195,0 L 0,0 Z" /></g><g
           transform="translate(124.9854,204.9512)"
           id="g74"><path
             id="path76"
             style="fill:#ffffff;fill-opacity:1;fill-rule:nonzero;stroke:none"
             d="m 0,0 0,0 c -1.895,-0.002 -3.734,-1.017 -7.076,-2.861 l -0.287,-0.159 -16.627,-9.959 -2.307,-1.38 2.677,-0.254 3.599,-0.342 0.173,-0.017 0.17,0.052 18.961,5.85 c 2.196,0.547 4.387,1.286 5.035,3.689 0.28,1.018 0.106,2.188 -0.478,3.205 C 3.264,-1.17 2.375,-0.461 1.336,-0.18 0.889,-0.059 0.451,0 0,0" /></g><g
           transform="translate(154.5459,129.9395)"
           id="g78"><path
             id="path80"
             style="fill:#ffffff;fill-opacity:1;fill-rule:nonzero;stroke:none"
             d="M 0,0 C -1.566,-0.121 -4.551,-0.332 -8.156,-0.58 -8.93,-0.633 -9.72,-0.688 -10.544,-0.743 l -4.915,-19.812 15.684,0 L 5.44,0.459 C 3.63,0.301 1.822,0.141 0,0" /></g><g
           transform="translate(136.3838,193.6621)"
           id="g82"><path
             id="path84"
             style="fill:#ffffff;fill-opacity:1;fill-rule:nonzero;stroke:none"
             d="m 0,0 -3.258,-13.102 23.621,0 -0.527,-2.123 -10.701,-43.127 c 0.834,0.057 1.627,0.112 2.388,0.164 2.731,0.19 4.956,0.348 6.24,0.448 2.472,0.19 4.925,0.4 7.364,0.621 l 10.921,44.017 22.206,0 2.732,10.979 L 61.514,0 0,0 Z" /></g><g
           transform="translate(163.9082,136.7578)"
           id="g86"><path
             id="path88"
             style="fill:#ffffff;fill-opacity:1;fill-rule:nonzero;stroke:none"
             d="M 0,0 Z" /></g><g
           transform="translate(246.084,193.9482)"
           id="g90"><path
             id="path92"
             style="fill:#ffffff;fill-opacity:1;fill-rule:nonzero;stroke:none"
             d="m 0,0 c -7.728,4.643 -15.119,5.618 -19.959,5.618 -8.12,0 -15.062,-2.693 -20.075,-7.787 -4.466,-4.537 -7.026,-10.796 -7.026,-17.171 0,-7.442 3.27,-12.766 7.181,-17.022 1.916,-2.086 3.983,-3.92 5.901,-5.612 1.779,-1.666 3.587,-3.359 5.057,-5.29 0.395,-0.516 0.761,-1.051 1.099,-1.607 0.088,0.02 0.173,0.04 0.259,0.061 1.717,0.397 3.407,0.8 5.028,1.213 3.741,0.953 7.133,1.929 10.189,2.918 -0.83,1.568 -1.798,2.969 -2.821,4.256 -1.504,1.892 -3.134,3.531 -4.641,5.043 l -0.068,0.067 -2.512,2.361 c -1.35,1.156 -2.723,2.383 -3.976,3.703 -2.776,2.92 -4.954,6.295 -4.954,10.377 0,5.691 4.322,11.739 12.337,11.739 2.96,0 8.834,-0.85 14.888,-6.54 l 1.1,-1.031 0.361,1.463 2.959,11.97 0.075,0.303 L 0.56,-0.335 0,0 Z" /></g><g
           transform="translate(235.8145,143.6621)"
           id="g94"><path
             id="path96"
             style="fill:#ffffff;fill-opacity:1;fill-rule:nonzero;stroke:none"
             d="m 0,0 c -3.201,-1.057 -6.768,-2.096 -10.748,-3.11 -1.139,-0.29 -2.315,-0.576 -3.504,-0.859 -0.435,-0.103 -0.865,-0.208 -1.306,-0.31 0.066,-0.551 0.112,-1.114 0.112,-1.705 0,-6.776 -4.317,-13.612 -13.96,-13.612 -6.49,0 -12.625,2.748 -18.239,8.167 l -1.1,1.062 -0.369,-1.485 -3.249,-13.086 -0.156,-0.622 0.544,-0.339 c 0.494,-0.308 0.994,-0.602 1.499,-0.888 6.539,-3.717 14.047,-5.676 21.828,-5.676 19.214,0 29.268,13.497 29.268,26.829 C 0.62,-3.577 0.392,-1.713 0,0" /></g></g></g><g
       id="g98"><g
         clip-path="url(#clipPath102)"
         id="g100"><g
           id="g106"><g
             id="g108" /><g
             mask="url(#mask122)"
             id="g134"><g
               id="g136"><path
                 id="path146"
                 style="fill:url(#linearGradient138);stroke:none"
                 d="m 250.897,157.875 c 0.108,-1.861 -5.419,-6.85 -27.129,-12.383 l 0,0 c -18.446,-4.703 -43.147,-8.416 -69.554,-10.454 l 0,0 c -5.703,-0.438 -29.829,-2.054 -35.625,-2.323 l 0,0 -0.368,-0.017 -0.533,-4.338 0.514,0.025 c 5.686,0.262 30.158,1.965 36.276,2.439 l 0,0 c 18.704,1.442 36.856,3.754 52.499,6.69 l 0,0 c 6.43,1.203 12.442,2.513 17.87,3.896 l 0,0 c 20.292,5.174 29.985,10.637 29.626,16.715 l 0,0 -3.576,-0.25 z" /></g></g></g></g></g><g
       id="g148"><g
         clip-path="url(#clipPath152)"
         id="g150"><g
           transform="translate(46.6582,64.2021)"
           id="g156"><path
             id="path158"
             style="fill:#ffffff;fill-opacity:1;fill-rule:nonzero;stroke:none"
             d="m 0,0 -9.396,0 0,16.752 2.159,0 0,-15.067 8.21,0 L 0,0 Z" /></g><g
           transform="translate(56.2666,71.7471)"
           id="g160"><path
             id="path162"
             style="fill:#ffffff;fill-opacity:1;fill-rule:nonzero;stroke:none"
             d="M 0,0 C -0.024,0.499 -0.095,1.4 -0.759,2.112 -1.14,2.492 -1.78,2.871 -2.705,2.871 -4.104,2.871 -5.315,1.946 -5.742,0 L 0,0 Z m 0.688,-7.45 c -0.38,-0.118 -1.234,-0.38 -2.562,-0.38 -3.512,0 -6.17,2.017 -6.17,6.122 0,3.654 2.254,6.169 5.387,6.169 1.517,0 2.871,-0.569 3.772,-1.779 0.997,-1.376 1.044,-3.275 1.068,-4.224 l -8.068,0 c 0,-0.735 0.025,-2.277 1.044,-3.393 0.879,-0.925 2.16,-1.257 3.442,-1.257 1.422,0 2.586,0.426 3.203,0.664 L 0.688,-7.45 Z" /></g><g
           transform="translate(75.1523,74.2148)"
           id="g164"><path
             id="path166"
             style="fill:#ffffff;fill-opacity:1;fill-rule:nonzero;stroke:none"
             d="m 0,0 c -0.57,0.214 -1.472,0.428 -2.35,0.428 -2.373,0 -4.081,-1.615 -4.081,-4.272 0,-2.8 1.638,-4.128 3.678,-4.128 1.281,0 2.372,0.498 2.753,0.688 L 0,0 Z m -1.068,-9.301 c -0.452,-0.119 -1.116,-0.261 -2.041,-0.261 -3.464,0 -5.529,2.349 -5.529,5.505 0,3.037 1.947,6.075 6.312,6.075 0.664,0 2.586,-0.072 4.342,-0.926 l 0,-9.586 c 0,-1.329 0,-2.42 -0.688,-3.607 -0.973,-1.684 -2.8,-2.705 -5.148,-2.705 -0.713,0 -2.611,0.095 -4.272,1.092 l 0,2.065 c 0.309,-0.262 0.641,-0.546 1.353,-0.855 0.949,-0.403 2.016,-0.617 2.919,-0.617 1.613,0 2.965,0.641 3.511,2.207 C 0,-10.036 0,-9.158 0,-7.711 l -1.068,-1.59 z" /></g><g
           transform="translate(83.1699,77.4658)"
           id="g168"><path
             id="path170"
             style="fill:#ffffff;fill-opacity:1;fill-rule:nonzero;stroke:none"
             d="m 0,0 0,1.59 4.438,1.708 0,-1.566 L 0,0 Z m 4.248,-5.719 c -0.024,0.499 -0.096,1.401 -0.76,2.113 -0.38,0.379 -1.02,0.758 -1.945,0.758 -1.4,0 -2.61,-0.924 -3.037,-2.871 l 5.742,0 z m 0.688,-7.45 c -0.38,-0.118 -1.235,-0.38 -2.563,-0.38 -3.512,0 -6.17,2.018 -6.17,6.122 0,3.655 2.255,6.169 5.387,6.169 1.518,0 2.871,-0.569 3.773,-1.779 0.996,-1.376 1.043,-3.275 1.067,-4.224 l -8.067,0 c 0,-0.735 0.024,-2.277 1.044,-3.392 0.878,-0.926 2.159,-1.258 3.441,-1.258 1.423,0 2.586,0.427 3.203,0.664 l -1.115,-1.922 z" /></g><g
           transform="translate(91.4736,64.2021)"
           id="g172"><path
             id="path174"
             style="fill:#ffffff;fill-opacity:1;fill-rule:nonzero;stroke:none"
             d="m 0,0 0,11.722 2.017,0 0,-1.899 1.234,1.78 c 1.043,0.379 2.158,0.403 2.515,0.403 0.64,0 1.898,-0.095 2.942,-0.973 1.186,-1.02 1.21,-2.254 1.21,-3.345 l 0,-7.688 -2.04,0 0,6.857 c 0,2.017 -0.357,3.488 -2.753,3.488 -0.925,0 -2.112,-0.308 -3.108,-0.973 L 2.017,0 0,0 Z" /></g><path
           id="path176"
           style="fill:#ffffff;fill-opacity:1;fill-rule:nonzero;stroke:none"
           d="m 106.35,64.202 -2.018,0 0,11.722 2.018,0 0,-11.722 z m 0.118,15.874 c 0,-0.665 -0.523,-1.163 -1.139,-1.163 -0.641,0 -1.14,0.546 -1.14,1.163 0,0.616 0.475,1.162 1.14,1.162 0.616,0 1.139,-0.498 1.139,-1.162" /><g
           transform="translate(116.5752,71.7471)"
           id="g178"><path
             id="path180"
             style="fill:#ffffff;fill-opacity:1;fill-rule:nonzero;stroke:none"
             d="M 0,0 C -0.024,0.499 -0.095,1.4 -0.759,2.112 -1.14,2.492 -1.78,2.871 -2.705,2.871 -4.104,2.871 -5.315,1.946 -5.742,0 L 0,0 Z m 0.688,-7.45 c -0.38,-0.118 -1.234,-0.38 -2.562,-0.38 -3.512,0 -6.17,2.017 -6.17,6.122 0,3.654 2.254,6.169 5.387,6.169 1.517,0 2.871,-0.569 3.772,-1.779 0.997,-1.376 1.044,-3.275 1.068,-4.224 l -8.068,0 c 0,-0.735 0.025,-2.277 1.044,-3.393 0.879,-0.925 2.16,-1.257 3.442,-1.257 1.422,0 2.586,0.426 3.203,0.664 L 0.688,-7.45 Z" /></g><g
           transform="translate(129.5762,66.3135)"
           id="g182"><path
             id="path184"
             style="fill:#ffffff;fill-opacity:1;fill-rule:nonzero;stroke:none"
             d="m 0,0 c 0.332,-0.213 1.21,-0.759 2.609,-0.759 2.659,0 3.868,2.159 3.868,4.674 0,1.448 -0.403,2.444 -0.901,3.062 C 4.863,7.878 3.82,8.281 2.681,8.281 1.447,8.281 0.498,7.854 0,7.617 L 0,0 Z m 1.115,9.61 c 0.379,0.119 0.996,0.309 1.922,0.309 3.488,0 5.6,-2.302 5.6,-5.933 0,-3.653 -2.184,-6.382 -5.742,-6.382 -1.424,0 -2.278,0.379 -2.895,0.688 l 0,-5.434 -2.018,0 0,16.776 2.018,0 0,-1.685 1.115,1.661 z" /></g><g
           transform="translate(148.4375,70.0869)"
           id="g186"><path
             id="path188"
             style="fill:#ffffff;fill-opacity:1;fill-rule:nonzero;stroke:none"
             d="m 0,0 c 0,2.111 -0.854,4.531 -3.273,4.531 -2.018,0 -3.323,-1.756 -3.323,-4.602 0,-0.878 0.095,-2.184 0.783,-3.157 0.641,-0.924 1.59,-1.352 2.491,-1.352 C -0.973,-4.58 0,-2.159 0,0 m -3.346,-6.17 c -3.298,0 -5.41,2.278 -5.41,5.956 0,3.583 2.089,6.335 5.576,6.335 3.18,0 5.316,-2.396 5.316,-6.074 0,-3.678 -2.088,-6.217 -5.482,-6.217" /></g><g
           transform="translate(162.6973,64.2021)"
           id="g190"><path
             id="path192"
             style="fill:#ffffff;fill-opacity:1;fill-rule:nonzero;stroke:none"
             d="m 0,0 -2.018,0 0,1.898 -1.233,-1.78 c -1.068,-0.379 -2.23,-0.403 -2.515,-0.403 -3.109,0 -4.152,1.898 -4.152,4.223 l 0,7.807 2.04,0 0,-7.071 c 0,-1.851 0.38,-3.298 2.753,-3.298 0.948,0 2.158,0.332 3.107,0.973 l 0,9.396 2.018,0 L 0,0 Z" /></g><g
           transform="translate(167.7021,64.2021)"
           id="g194"><path
             id="path196"
             style="fill:#ffffff;fill-opacity:1;fill-rule:nonzero;stroke:none"
             d="m 0,0 -2.064,0 0,11.722 2.064,0 0,-1.756 1.092,1.565 c 0.284,0.119 1.02,0.428 2.088,0.428 0.64,0 0.925,-0.096 1.304,-0.237 l 0,-1.899 C 4.01,10.037 3.465,10.274 2.634,10.274 1.495,10.274 0.546,9.729 0,9.349 L 0,0 Z" /></g><path
           id="path198"
           style="fill:#ffffff;fill-opacity:1;fill-rule:nonzero;stroke:none"
           d="m 182.483,64.202 -2.018,0 0,16.752 2.018,0 0,-16.752 z" /><g
           transform="translate(185.709,76.5645)"
           id="g200"><path
             id="path202"
             style="fill:#ffffff;fill-opacity:1;fill-rule:nonzero;stroke:none"
             d="m 0,0 -1.353,0 1.756,4.39 1.922,0 L 0,0 Z" /></g><path
           id="path204"
           style="fill:#ffffff;fill-opacity:1;fill-rule:nonzero;stroke:none"
           d="m 192.353,64.202 -2.018,0 0,11.722 2.018,0 0,-11.722 z m 0.118,15.874 c 0,-0.665 -0.522,-1.163 -1.139,-1.163 -0.641,0 -1.139,0.546 -1.139,1.163 0,0.616 0.475,1.162 1.139,1.162 0.617,0 1.139,-0.498 1.139,-1.162" /><g
           transform="translate(195.2695,64.2021)"
           id="g206"><path
             id="path208"
             style="fill:#ffffff;fill-opacity:1;fill-rule:nonzero;stroke:none"
             d="m 0,0 0,11.722 2.018,0 0,-1.899 1.233,1.78 c 1.044,0.379 2.159,0.403 2.516,0.403 0.64,0 1.897,-0.095 2.941,-0.973 1.187,-1.02 1.21,-2.254 1.21,-3.345 l 0,-7.688 -2.04,0 0,6.857 c 0,2.017 -0.356,3.488 -2.752,3.488 -0.926,0 -2.112,-0.308 -3.108,-0.973 L 2.018,0 0,0 Z" /></g><g
           transform="translate(216.0303,73.8115)"
           id="g210"><path
             id="path212"
             style="fill:#ffffff;fill-opacity:1;fill-rule:nonzero;stroke:none"
             d="m 0,0 c -0.807,0.451 -1.708,0.735 -2.657,0.735 -0.427,0 -1.353,-0.047 -2.254,-0.782 -1.163,-0.926 -1.567,-2.468 -1.567,-3.986 0,-2.682 1.496,-4.224 3.773,-4.224 1.234,0 2.255,0.427 2.705,0.641 L 0,0 Z m 2.017,-9.609 -2.017,0 0,1.636 -1.091,-1.636 c -0.451,-0.143 -0.949,-0.286 -1.827,-0.286 -3.844,0 -5.719,2.516 -5.719,5.933 0,3.321 2.017,6.358 5.671,6.358 0.594,0 1.827,-0.094 2.966,-0.711 l 0,5.458 2.017,0 0,-16.752 z" /></g><g
           transform="translate(230.9063,64.2021)"
           id="g214"><path
             id="path216"
             style="fill:#ffffff;fill-opacity:1;fill-rule:nonzero;stroke:none"
             d="m 0,0 -2.017,0 0,1.898 -1.233,-1.78 c -1.068,-0.379 -2.23,-0.403 -2.516,-0.403 -3.108,0 -4.152,1.898 -4.152,4.223 l 0,7.807 2.041,0 0,-7.071 c 0,-1.851 0.38,-3.298 2.752,-3.298 0.949,0 2.159,0.332 3.108,0.973 l 0,9.396 2.017,0 L 0,0 Z" /></g><g
           transform="translate(238.0479,70.751)"
           id="g218"><path
             id="path220"
             style="fill:#ffffff;fill-opacity:1;fill-rule:nonzero;stroke:none"
             d="m 0,0 c 1.092,-0.522 2.515,-1.21 2.515,-3.227 0,-1.946 -1.519,-3.607 -4.105,-3.607 -1.115,0 -2.182,0.309 -3.203,0.76 l 0,1.874 c 0.285,-0.19 0.593,-0.379 1.139,-0.616 0.522,-0.214 1.186,-0.428 1.85,-0.428 1.543,0 2.184,1.044 2.184,1.898 0,1.235 -1.068,1.661 -1.827,1.97 l -0.807,0.284 c -0.854,0.357 -2.491,1.021 -2.491,3.085 0,2.017 1.684,3.464 3.985,3.464 1.353,0 2.35,-0.475 2.705,-0.664 l 0,-1.804 c -0.664,0.594 -1.518,0.926 -2.42,0.926 -1.566,0 -2.159,-0.949 -2.159,-1.804 0,-0.972 0.83,-1.352 1.542,-1.66 L 0,0 Z" /></g><g
           transform="translate(246.7793,64.0596)"
           id="g222"><path
             id="path224"
             style="fill:#ffffff;fill-opacity:1;fill-rule:nonzero;stroke:none"
             d="m 0,0 c -0.332,-0.071 -0.664,-0.143 -1.044,-0.143 -0.807,0 -1.638,0.262 -2.136,0.903 -0.569,0.687 -0.569,1.352 -0.569,2.609 l 0,7.024 -1.376,0 1.115,1.495 0.261,0 0,2.277 2.04,0.641 0,-2.918 2.421,0 0,-1.495 -2.421,0 0,-6.075 c 0,-1.281 0,-1.423 0.048,-1.684 0.189,-1.115 1.044,-1.21 1.447,-1.21 0.237,0 0.735,0.048 1.424,0.332 L 0,0 Z" /></g><g
           transform="translate(251.2393,64.2021)"
           id="g226"><path
             id="path228"
             style="fill:#ffffff;fill-opacity:1;fill-rule:nonzero;stroke:none"
             d="m 0,0 -2.064,0 0,11.722 2.064,0 0,-1.756 1.092,1.565 c 0.284,0.119 1.02,0.428 2.088,0.428 0.64,0 0.925,-0.096 1.304,-0.237 l 0,-1.899 C 4.01,10.037 3.465,10.274 2.634,10.274 1.495,10.274 0.546,9.729 0,9.349 L 0,0 Z" /></g><path
           id="path230"
           style="fill:#ffffff;fill-opacity:1;fill-rule:nonzero;stroke:none"
           d="m 259.093,64.202 -2.018,0 0,11.722 2.018,0 0,-11.722 z m 0.118,15.874 c 0,-0.665 -0.522,-1.163 -1.139,-1.163 -0.64,0 -1.138,0.546 -1.138,1.163 0,0.616 0.474,1.162 1.138,1.162 0.617,0 1.139,-0.498 1.139,-1.162" /><g
           transform="translate(269.3184,71.7471)"
           id="g232"><path
             id="path234"
             style="fill:#ffffff;fill-opacity:1;fill-rule:nonzero;stroke:none"
             d="m 0,0 c -0.023,0.499 -0.095,1.4 -0.76,2.112 -0.379,0.38 -1.019,0.759 -1.945,0.759 -1.4,0 -2.61,-0.925 -3.037,-2.871 L 0,0 Z m 0.688,-7.45 c -0.379,-0.118 -1.234,-0.38 -2.563,-0.38 -3.512,0 -6.169,2.017 -6.169,6.122 0,3.654 2.254,6.169 5.387,6.169 1.518,0 2.871,-0.569 3.772,-1.779 0.996,-1.376 1.044,-3.275 1.068,-4.224 l -8.068,0 c 0,-0.735 0.025,-2.277 1.044,-3.393 0.878,-0.925 2.159,-1.257 3.441,-1.257 1.423,0 2.587,0.426 3.203,0.664 L 0.688,-7.45 Z" /></g></g></g></g></svg>