<?xml version="1.0" standalone="no"?>
<!DOCTYPE svg PUBLIC "-//W3C//DTD SVG 20010904//EN"
 "http://www.w3.org/TR/2001/REC-SVG-20010904/DTD/svg10.dtd">
<svg version="1.0" xmlns="http://www.w3.org/2000/svg"
 width="750.000000pt" height="66.000000pt" viewBox="0 0 750.000000 66.000000"
 preserveAspectRatio="xMidYMid meet">

<g transform="translate(0.000000,66.000000) scale(0.100000,-0.100000)"
fill="#000000" stroke="none">
<path d="M1 533 c0 -76 4 -118 8 -103 31 102 103 180 200 215 33 13 28 14 -86
14 l-123 1 1 -127z"/>
<path d="M448 645 c23 -7 59 -25 78 -40 l36 -28 -36 -35 c-32 -33 -37 -35 -53
-20 -64 56 -175 69 -249 31 -83 -44 -127 -121 -127 -224 0 -184 175 -296 351
-223 l32 13 0 85 0 86 -70 0 -70 0 0 40 0 40 115 0 115 0 0 -159 0 -159 -44
-17 c-25 -10 -60 -21 -78 -25 -18 -4 558 -8 1280 -9 l1312 -1 0 36 c0 31 -3
35 -17 29 -89 -39 -121 -44 -260 -45 l-143 0 0 311 0 311 168 -4 c147 -3 172
-6 210 -25 l42 -21 0 34 0 34 -1317 -1 c-1115 0 -1311 -2 -1275 -14z m679
-316 l131 -310 -56 3 -56 3 -29 72 -29 73 -143 0 -142 0 -29 -75 -29 -75 -53
0 c-47 0 -53 2 -47 18 3 9 63 149 133 309 l127 292 45 0 45 0 132 -310z m423
81 c52 -126 97 -224 101 -217 3 6 46 110 95 229 l89 218 68 0 67 0 0 -310 0
-310 -45 0 -45 0 -2 243 -3 242 -99 -243 -99 -243 -34 3 -35 3 -96 238 -97
239 -3 -241 -2 -241 -45 0 -45 0 0 310 0 310 68 0 67 0 95 -230z m960 190 l0
-40 -155 0 -155 0 0 -90 0 -90 145 0 145 0 0 -40 0 -40 -145 0 -145 0 0 -100
0 -100 165 0 165 0 0 -40 0 -40 -215 0 -215 0 0 310 0 310 205 0 205 0 0 -40z"/>
<path d="M892 387 c-28 -73 -52 -136 -52 -140 0 -4 47 -7 105 -7 58 0 105 4
105 8 0 8 -99 264 -103 269 -1 1 -26 -58 -55 -130z"/>
<path d="M3200 330 l0 -330 1760 0 c1167 0 1760 3 1760 10 0 6 33 10 80 10 47
0 80 -4 80 -10 0 -6 87 -10 240 -10 153 0 240 4 240 10 0 6 30 10 70 10 l70 0
0 40 0 40 -70 0 -70 0 0 280 0 280 -240 0 -240 0 0 -280 0 -280 -55 0 -55 0 0
270 0 270 -25 0 c-14 0 -25 5 -25 10 0 7 -593 10 -1760 10 l-1760 0 0 -330z
m490 270 l0 -40 -155 0 -155 0 0 -90 0 -90 145 0 145 0 0 -40 0 -40 -145 0
-145 0 0 -100 0 -100 165 0 165 0 0 -40 0 -40 -215 0 -215 0 0 310 0 310 205
0 205 0 0 -40z m230 -192 c45 -128 85 -238 89 -245 3 -6 47 98 96 232 l90 245
52 0 52 0 -35 -87 c-19 -49 -73 -188 -121 -311 l-87 -223 -45 3 -45 3 -93 240
c-51 132 -104 270 -118 308 l-25 67 54 0 53 0 83 -232z"/>
<path d="M2710 329 l0 -232 88 5 c101 6 179 35 217 80 24 28 25 36 25 153 l0
123 -46 40 c-52 46 -106 62 -214 62 l-70 0 0 -231z"/>
<path d="M0 128 l0 -128 128 1 c118 0 124 1 86 13 -92 29 -164 101 -198 197
l-15 44 -1 -127z"/>
</g>
</svg>
