<?xml version="1.0" encoding="UTF-8" standalone="no"?>
<svg
   xmlns:dc="https://purl.org/dc/elements/1.1/"
   xmlns:cc="https://creativecommons.org/ns#"
   xmlns:rdf="https://www.w3.org/1999/02/22-rdf-syntax-ns#"
   xmlns:svg="https://www.w3.org/2000/svg"
   xmlns="https://www.w3.org/2000/svg"
   viewBox="0 0 177.5 73.75"
   height="73.75"
   width="177.5"
   xml:space="preserve"
   version="1.1"
   id="svg2"><metadata
     id="metadata8"><rdf:RDF><cc:Work
         rdf:about=""><dc:format>image/svg+xml</dc:format><dc:type
           rdf:resource="https://purl.org/dc/dcmitype/StillImage" /></cc:Work></rdf:RDF></metadata><defs
     id="defs6"><clipPath
       id="clipPath18"
       clipPathUnits="userSpaceOnUse"><path
         id="path20"
         d="M 0,59 142,59 142,0 0,0 0,59 Z" /></clipPath><linearGradient
       id="linearGradient60"
       spreadMethod="pad"
       gradientTransform="matrix(4.5,-8.25,-8.25,-4.5,69.725098,45.623047)"
       gradientUnits="userSpaceOnUse"
       y2="0"
       x2="1"
       y1="0"
       x1="0"><stop
         id="stop62"
         offset="0"
         style="stop-opacity:1;stop-color:#f15e37" /><stop
         id="stop64"
         offset="1"
         style="stop-opacity:1;stop-color:#ef8c36" /></linearGradient><linearGradient
       id="linearGradient80"
       spreadMethod="pad"
       gradientTransform="matrix(8.75,-8.1249847,-8.1249847,-8.75,48.574219,39.819824)"
       gradientUnits="userSpaceOnUse"
       y2="0"
       x2="1"
       y1="0"
       x1="0"><stop
         id="stop82"
         offset="0"
         style="stop-opacity:1;stop-color:#f16437" /><stop
         id="stop84"
         offset="1"
         style="stop-opacity:1;stop-color:#ed7c37" /></linearGradient><linearGradient
       id="linearGradient100"
       spreadMethod="pad"
       gradientTransform="matrix(15.375,-12.374985,-12.374985,-15.375,76.46875,41.193848)"
       gradientUnits="userSpaceOnUse"
       y2="0"
       x2="1"
       y1="0"
       x1="0"><stop
         id="stop102"
         offset="0"
         style="stop-opacity:1;stop-color:#f47936" /><stop
         id="stop104"
         offset="1"
         style="stop-opacity:1;stop-color:#f09536" /></linearGradient><linearGradient
       id="linearGradient128"
       spreadMethod="pad"
       gradientTransform="matrix(0,-31.250015,-31.250015,0,58.096191,34.125)"
       gradientUnits="userSpaceOnUse"
       y2="0"
       x2="1"
       y1="0"
       x1="0"><stop
         id="stop130"
         offset="0"
         style="stop-opacity:1;stop-color:#ec7537" /><stop
         id="stop132"
         offset="1"
         style="stop-opacity:1;stop-color:#f19d35" /></linearGradient><clipPath
       id="clipPath140"
       clipPathUnits="userSpaceOnUse"><path
         id="path142"
         d="M 0,59 142,59 142,0 0,0 0,59 Z" /></clipPath></defs><g
     transform="matrix(1.25,0,0,-1.25,0,73.75)"
     id="g10"><path
       id="path12"
       style="fill:#313658;fill-opacity:1;fill-rule:nonzero;stroke:none"
       d="M 0,0 142,0 142,59 0,59 0,0 Z" /><g
       id="g14"><g
         clip-path="url(#clipPath18)"
         id="g16"><path
           id="path22"
           style="fill:none;stroke:#373535;stroke-width:1;stroke-linecap:butt;stroke-linejoin:miter;stroke-miterlimit:4;stroke-dasharray:none;stroke-opacity:1"
           d="m 153.75,-0.375 -162.625,0 0,62.5 162.625,0 0,-62.5 z" /></g></g><g
       transform="translate(34.6729,38.856)"
       id="g24"><path
         id="path26"
         style="fill:#cb5d3a;fill-opacity:1;fill-rule:nonzero;stroke:none"
         d="M 0,0 0.674,-3.537 21.508,-7.42 24.034,-4.152 0,0 Z" /></g><g
       transform="translate(70.9639,32.4995)"
       id="g28"><path
         id="path30"
         style="fill:#cb5d3a;fill-opacity:1;fill-rule:nonzero;stroke:none"
         d="M 0,0 0.041,-3.959 14.733,-6.736 15.028,-2.738 0,0 Z" /></g><g
       transform="translate(85.6973,25.7637)"
       id="g32"><path
         id="path34"
         style="fill:#994735;fill-opacity:1;fill-rule:nonzero;stroke:none"
         d="M 0,0 14.82,4.799 15.572,8.588 0.295,3.998 0,0 Z" /></g><g
       transform="translate(58.6436,34.6875)"
       id="g36"><path
         id="path38"
         style="fill:#994735;fill-opacity:1;fill-rule:nonzero;stroke:none"
         d="M 0,0 2.51,-0.504 4.488,2.147 4.357,5.642 0,0 Z" /></g><g
       transform="translate(63.001,40.3296)"
       id="g40"><path
         id="path42"
         style="fill:#cb5d3a;fill-opacity:1;fill-rule:nonzero;stroke:none"
         d="m 0,0 0.131,-3.495 9.405,-1.526 1.82,3.295 L 0,0 Z" /></g><g
       transform="translate(74.332,38.6035)"
       id="g44"><path
         id="path46"
         style="fill:#994735;fill-opacity:1;fill-rule:nonzero;stroke:none"
         d="M 0,0 4.242,8.407 4.199,4.818 1.715,-0.274 0,0 Z" /></g><g
       id="g48"><g
         id="g50"><g
           id="g56"><g
             id="g58"><path
               id="path66"
               style="fill:url(#linearGradient60);stroke:none"
               d="m 63.006,40.33 11.348,-1.726 4.22,8.407 -11.467,-1.576 -4.101,-5.105 z" /></g></g></g></g><g
       id="g68"><g
         id="g70"><g
           id="g76"><g
             id="g78"><path
               id="path86"
               style="fill:url(#linearGradient80);stroke:none"
               d="M 34.63,38.856 58.67,34.688 63.006,40.33 50.839,42.35 34.63,38.856 Z" /></g></g></g></g><g
       id="g88"><g
         id="g90"><g
           id="g96"><g
             id="g98"><path
               id="path106"
               style="fill:url(#linearGradient100);stroke:none"
               d="m 74.354,38.604 -3.39,-6.104 15.028,-2.78 15.283,4.632 -26.921,4.252 z" /></g></g></g></g><g
       transform="translate(45.4414,12.958)"
       id="g108"><path
         id="path110"
         style="fill:#b95239;fill-opacity:1;fill-rule:nonzero;stroke:none"
         d="M 0,0 20.374,4.322 20.359,8.875 -0.263,4.42 0,0 Z" /></g><g
       transform="translate(71.0142,32.5547)"
       id="g112"><path
         id="path114"
         style="fill:#994735;fill-opacity:1;fill-rule:nonzero;stroke:none"
         d="M 0,0 -5.213,-10.722 -5.199,-15.274 0.104,-3.958 0,0 Z" /></g><g
       id="g116"><g
         id="g118"><g
           id="g124"><g
             id="g126"><path
               id="path134"
               style="fill:url(#linearGradient128);stroke:none"
               d="M 65.801,21.833 71.014,32.555 58.72,34.746 45.179,17.378" /></g></g></g></g><g
       id="g136"><g
         clip-path="url(#clipPath140)"
         id="g138"><g
           transform="translate(52.8516,36.8042)"
           id="g144"><path
             id="path146"
             style="fill:#ffffff;fill-opacity:1;fill-rule:nonzero;stroke:none"
             d="m 0,0 0,-9.559 2.792,3.598 0,5.748 c 0,2.36 -0.323,4.83 -3.544,4.83 l -12.56,0 c -2.04,0 -3.435,-1.02 -3.435,-4.187 l 0,-9.232 -1.182,2.039 -13.097,0 4.939,7.515 3.972,-6.12 1.932,1.933 c 0,0 -4.616,7.032 -4.938,7.515 -0.537,0.965 -1.289,0.859 -1.824,0.108 -0.591,-1.021 -8.482,-13.098 -8.482,-13.098 0,0 -0.859,-1.61 -2.147,-1.61 l -9.232,0 c -1.235,0 -2.147,0 -2.147,1.556 l 0,13.903 -2.899,0 0,-12.938 c 0,-3.167 0.751,-5.098 4.724,-5.098 l 9.393,0 c 2.631,0 2.791,0.268 5.047,3.649 l 13.042,0 2.362,-3.649 3.275,0 0,13.152 c 0,1.019 0.215,1.663 1.233,1.663 l 11.65,0 C -0.054,1.718 0,0.859 0,0" /></g><g
           transform="translate(136.2637,33.9263)"
           id="g148"><path
             id="path150"
             style="fill:#ffffff;fill-opacity:1;fill-rule:nonzero;stroke:none"
             d="m 0,0 -13.74,0 c -1.717,0 -1.717,1.664 -1.717,1.664 l 0,1.879 c 0,1.342 1.717,1.449 1.717,1.449 l 13.957,0 c 1.609,0 1.931,-1.932 1.931,-1.932 l 2.469,0 C 4.295,6.602 1.398,7.622 0.055,7.622 l -13.795,0 c -2.092,-0.054 -3.059,-1.342 -3.059,-1.342 -0.912,1.02 -2.203,1.342 -3.275,1.342 l -12.666,0 c -1.719,0 -2.739,-0.161 -4.028,-1.61 -1.021,1.288 -1.931,1.556 -3.435,1.556 l -10.199,0 -2.577,-2.576 12.561,-0.054 c 1.934,0 2.416,-1.986 2.416,-1.986 l 2.523,0 c 0.161,1.61 1.182,1.986 2.522,1.986 l 4.885,0 0,-7.354 2.578,2.416 0,4.938 5.635,0 c 1.611,0 1.879,-1.932 1.879,-1.932 l 0,-2.094 c 0.697,-3.328 4.24,-3.541 4.24,-3.541 l 13.74,0 c 1.504,0 2.041,-1.02 2.041,-1.665 l 0,-1.932 c 0,-0.646 -0.43,-1.556 -1.824,-1.556 l -13.957,0 c -1.451,0 -1.77,1.879 -1.77,1.879 l -2.578,0 c 0,-3.92 3.973,-4.456 3.973,-4.456 l 13.955,0 c 3.219,0 4.67,1.503 4.67,3.381 l 0,3.436 C 4.51,-1.503 3.168,0 0,0 m -39.988,-7.782 -9.403,0 -1.175,-0.381 -2.014,0.381 -0.988,0 c -2.254,0 -2.147,1.609 -2.147,1.609 l 0,1.181 c 0,2.308 2.414,2.415 2.414,2.415 l 2.363,0 2.631,2.63 -5.099,0 c -2.576,0 -2.416,2.201 -2.416,2.201 l -2.254,-2.201 c -0.053,-0.59 1.234,-1.448 1.234,-1.448 -0.771,-0.619 -1.357,-1.021 -1.357,-2.519 0,-0.594 -0.037,-1.419 -0.037,-2.472 0,-3.815 3.433,-3.973 4.668,-3.973 l 13.74,0 c 3.705,0 4.402,4.186 4.402,4.186 l -2.738,0.429 c -0.32,-1.664 -1.234,-2.038 -1.824,-2.038 m 11.836,-2.631 2.658,0 0,6.468 -2.631,0 -0.027,-6.468 z" /></g></g></g></g></svg>