<?xml version="1.0" encoding="UTF-8" standalone="no"?>
<svg
   xmlns:dc="https://purl.org/dc/elements/1.1/"
   xmlns:cc="https://creativecommons.org/ns#"
   xmlns:rdf="https://www.w3.org/1999/02/22-rdf-syntax-ns#"
   xmlns:svg="https://www.w3.org/2000/svg"
   xmlns="https://www.w3.org/2000/svg"
   viewBox="0 0 650.17334 597.30664"
   height="597.30664"
   width="650.17334"
   xml:space="preserve"
   id="svg2"
   version="1.1"><metadata
     id="metadata8"><rdf:RDF><cc:Work
         rdf:about=""><dc:format>image/svg+xml</dc:format><dc:type
           rdf:resource="https://purl.org/dc/dcmitype/StillImage" /></cc:Work></rdf:RDF></metadata><defs
     id="defs6" /><g
     transform="matrix(1.3333333,0,0,-1.3333333,0,597.30667)"
     id="g10"><g
       transform="scale(0.1)"
       id="g12"><path
         id="path14"
         style="fill:#ffffff;fill-opacity:1;fill-rule:nonzero;stroke:none"
         d="m 3646.43,2263.52 c -227.27,-515.83 -694.91,-785.8 -1194.37,-779.55 -958.08,47.52 -1236.78,1153.94 -596.5,1553.39 l 28.17,-28.17 c -10.93,-14.34 -48.09,-44.47 -107.96,-161.61 -69.76,-142.35 -91.02,-284.23 -82.77,-372.98 49.85,-773.43 1131.89,-930.73 1504.6,-166.16 474.4,1048.78 -783.06,2113.9 -1899.55,1299.85 l -25.78,25.77 c 293.67,460.78 867.48,667.01 1415.53,529.22 838.06,-209.53 1287.96,-1083.67 958.63,-1899.76 z m -895.78,16.61 c -77.58,-111.67 -206.76,-184.8 -353.04,-184.8 -237.27,0 -429.61,192.34 -429.61,429.61 0,226.78 175.73,412.5 398.44,428.47 v -0.01 c 138.7,5.58 267.94,-69.37 329.48,-190.9 66.34,-131.03 42.06,-292.65 -61.27,-401.63 38.66,-26.92 77.33,-53.83 116,-80.74 z m -1498.8,283.73 c -20.71,-170.62 -7.8,-223.9 -7.85,-244.18 l -37.9,-13.79 c -14.33,28.06 -50.73,126.93 -66.77,259.79 -41.01,507.26 304.62,964.38 830.78,1049.47 482.56,70.92 943.95,-228.78 1052.03,-648.28 l -38.01,-13.83 c -11.3,12.49 -31.45,46.44 -104.39,120.37 -581.96,584.64 -1496.62,316.49 -1627.89,-509.55 z m 2760.07,281.31 c -34.45,1676.39 -2261.07,2301.17 -3118.315,730.25 37.887,-27.41 90.29,-64.5 128.175,-91.9 -65.675,-137.93 -109.452,-278.43 -133.401,-418.47 -16.656,-91.8 -25.399,-186.36 -25.399,-282.97 0,-869.94 705.22,-1575.16 1575.16,-1575.16 869.93,0 1575.15,705.22 1575.15,1575.16 0,21.14 -0.54,42.15 -1.37,63.09" /><path
         id="path16"
         style="fill:#ffffff;fill-opacity:1;fill-rule:nonzero;stroke:none"
         d="M 4876.27,728.48 H 4624.89 V 15.3906 H 4429.93 V 728.48 h -252.66 v 184.692 h 699 z m -1193.2,0 V 520.699 H 4064 V 371.93 H 3683.07 V 15.3906 H 3488.14 V 913.172 h 614.33 V 728.48 Z M 3211.15,464.281 c 0,161.598 -102.6,279.598 -259.08,279.598 -91.06,0 -159.03,-34.629 -200.07,-79.52 l 30.78,-30.789 C 2735.32,593.809 2693,538.66 2693,439.91 c 0,-135.961 96.19,-255.219 259.07,-255.219 156.48,0 259.08,117.989 259.08,279.59 z m 197.51,0 C 3408.66,200.07 3218.84,0 2952.07,0 2678.9,0 2495.49,196.23 2495.49,433.5 c 0,153.91 60.28,265.488 148.77,338.602 l -30.78,30.777 c 67.98,70.531 192.38,125.68 338.59,125.68 266.77,0 456.59,-202.637 456.59,-464.278 z m -1200.79,85.93 C 2361.77,496.34 2441.29,427.082 2441.29,288.57 2441.29,102.602 2298.93,0 2130.92,0 1975.73,0 1856.45,69.25 1806.43,197.512 l 155.19,115.418 c 28.22,-80.801 101.32,-130.821 174.43,-130.821 64.12,0 110.3,34.641 110.3,92.352 0,53.871 -34.64,87.211 -162.89,133.379 -138.52,50.031 -241.12,119.281 -241.12,268.058 0,143.653 119.28,252.661 292.43,252.661 137.22,0 243.68,-55.149 293.7,-164.161 l -155.2,-107.726 c -29.49,66.68 -75.66,103.867 -146.2,103.867 -59,0 -102.6,-32.059 -102.6,-78.23 0,-52.579 48.73,-84.637 183.4,-132.098 z M 1541.8,913.172 h 194.94 V 15.3906 H 1541.8 Z M 1140.5,187.25 c 83.36,0 130.82,38.48 130.82,112.859 0,74.391 -47.46,112.86 -130.82,112.86 H 1032.77 V 187.25 Z M 1032.77,741.309 V 551.488 h 102.61 c 60.27,0 101.31,34.633 101.31,94.922 0,60.27 -41.04,94.899 -101.31,94.899 z M 1466.27,282.16 C 1466.27,126.969 1344.43,15.3906 1148.2,15.3906 H 837.82 V 913.172 h 298.84 c 173.13,0 287.29,-83.363 287.29,-216.742 0,-101.328 -47.46,-162.891 -118,-192.391 94.9,-35.91 160.32,-101.328 160.32,-221.879 z M 741.313,913.172 V 374.5 C 741.313,160.309 610.492,0 370.656,0 130.82,0 0,160.309 0,374.5 V 913.172 H 194.949 V 389.898 c 0,-130.828 61.563,-205.207 175.707,-205.207 114.145,0 175.707,74.379 175.707,205.207 v 523.274 h 194.95" /></g></g></svg>