<?xml version="1.0" encoding="utf-8"?>
<!-- Generator: Adobe Illustrator 16.0.0, SVG Export Plug-In . SVG Version: 6.00 Build 0)  -->
<!DOCTYPE svg PUBLIC "-//W3C//DTD SVG 1.1//EN" "http://www.w3.org/Graphics/SVG/1.1/DTD/svg11.dtd">
<svg version="1.1" id="Layer_1" xmlns="http://www.w3.org/2000/svg" xmlns:xlink="http://www.w3.org/1999/xlink" x="0px" y="0px"
	 width="1200px" height="630px" viewBox="0 0 1200 630" enable-background="new 0 0 1200 630" xml:space="preserve">
<g>
	<path fill="#924995" d="M560.804,160.987c0-5.275,1.605-9.726,4.835-13.358c3.217-3.632,7.994-5.449,14.321-5.449
		s11.13,1.816,14.41,5.449c3.28,3.633,4.924,8.083,4.924,13.358c0,5.272-1.645,9.667-4.924,13.179
		c-3.28,3.517-8.083,5.276-14.41,5.276s-11.104-1.759-14.321-5.276C562.41,170.653,560.804,166.259,560.804,160.987z
		 M595.957,401.596h-32.514V211.427h32.514V401.596z"/>
	<path fill="#924995" d="M678.556,375.054h111.255v26.542H638.839v-23.902l104.922-139.376H640.42v-26.89h144.12v23.024
		L678.556,375.054z"/>
	<path fill="#924995" d="M918.288,240.602c-2.814-0.466-5.42-0.79-7.819-0.966c-2.405-0.176-5.131-0.265-8.178-0.265
		c-11.243,0-20.414,2.462-27.502,7.385c-7.09,4.919-12.39,11.542-15.908,19.857v134.982h-32.515V211.427h31.639l0.53,21.97
		c4.915-7.85,11.072-14.061,18.45-18.631c7.384-4.57,16.35-6.855,26.894-6.855c2.342,0,5.035,0.264,8.083,0.793
		c3.046,0.526,5.155,1.083,6.326,1.668V240.602z"/>
	<path fill="#924995" d="M936.922,304.933c0-14.53,1.781-27.743,5.357-39.635c3.573-11.892,8.636-22.087,15.202-30.582
		c6.56-8.495,14.441-15.086,23.638-19.773c9.197-4.686,19.479-7.031,30.848-7.031c11.601,0,21.729,1.963,30.405,5.889
		c8.669,3.928,16.172,9.578,22.498,16.959v-99.124h32.515v269.959h-29.882l-1.581-20.385c-6.326,7.732-13.944,13.647-22.845,17.745
		c-8.907,4.106-19.396,6.157-31.463,6.157c-11.132,0-21.298-2.406-30.495-7.209c-9.196-4.803-17.078-11.514-23.638-20.124
		c-6.566-8.611-11.629-18.806-15.202-30.583c-3.576-11.773-5.357-24.634-5.357-38.576V304.933z M969.437,308.621
		c0,9.494,0.963,18.426,2.896,26.803c1.932,8.381,4.947,15.672,9.054,21.886c4.098,6.204,9.315,11.129,15.642,14.759
		c6.326,3.635,13.881,5.447,22.669,5.447c5.742,0,10.897-0.675,15.467-2.021c4.571-1.341,8.702-3.249,12.395-5.711
		c3.691-2.462,6.971-5.388,9.84-8.788c2.871-3.396,5.363-7.145,7.473-11.246v-87.354c-2.109-3.865-4.569-7.437-7.384-10.72
		c-2.815-3.28-6.062-6.123-9.751-8.524c-3.695-2.401-7.825-4.277-12.395-5.625c-4.571-1.344-9.664-2.021-15.292-2.021
		c-8.9,0-16.55,1.845-22.933,5.536c-6.391,3.69-11.633,8.7-15.73,15.027c-4.106,6.326-7.122,13.682-9.054,22.058
		c-1.933,8.379-2.896,17.312-2.896,26.806V308.621z"/>
	<g>
		<path fill="#924995" d="M468.578,405.14l-6.805,24.94v0.021c0.132,0.276,0.189,0.541,0.189,0.822
			c0,9.064-60.597,16.429-135.328,16.429c-74.729,0-135.326-7.364-135.326-16.429c0-0.303,0.076-0.614,0.207-0.918v-0.021
			l-6.748-24.789c-50.16,9.606-82.151,24.231-82.151,40.63c0,29.013,100.383,52.538,224.189,52.538
			c123.807,0,224.19-23.525,224.19-52.538C550.994,429.427,518.876,414.771,468.578,405.14z"/>
		<path fill="#924995" d="M319.572,327.099l-26.774,66.791l-0.283,0.666l-8.373,20.739c-35.845,1.44-65.047,4.651-80.603,8.788
			l-5.798-21.202L124.32,134.265h58.948c0,0,54.61,214.412,59.326,231.184l46.383-114.518L319.572,327.099z"/>
		<path fill="#924995" d="M528.948,134.265l-73.401,268.56l-5.811,21.259c-15.561-4.137-44.758-7.356-80.584-8.788l-8.397-20.739
			l-0.277-0.692L256.205,134.265h61.271l93.219,231.184C415.408,348.673,470,134.265,470,134.265H528.948z"/>
	</g>
</g>
</svg>
