<svg width="1461" height="807" viewBox="0 0 1461 807" fill="none" xmlns="http://www.w3.org/2000/svg">
<path d="M664.623 226.899L662.3 294.591C662.3 294.591 154.689 344.208 134.418 346.7C114.148 349.191 99.2621 366.631 104.194 389.44C109.126 412.248 188.194 616.812 196.902 629.933C205.61 643.054 216.095 641.765 232.171 639.789C248.248 637.813 1239.4 521.671 1239.4 521.671L1234.33 480.41L1258.94 444.036L1393.62 541.031L1255.46 652.381L1248.85 598.559L208.757 726.393C189.885 728.713 164.573 719.052 152.382 700.683C140.19 682.314 30.3829 389.287 29.02 372.426C27.6572 355.564 22.3115 317.885 57.8347 289.395C93.3579 260.904 126.737 255.383 135.738 253.567C144.739 251.751 664.623 226.899 664.623 226.899Z" fill="#D5304F" stroke="#1D1E20" stroke-width="6"/>
<path d="M1180.12 501.283C1170.75 511.659 263.753 613.911 244.881 616.231C226.008 618.551 220.108 599.409 207.83 580.341C195.553 561.273 126.311 378.916 125.83 357.689C125.35 336.462 128.942 331.053 151.849 321.143C174.755 311.232 1277.76 216.109 1307.11 212.501C1336.47 208.893 1357.84 226.844 1346.62 245.252C1335.4 263.66 1189.49 490.908 1180.12 501.283Z" fill="#D5304F" stroke="#1D1E20" stroke-width="6"/>
<mask id="path-3-outside-1_17_3" maskUnits="userSpaceOnUse" x="237.859" y="305.895" width="893" height="194" fill="black">
<rect fill="white" x="237.859" y="305.895" width="893" height="194"/>
<path d="M243.963 434.713C243.733 432.71 243.887 430.796 244.425 428.972C245.01 427.088 245.859 425.415 246.973 423.952C248.139 422.483 249.55 421.28 251.205 420.342C252.906 419.345 254.758 418.732 256.762 418.502C258.765 418.272 260.681 418.452 262.512 419.043C264.389 419.575 266.062 420.425 267.531 421.591C269 422.758 270.207 424.195 271.151 425.902C272.141 427.551 272.751 429.377 272.981 431.38C273.211 433.383 273.034 435.326 272.449 437.209C271.911 439.033 271.059 440.68 269.892 442.149C268.72 443.566 267.283 444.772 265.581 445.769C263.926 446.707 262.097 447.291 260.094 447.521C258.091 447.751 256.151 447.6 254.274 447.068C252.444 446.477 250.797 445.624 249.334 444.51C247.917 443.338 246.714 441.927 245.723 440.279C244.78 438.571 244.193 436.716 243.963 434.713Z"/>
<path d="M327.493 467.691C332.516 473.042 346.518 485.114 346.518 485.114C363.101 469.378 375.856 428.243 383.133 402.936L382.781 447.51L398.457 456.957C398.457 456.957 410.062 429.634 422.703 407.359C415.942 427.895 405.743 470.104 425.348 491.259C433.942 484.041 439.448 480.368 441.538 477.392C424.321 447.907 445.037 395.371 457.592 372.346C453.965 369.874 441.933 363.049 441.933 363.049C441.933 363.049 411.422 400.447 394.699 428.206L394.83 377.73L385.735 371.327C375.233 385.756 333.552 378.84 323.051 402.541C329.468 410.771 337.823 419.995 337.823 419.995C345.613 407.093 360.628 400.201 371.495 394.241C363.627 413.08 342.214 462.201 327.493 467.691Z"/>
<path d="M466.027 463.788C496.529 464.693 510.734 432.207 510.734 432.207L505.532 427.941C505.532 427.941 491.732 448.069 474.557 448.066C453.262 447.927 475.692 407.657 483.785 409.312C491.879 410.966 477.651 423.391 477.651 423.391L486.018 431.398C499.285 425.163 503.581 396.399 482.584 400.178C445.507 406.868 431.405 462.749 466.027 463.788Z"/>
<path d="M530.584 452.726C542.786 451.781 553.533 444.771 560.962 437.99C556.103 449.948 548.075 466.069 541.14 466.561C532.688 467.076 529.908 464.051 529.908 464.051L513.745 480.803C513.745 480.803 520.62 495.669 541.836 492.472C573.386 487.937 577.716 427.706 584.432 404.136L572.371 398.378C572.371 398.378 554.872 432.61 541.747 432.141C514.262 431.042 535.632 365.663 557.244 365.917C568.817 366.107 553.203 391.612 548.299 391.263L559.358 405.496C581.052 391.909 583.084 346.078 549.705 351.887C495.629 361.442 490.923 455.457 530.584 452.726Z"/>
<path d="M605.195 445.829C617.248 444.901 622.761 438.644 625.36 433.482C627.579 438.243 631.736 443.997 639.236 443.136C655.138 441.31 667.227 414.234 667.227 414.234L662.026 409.968C662.026 409.968 652.239 424.011 645.633 423.402C633.057 422.415 651.972 383.308 651.972 383.308C651.972 383.308 646.817 378.124 637.406 380.877C636.13 383 635.072 385.705 633.9 388.727C632.136 385.282 629.357 382.257 625.555 382.238C586.069 382.517 576.907 448.318 605.195 445.829ZM623.091 392.553C626.743 392.589 629.009 396.433 630.138 399.647C625.538 413.855 620.326 429.348 613.039 429.425C603.467 429.461 611.518 392.362 623.091 392.553Z"/>
<path d="M673.011 439.713C673.274 420.836 691.393 382.732 699.256 385.021C704.597 386.536 688.653 426.365 688.653 426.365L707.231 435.935C707.958 425.06 719.139 382.13 727.134 384.251C734.195 386.176 712.644 434.097 740.482 431.66C755.986 430.335 765.606 402.936 765.606 402.936L760.404 398.669C760.404 398.669 751.201 412.494 746.447 412.128C738.757 411.339 756.344 373.905 733.458 371.822C725.318 371.085 718.536 376.879 713.987 382.265C712.639 378.468 709.739 374.394 703.502 374.35C696.815 374.358 690.8 380.217 686.32 386.203L688.435 380.792L674.013 376.977C674.013 376.977 656.573 418.346 657.039 431.668C661.07 435.004 673.011 439.713 673.011 439.713Z"/>
<path d="M777.509 428.167C805.572 427.68 822.049 396.453 822.049 396.453L816.697 392.204C816.697 392.204 801.594 411.57 783.403 411.987C778.401 412.106 776.949 407.409 777.628 401.403C781.481 401.873 785.618 402.157 788.716 401.346C811.088 394.976 811.825 364.341 795.798 363.75C779.621 363.176 768.196 376.192 760.982 391.459C753.121 407.713 757.334 428.509 777.509 428.167ZM793.502 374.197C799.633 377.293 792.323 389.076 780.981 388.251C783.939 380.919 788.35 374.333 791.8 373.937C792.4 373.868 793.018 373.949 793.502 374.197Z"/>
<path d="M839.056 424.139C879.255 418.154 887.049 343.087 903.902 319.112L893.954 311.895C883.471 322.522 858.642 318.078 843.221 328.057C831.643 335.77 829.423 344.233 829.423 344.233L845.57 359.098C846.668 344.836 868.82 337.884 883.3 330.294C876.811 347.91 859.175 390.214 835.684 396.103C820.324 399.995 816.258 387.087 816.258 387.087C811.406 387.188 804.674 429.151 839.056 424.139Z"/>
<path d="M906.102 411.271C918.155 410.343 923.668 404.086 926.267 398.924C928.486 403.684 932.642 409.439 940.143 408.577C956.045 406.751 968.134 379.676 968.134 379.676L962.932 375.41C962.932 375.41 953.146 389.453 946.54 388.844C933.963 387.856 952.879 348.749 952.879 348.749C952.879 348.749 947.724 343.566 938.312 346.319C937.036 348.441 935.979 351.146 934.806 354.169C933.043 350.724 930.263 347.699 926.461 347.68C886.975 347.959 877.813 413.76 906.102 411.271ZM923.998 357.994C927.65 358.031 929.916 361.874 931.045 365.088C926.445 379.296 921.232 394.79 913.946 394.867C904.374 394.902 912.425 357.803 923.998 357.994Z"/>
<path d="M973.917 405.154C974.181 386.277 992.3 348.174 1000.16 350.463C1005.5 351.977 989.56 391.806 989.56 391.806L1008.14 401.376C1008.86 390.501 1020.05 347.571 1028.04 349.693C1035.1 351.618 1013.55 399.539 1041.39 397.101C1056.89 395.777 1066.51 368.377 1066.51 368.377L1061.31 364.111C1061.31 364.111 1052.11 377.935 1047.35 377.569C1039.66 376.781 1057.25 339.346 1034.36 337.263C1026.22 336.526 1019.44 342.321 1014.89 347.707C1013.55 343.91 1010.65 339.835 1004.41 339.792C997.722 339.8 991.707 345.658 987.227 351.644L989.341 346.234L974.92 342.418C974.92 342.418 957.48 383.787 957.946 397.109C961.977 400.446 973.917 405.154 973.917 405.154Z"/>
<path d="M1094.97 336.977C1094.74 334.974 1094.89 333.06 1095.43 331.236C1096.01 329.352 1096.86 327.679 1097.98 326.216C1099.14 324.747 1100.55 323.544 1102.21 322.606C1103.91 321.609 1105.76 320.996 1107.77 320.766C1109.77 320.536 1111.69 320.716 1113.52 321.307C1115.39 321.839 1117.07 322.689 1118.54 323.855C1120 325.022 1121.21 326.459 1122.16 328.166C1123.15 329.815 1123.76 331.641 1123.99 333.644C1124.22 335.647 1124.04 337.59 1123.45 339.473C1122.92 341.297 1122.06 342.944 1120.9 344.413C1119.72 345.83 1118.29 347.036 1116.59 348.033C1114.93 348.971 1113.1 349.555 1111.1 349.785C1109.1 350.015 1107.16 349.864 1105.28 349.331C1103.45 348.741 1101.8 347.888 1100.34 346.774C1098.92 345.602 1097.72 344.191 1096.73 342.543C1095.78 340.835 1095.2 338.98 1094.97 336.977Z"/>
</mask>
<path d="M243.963 434.713C243.733 432.71 243.887 430.796 244.425 428.972C245.01 427.088 245.859 425.415 246.973 423.952C248.139 422.483 249.55 421.28 251.205 420.342C252.906 419.345 254.758 418.732 256.762 418.502C258.765 418.272 260.681 418.452 262.512 419.043C264.389 419.575 266.062 420.425 267.531 421.591C269 422.758 270.207 424.195 271.151 425.902C272.141 427.551 272.751 429.377 272.981 431.38C273.211 433.383 273.034 435.326 272.449 437.209C271.911 439.033 271.059 440.68 269.892 442.149C268.72 443.566 267.283 444.772 265.581 445.769C263.926 446.707 262.097 447.291 260.094 447.521C258.091 447.751 256.151 447.6 254.274 447.068C252.444 446.477 250.797 445.624 249.334 444.51C247.917 443.338 246.714 441.927 245.723 440.279C244.78 438.571 244.193 436.716 243.963 434.713Z" fill="#FFF8EE"/>
<path d="M327.493 467.691C332.516 473.042 346.518 485.114 346.518 485.114C363.101 469.378 375.856 428.243 383.133 402.936L382.781 447.51L398.457 456.957C398.457 456.957 410.062 429.634 422.703 407.359C415.942 427.895 405.743 470.104 425.348 491.259C433.942 484.041 439.448 480.368 441.538 477.392C424.321 447.907 445.037 395.371 457.592 372.346C453.965 369.874 441.933 363.049 441.933 363.049C441.933 363.049 411.422 400.447 394.699 428.206L394.83 377.73L385.735 371.327C375.233 385.756 333.552 378.84 323.051 402.541C329.468 410.771 337.823 419.995 337.823 419.995C345.613 407.093 360.628 400.201 371.495 394.241C363.627 413.08 342.214 462.201 327.493 467.691Z" fill="#FFF8EE"/>
<path d="M466.027 463.788C496.529 464.693 510.734 432.207 510.734 432.207L505.532 427.941C505.532 427.941 491.732 448.069 474.557 448.066C453.262 447.927 475.692 407.657 483.785 409.312C491.879 410.966 477.651 423.391 477.651 423.391L486.018 431.398C499.285 425.163 503.581 396.399 482.584 400.178C445.507 406.868 431.405 462.749 466.027 463.788Z" fill="#FFF8EE"/>
<path d="M530.584 452.726C542.786 451.781 553.533 444.771 560.962 437.99C556.103 449.948 548.075 466.069 541.14 466.561C532.688 467.076 529.908 464.051 529.908 464.051L513.745 480.803C513.745 480.803 520.62 495.669 541.836 492.472C573.386 487.937 577.716 427.706 584.432 404.136L572.371 398.378C572.371 398.378 554.872 432.61 541.747 432.141C514.262 431.042 535.632 365.663 557.244 365.917C568.817 366.107 553.203 391.612 548.299 391.263L559.358 405.496C581.052 391.909 583.084 346.078 549.705 351.887C495.629 361.442 490.923 455.457 530.584 452.726Z" fill="#FFF8EE"/>
<path d="M605.195 445.829C617.248 444.901 622.761 438.644 625.36 433.482C627.579 438.243 631.736 443.997 639.236 443.136C655.138 441.31 667.227 414.234 667.227 414.234L662.026 409.968C662.026 409.968 652.239 424.011 645.633 423.402C633.057 422.415 651.972 383.308 651.972 383.308C651.972 383.308 646.817 378.124 637.406 380.877C636.13 383 635.072 385.705 633.9 388.727C632.136 385.282 629.357 382.257 625.555 382.238C586.069 382.517 576.907 448.318 605.195 445.829ZM623.091 392.553C626.743 392.589 629.009 396.433 630.138 399.647C625.538 413.855 620.326 429.348 613.039 429.425C603.467 429.461 611.518 392.362 623.091 392.553Z" fill="#FFF8EE"/>
<path d="M673.011 439.713C673.274 420.836 691.393 382.732 699.256 385.021C704.597 386.536 688.653 426.365 688.653 426.365L707.231 435.935C707.958 425.06 719.139 382.13 727.134 384.251C734.195 386.176 712.644 434.097 740.482 431.66C755.986 430.335 765.606 402.936 765.606 402.936L760.404 398.669C760.404 398.669 751.201 412.494 746.447 412.128C738.757 411.339 756.344 373.905 733.458 371.822C725.318 371.085 718.536 376.879 713.987 382.265C712.639 378.468 709.739 374.394 703.502 374.35C696.815 374.358 690.8 380.217 686.32 386.203L688.435 380.792L674.013 376.977C674.013 376.977 656.573 418.346 657.039 431.668C661.07 435.004 673.011 439.713 673.011 439.713Z" fill="#FFF8EE"/>
<path d="M777.509 428.167C805.572 427.68 822.049 396.453 822.049 396.453L816.697 392.204C816.697 392.204 801.594 411.57 783.403 411.987C778.401 412.106 776.949 407.409 777.628 401.403C781.481 401.873 785.618 402.157 788.716 401.346C811.088 394.976 811.825 364.341 795.798 363.75C779.621 363.176 768.196 376.192 760.982 391.459C753.121 407.713 757.334 428.509 777.509 428.167ZM793.502 374.197C799.633 377.293 792.323 389.076 780.981 388.251C783.939 380.919 788.35 374.333 791.8 373.937C792.4 373.868 793.018 373.949 793.502 374.197Z" fill="#FFF8EE"/>
<path d="M839.056 424.139C879.255 418.154 887.049 343.087 903.902 319.112L893.954 311.895C883.471 322.522 858.642 318.078 843.221 328.057C831.643 335.77 829.423 344.233 829.423 344.233L845.57 359.098C846.668 344.836 868.82 337.884 883.3 330.294C876.811 347.91 859.175 390.214 835.684 396.103C820.324 399.995 816.258 387.087 816.258 387.087C811.406 387.188 804.674 429.151 839.056 424.139Z" fill="#FFF8EE"/>
<path d="M906.102 411.271C918.155 410.343 923.668 404.086 926.267 398.924C928.486 403.684 932.642 409.439 940.143 408.577C956.045 406.751 968.134 379.676 968.134 379.676L962.932 375.41C962.932 375.41 953.146 389.453 946.54 388.844C933.963 387.856 952.879 348.749 952.879 348.749C952.879 348.749 947.724 343.566 938.312 346.319C937.036 348.441 935.979 351.146 934.806 354.169C933.043 350.724 930.263 347.699 926.461 347.68C886.975 347.959 877.813 413.76 906.102 411.271ZM923.998 357.994C927.65 358.031 929.916 361.874 931.045 365.088C926.445 379.296 921.232 394.79 913.946 394.867C904.374 394.902 912.425 357.803 923.998 357.994Z" fill="#FFF8EE"/>
<path d="M973.917 405.154C974.181 386.277 992.3 348.174 1000.16 350.463C1005.5 351.977 989.56 391.806 989.56 391.806L1008.14 401.376C1008.86 390.501 1020.05 347.571 1028.04 349.693C1035.1 351.618 1013.55 399.539 1041.39 397.101C1056.89 395.777 1066.51 368.377 1066.51 368.377L1061.31 364.111C1061.31 364.111 1052.11 377.935 1047.35 377.569C1039.66 376.781 1057.25 339.346 1034.36 337.263C1026.22 336.526 1019.44 342.321 1014.89 347.707C1013.55 343.91 1010.65 339.835 1004.41 339.792C997.722 339.8 991.707 345.658 987.227 351.644L989.341 346.234L974.92 342.418C974.92 342.418 957.48 383.787 957.946 397.109C961.977 400.446 973.917 405.154 973.917 405.154Z" fill="#FFF8EE"/>
<path d="M1094.97 336.977C1094.74 334.974 1094.89 333.06 1095.43 331.236C1096.01 329.352 1096.86 327.679 1097.98 326.216C1099.14 324.747 1100.55 323.544 1102.21 322.606C1103.91 321.609 1105.76 320.996 1107.77 320.766C1109.77 320.536 1111.69 320.716 1113.52 321.307C1115.39 321.839 1117.07 322.689 1118.54 323.855C1120 325.022 1121.21 326.459 1122.16 328.166C1123.15 329.815 1123.76 331.641 1123.99 333.644C1124.22 335.647 1124.04 337.59 1123.45 339.473C1122.92 341.297 1122.06 342.944 1120.9 344.413C1119.72 345.83 1118.29 347.036 1116.59 348.033C1114.93 348.971 1113.1 349.555 1111.1 349.785C1109.1 350.015 1107.16 349.864 1105.28 349.331C1103.45 348.741 1101.8 347.888 1100.34 346.774C1098.92 345.602 1097.72 344.191 1096.73 342.543C1095.78 340.835 1095.2 338.98 1094.97 336.977Z" fill="#FFF8EE"/>
<path d="M243.963 434.713C243.733 432.71 243.887 430.796 244.425 428.972C245.01 427.088 245.859 425.415 246.973 423.952C248.139 422.483 249.55 421.28 251.205 420.342C252.906 419.345 254.758 418.732 256.762 418.502C258.765 418.272 260.681 418.452 262.512 419.043C264.389 419.575 266.062 420.425 267.531 421.591C269 422.758 270.207 424.195 271.151 425.902C272.141 427.551 272.751 429.377 272.981 431.38C273.211 433.383 273.034 435.326 272.449 437.209C271.911 439.033 271.059 440.68 269.892 442.149C268.72 443.566 267.283 444.772 265.581 445.769C263.926 446.707 262.097 447.291 260.094 447.521C258.091 447.751 256.151 447.6 254.274 447.068C252.444 446.477 250.797 445.624 249.334 444.51C247.917 443.338 246.714 441.927 245.723 440.279C244.78 438.571 244.193 436.716 243.963 434.713Z" stroke="#1D1E20" stroke-width="12" stroke-linejoin="round" mask="url(#path-3-outside-1_17_3)"/>
<path d="M327.493 467.691C332.516 473.042 346.518 485.114 346.518 485.114C363.101 469.378 375.856 428.243 383.133 402.936L382.781 447.51L398.457 456.957C398.457 456.957 410.062 429.634 422.703 407.359C415.942 427.895 405.743 470.104 425.348 491.259C433.942 484.041 439.448 480.368 441.538 477.392C424.321 447.907 445.037 395.371 457.592 372.346C453.965 369.874 441.933 363.049 441.933 363.049C441.933 363.049 411.422 400.447 394.699 428.206L394.83 377.73L385.735 371.327C375.233 385.756 333.552 378.84 323.051 402.541C329.468 410.771 337.823 419.995 337.823 419.995C345.613 407.093 360.628 400.201 371.495 394.241C363.627 413.08 342.214 462.201 327.493 467.691Z" stroke="#1D1E20" stroke-width="12" stroke-linejoin="round" mask="url(#path-3-outside-1_17_3)"/>
<path d="M466.027 463.788C496.529 464.693 510.734 432.207 510.734 432.207L505.532 427.941C505.532 427.941 491.732 448.069 474.557 448.066C453.262 447.927 475.692 407.657 483.785 409.312C491.879 410.966 477.651 423.391 477.651 423.391L486.018 431.398C499.285 425.163 503.581 396.399 482.584 400.178C445.507 406.868 431.405 462.749 466.027 463.788Z" stroke="#1D1E20" stroke-width="12" stroke-linejoin="round" mask="url(#path-3-outside-1_17_3)"/>
<path d="M530.584 452.726C542.786 451.781 553.533 444.771 560.962 437.99C556.103 449.948 548.075 466.069 541.14 466.561C532.688 467.076 529.908 464.051 529.908 464.051L513.745 480.803C513.745 480.803 520.62 495.669 541.836 492.472C573.386 487.937 577.716 427.706 584.432 404.136L572.371 398.378C572.371 398.378 554.872 432.61 541.747 432.141C514.262 431.042 535.632 365.663 557.244 365.917C568.817 366.107 553.203 391.612 548.299 391.263L559.358 405.496C581.052 391.909 583.084 346.078 549.705 351.887C495.629 361.442 490.923 455.457 530.584 452.726Z" stroke="#1D1E20" stroke-width="12" stroke-linejoin="round" mask="url(#path-3-outside-1_17_3)"/>
<path d="M605.195 445.829C617.248 444.901 622.761 438.644 625.36 433.482C627.579 438.243 631.736 443.997 639.236 443.136C655.138 441.31 667.227 414.234 667.227 414.234L662.026 409.968C662.026 409.968 652.239 424.011 645.633 423.402C633.057 422.415 651.972 383.308 651.972 383.308C651.972 383.308 646.817 378.124 637.406 380.877C636.13 383 635.072 385.705 633.9 388.727C632.136 385.282 629.357 382.257 625.555 382.238C586.069 382.517 576.907 448.318 605.195 445.829ZM623.091 392.553C626.743 392.589 629.009 396.433 630.138 399.647C625.538 413.855 620.326 429.348 613.039 429.425C603.467 429.461 611.518 392.362 623.091 392.553Z" stroke="#1D1E20" stroke-width="12" stroke-linejoin="round" mask="url(#path-3-outside-1_17_3)"/>
<path d="M673.011 439.713C673.274 420.836 691.393 382.732 699.256 385.021C704.597 386.536 688.653 426.365 688.653 426.365L707.231 435.935C707.958 425.06 719.139 382.13 727.134 384.251C734.195 386.176 712.644 434.097 740.482 431.66C755.986 430.335 765.606 402.936 765.606 402.936L760.404 398.669C760.404 398.669 751.201 412.494 746.447 412.128C738.757 411.339 756.344 373.905 733.458 371.822C725.318 371.085 718.536 376.879 713.987 382.265C712.639 378.468 709.739 374.394 703.502 374.35C696.815 374.358 690.8 380.217 686.32 386.203L688.435 380.792L674.013 376.977C674.013 376.977 656.573 418.346 657.039 431.668C661.07 435.004 673.011 439.713 673.011 439.713Z" stroke="#1D1E20" stroke-width="12" stroke-linejoin="round" mask="url(#path-3-outside-1_17_3)"/>
<path d="M777.509 428.167C805.572 427.68 822.049 396.453 822.049 396.453L816.697 392.204C816.697 392.204 801.594 411.57 783.403 411.987C778.401 412.106 776.949 407.409 777.628 401.403C781.481 401.873 785.618 402.157 788.716 401.346C811.088 394.976 811.825 364.341 795.798 363.75C779.621 363.176 768.196 376.192 760.982 391.459C753.121 407.713 757.334 428.509 777.509 428.167ZM793.502 374.197C799.633 377.293 792.323 389.076 780.981 388.251C783.939 380.919 788.35 374.333 791.8 373.937C792.4 373.868 793.018 373.949 793.502 374.197Z" stroke="#1D1E20" stroke-width="12" stroke-linejoin="round" mask="url(#path-3-outside-1_17_3)"/>
<path d="M839.056 424.139C879.255 418.154 887.049 343.087 903.902 319.112L893.954 311.895C883.471 322.522 858.642 318.078 843.221 328.057C831.643 335.77 829.423 344.233 829.423 344.233L845.57 359.098C846.668 344.836 868.82 337.884 883.3 330.294C876.811 347.91 859.175 390.214 835.684 396.103C820.324 399.995 816.258 387.087 816.258 387.087C811.406 387.188 804.674 429.151 839.056 424.139Z" stroke="#1D1E20" stroke-width="12" stroke-linejoin="round" mask="url(#path-3-outside-1_17_3)"/>
<path d="M906.102 411.271C918.155 410.343 923.668 404.086 926.267 398.924C928.486 403.684 932.642 409.439 940.143 408.577C956.045 406.751 968.134 379.676 968.134 379.676L962.932 375.41C962.932 375.41 953.146 389.453 946.54 388.844C933.963 387.856 952.879 348.749 952.879 348.749C952.879 348.749 947.724 343.566 938.312 346.319C937.036 348.441 935.979 351.146 934.806 354.169C933.043 350.724 930.263 347.699 926.461 347.68C886.975 347.959 877.813 413.76 906.102 411.271ZM923.998 357.994C927.65 358.031 929.916 361.874 931.045 365.088C926.445 379.296 921.232 394.79 913.946 394.867C904.374 394.902 912.425 357.803 923.998 357.994Z" stroke="#1D1E20" stroke-width="12" stroke-linejoin="round" mask="url(#path-3-outside-1_17_3)"/>
<path d="M973.917 405.154C974.181 386.277 992.3 348.174 1000.16 350.463C1005.5 351.977 989.56 391.806 989.56 391.806L1008.14 401.376C1008.86 390.501 1020.05 347.571 1028.04 349.693C1035.1 351.618 1013.55 399.539 1041.39 397.101C1056.89 395.777 1066.51 368.377 1066.51 368.377L1061.31 364.111C1061.31 364.111 1052.11 377.935 1047.35 377.569C1039.66 376.781 1057.25 339.346 1034.36 337.263C1026.22 336.526 1019.44 342.321 1014.89 347.707C1013.55 343.91 1010.65 339.835 1004.41 339.792C997.722 339.8 991.707 345.658 987.227 351.644L989.341 346.234L974.92 342.418C974.92 342.418 957.48 383.787 957.946 397.109C961.977 400.446 973.917 405.154 973.917 405.154Z" stroke="#1D1E20" stroke-width="12" stroke-linejoin="round" mask="url(#path-3-outside-1_17_3)"/>
<path d="M1094.97 336.977C1094.74 334.974 1094.89 333.06 1095.43 331.236C1096.01 329.352 1096.86 327.679 1097.98 326.216C1099.14 324.747 1100.55 323.544 1102.21 322.606C1103.91 321.609 1105.76 320.996 1107.77 320.766C1109.77 320.536 1111.69 320.716 1113.52 321.307C1115.39 321.839 1117.07 322.689 1118.54 323.855C1120 325.022 1121.21 326.459 1122.16 328.166C1123.15 329.815 1123.76 331.641 1123.99 333.644C1124.22 335.647 1124.04 337.59 1123.45 339.473C1122.92 341.297 1122.06 342.944 1120.9 344.413C1119.72 345.83 1118.29 347.036 1116.59 348.033C1114.93 348.971 1113.1 349.555 1111.1 349.785C1109.1 350.015 1107.16 349.864 1105.28 349.331C1103.45 348.741 1101.8 347.888 1100.34 346.774C1098.92 345.602 1097.72 344.191 1096.73 342.543C1095.78 340.835 1095.2 338.98 1094.97 336.977Z" stroke="#1D1E20" stroke-width="12" stroke-linejoin="round" mask="url(#path-3-outside-1_17_3)"/>
<path d="M462.687 557.572C481.031 554.678 484.294 520.346 491.899 509.324L487.325 506.066C482.577 510.963 471.214 509.032 464.207 513.653C458.948 517.223 457.967 521.099 457.967 521.099L465.404 527.827C465.849 521.306 475.943 518.041 482.529 514.515C479.635 522.591 471.745 541.991 461.034 544.775C454.031 546.615 452.122 540.733 452.122 540.733C449.905 540.799 446.996 560 462.687 557.572Z" fill="#1D1E20"/>
<path d="M493.271 551.426C498.775 550.954 501.269 548.073 502.436 545.704C503.469 547.87 505.391 550.483 508.815 550.059C516.074 549.162 521.49 536.742 521.49 536.742L519.096 534.813C519.096 534.813 514.68 541.269 511.659 541.017C505.909 540.616 514.396 522.671 514.396 522.671C514.396 522.671 512.02 520.323 507.731 521.618C507.156 522.593 506.684 523.834 506.16 525.22C505.34 523.652 504.058 522.281 502.321 522.288C484.279 522.572 480.355 552.676 493.271 551.426ZM501.236 527.01C502.905 527.013 503.956 528.76 504.484 530.224C502.439 536.734 500.119 543.835 496.79 543.899C492.416 543.953 495.947 526.969 501.236 527.01Z" fill="#1D1E20"/>
<path d="M517.631 545.006C518.639 546.967 524.363 548.276 524.363 548.276C525.098 535.114 532.893 523.373 536.025 523.959C539.362 524.52 526.764 544.085 540.233 546.174C540.797 546.243 541.285 546.252 541.833 546.184C547.791 545.447 551.604 535.242 552.565 532.898L550.103 530.978C550.103 530.978 546.937 536.862 543.719 537.26C540.5 537.658 548.321 519.379 538.043 518.356C535.16 518.087 532.418 520.651 530.377 523.267L530.996 521.522L524.408 519.417C524.408 519.417 516.904 538.004 517.631 545.006Z" fill="#1D1E20"/>
<path d="M555.322 544.446C559.567 543.921 563.365 538.654 565.493 535.054C565.865 538.067 567.297 542.896 572.441 542.329C578.681 541.627 583.182 529.112 583.182 529.112L580.788 527.183C580.788 527.183 577.98 534.274 574.524 533.311C571.778 532.469 577.233 516.429 577.233 516.429L570.8 514.444C570.8 514.444 562.214 535.529 558.355 535.241C555.402 534.981 560.902 518.171 560.902 518.171L554.664 516.648C554.664 516.648 541.831 546.115 555.322 544.446Z" fill="#1D1E20"/>
<path d="M586.961 539.838C592.464 539.366 594.958 536.485 596.125 534.116C597.158 536.282 599.08 538.895 602.504 538.472C609.763 537.574 615.18 525.154 615.18 525.154L612.786 523.225C612.786 523.225 608.37 529.681 605.349 529.429C599.598 529.028 608.086 511.083 608.086 511.083C608.086 511.083 605.71 508.735 601.42 510.031C600.845 511.006 600.373 512.246 599.849 513.632C599.03 512.064 597.748 510.693 596.01 510.7C577.969 510.984 574.044 541.088 586.961 539.838ZM594.926 515.423C596.595 515.425 597.645 517.172 598.174 518.636C596.129 525.146 593.809 532.247 590.479 532.311C586.106 532.365 589.637 515.381 594.926 515.423Z" fill="#1D1E20"/>
<path d="M615.234 525.147L622.435 509.726C623.614 510.831 625.042 512.254 625.622 513.573C626.757 516.005 618.149 534.659 630.49 534.941C638.509 535.131 641.735 521.87 641.735 521.87L639.341 519.941C639.341 519.941 635.249 527.886 633.341 527.079C631.357 526.212 632.793 520.959 632.893 516.15C632.995 510.227 630.396 508.324 626.239 506.196C622.98 504.583 625.168 500.906 625.168 500.906L620.59 499.873L612.84 523.219L615.234 525.147Z" fill="#1D1E20"/>
<path d="M633.282 543.634C633.282 543.634 636.445 552.907 646.393 550.703C660.732 547.469 661.462 512.894 666.745 503.898L661.064 502.932C656.538 507.941 652.239 523.769 647.993 524.294C643.953 524.793 648.903 509.164 651.32 506.223C651.32 506.223 648.558 504.131 645.108 504.905C636.823 518.862 636.376 533.239 644.13 533.532C646.851 533.612 649.104 532.152 650.844 530.477C649.991 534.267 648.291 539.066 645.004 539.472C642.675 539.76 641.489 536.918 641.489 536.918L633.282 543.634Z" fill="#1D1E20"/>
<path d="M693.411 527.576C703.229 526.57 708.691 512.267 709.706 508.109C710.713 503.883 711.058 495.427 700.842 493.215C699.558 492.956 697.915 493.159 696.228 493.577C698.037 491.337 699.939 489.85 701.796 489.69C707.249 489.363 709.646 495.254 709.646 495.254L716.691 487.013C716.691 487.013 711.78 479.903 701.774 480.515C693.626 480.967 680.937 491.366 679.498 512.332C678.747 524.244 686.418 528.371 693.411 527.576ZM692.343 500.384C693.858 499.71 695.545 499.293 697.274 499.218C705.738 499.075 702.257 517.582 693.451 517.211C688.068 516.973 689.046 508.022 692.343 500.384Z" fill="#1D1E20"/>
<path d="M725.791 512.933C729.83 513.546 738.117 511.409 740.212 512.61C740.212 512.61 742.484 509.617 739.081 506.84C738.073 505.991 734.709 506.338 731.216 506.77C727.245 507.261 723.007 507.855 721.93 507.014C721.543 508.383 721.675 512.26 725.791 512.933Z" fill="#1D1E20"/>
<path d="M763.56 518.552C775.883 512.508 773.772 497.126 769.724 490.813C769.467 490.428 769.288 490.102 769.109 489.777C771.277 487.632 774.431 483.904 775.053 479.378C775.727 474.149 772.702 471.047 767.634 471.674C766.744 471.784 765.725 471.98 764.664 472.389C757.865 474.76 757.394 482.188 758.45 485.672C758.8 486.811 759.457 488.19 760.199 489.697C756.79 491.926 749.38 497.223 746.977 502.526C742.428 512.405 748.348 521.476 757.935 520.29C759.715 520.07 761.599 519.559 763.56 518.552ZM756.593 505.508C756.691 502.924 760.48 498.145 762.854 495.417C764.321 499.408 765 503.773 762.196 507.527C761.656 508.219 760.808 508.672 759.85 508.79C758.206 508.994 756.419 508.033 756.593 505.508ZM767.653 476.886C770.683 476.65 768.999 482.143 766.684 485.349C764.67 480.871 764.273 477.096 767.653 476.886Z" fill="#1D1E20"/>
<path d="M782.995 516.078C786.153 515.757 788.88 511.944 790.673 508.454C790.363 509.883 790.242 511.15 790.609 511.869C792.687 512.933 797.367 514.231 797.367 514.231C797.367 514.231 801.216 489.143 807.516 488.364C807.927 488.313 808.278 488.339 808.714 488.494C812.932 489.988 801.291 511.104 813.262 512.335C820.596 513.166 825.663 499.051 825.663 499.051L823.21 497.199C823.21 497.199 819.538 503.494 816.835 502.994C813.429 502.442 821.504 486.217 810.192 484.139C809.336 483.967 808.506 484 807.753 484.094C806.452 484.254 805.322 484.672 804.354 485.279L811.006 470.481C811.006 470.481 809.023 467.945 805.463 467.83C799.745 475.559 790.33 509.053 785.609 506.856C784.137 506.203 788.065 493.551 790.892 484.928C793.271 485.05 795.154 485.096 796.018 484.78L795.691 479.884C794.895 480.191 793.851 480.181 792.644 479.983C793.254 478.169 793.666 477.006 793.666 477.006C793.666 477.006 791.402 474.436 788.373 474.115C787.909 474.868 787.189 476.347 786.305 478.195C782.678 476.975 778.708 475.797 775.353 476.212C773.914 476.39 772.647 476.825 771.508 477.73C771.539 480.23 772.783 484.108 773.424 485.35C773.989 484.863 774.931 484.607 776.163 484.455C778.081 484.218 780.734 484.307 783.464 484.456C777.918 497.517 771.465 517.296 782.995 516.078Z" fill="#1D1E20"/>
<path d="M829.003 512.404L831.361 515.172C831.361 515.172 838.221 504.868 832.624 504.587C829.963 504.429 829.325 508.262 830.494 510.412L829.003 512.404Z" fill="#1D1E20"/>
<path d="M855.432 507.675C856.777 506.744 859.285 506.225 862.092 505.878C866.954 505.277 872.706 505.122 875.181 503.773L878.045 493.198C875.842 495.626 867.195 498.225 861.306 498.397C866.259 494.03 876.43 484.638 880.649 477.719C885.161 470.348 881.059 458.549 872.594 459.249C860.474 460.191 857.382 475.105 857.382 475.105L866.04 477.649C866.04 477.649 864.627 465.657 872.15 465.213C880.983 464.677 875.723 475.548 867.85 481.597C853.355 492.567 849.106 502.061 849.106 502.061C849.106 502.061 853.421 507.159 855.432 507.675Z" fill="#1D1E20"/>
<path d="M894.906 502.584C902.479 503.108 912.042 494.416 915.146 482.978C918.277 471.188 917.827 455.184 903.953 455.439C894.804 455.667 887.897 469.523 885.569 475.999C883.284 482.26 880.178 501.556 894.906 502.584ZM906.463 460.552C915.054 461.992 908.662 493.513 898.3 491.805C888.281 490.055 899.506 459.396 906.463 460.552Z" fill="#1D1E20"/>
<path d="M924.512 499.131C925.857 498.2 928.365 497.681 931.173 497.334C936.035 496.733 941.786 496.578 944.261 495.229L947.125 484.654C944.922 487.082 936.275 489.681 930.386 489.853C935.339 485.486 945.51 476.094 949.729 469.175C954.241 461.804 950.139 450.005 941.674 450.704C929.554 451.647 926.463 466.561 926.463 466.561L935.12 469.105C935.12 469.105 933.707 457.113 941.23 456.669C950.063 456.133 944.803 467.004 936.93 473.053C922.435 484.023 918.186 493.517 918.186 493.517C918.186 493.517 922.501 498.615 924.512 499.131Z" fill="#1D1E20"/>
<path d="M970.62 493.15C984.139 488.906 985.209 475.633 978.757 468.436C979.931 467.248 981.259 465.623 982.717 463.357C987.382 456.106 983.271 445.907 972.477 446.895C961.281 448.001 961.866 459.47 961.866 459.47L969.236 458.35C969.236 458.35 971.023 452.567 973.968 452.203C974.447 452.143 974.944 452.221 975.465 452.504C981.649 455.841 977.36 463.325 972.019 463.985C971.402 464.061 970.846 464.061 970.204 463.931L968.725 469.398C972.105 469.745 978.163 477.687 968.896 482.587C968.442 482.852 968.04 482.971 967.698 483.013C963.794 483.496 961.973 475.517 962.78 473.61L952.149 481.53C951.427 484.122 957.917 495 968.052 493.746C968.873 493.645 969.747 493.397 970.62 493.15Z" fill="#1D1E20"/>
<path d="M694.027 200.58L691.704 268.272C691.704 268.272 184.093 317.889 163.822 320.38C143.552 322.872 128.666 340.311 133.598 363.12C138.53 385.929 217.598 590.493 226.306 603.614C235.014 616.734 245.499 615.446 261.575 613.47C277.652 611.494 1268.8 495.351 1268.8 495.351L1262.87 447.121L1423.02 514.712L1284.87 626.061L1278.25 572.239L238.162 700.074C219.289 702.393 193.977 692.732 181.786 674.363C169.595 655.995 59.787 362.968 58.4241 346.106C57.0613 329.245 69.1978 289.438 90.8039 274.72C112.41 260.002 130.068 253.575 139.069 251.759C148.07 249.943 694.027 200.58 694.027 200.58Z" fill="#7ECECB" stroke="#1D1E20" stroke-width="6"/>
<mask id="path-6-outside-2_17_3" maskUnits="userSpaceOnUse" x="73.7809" y="220.75" width="1164" height="451" fill="black">
<rect fill="white" x="73.7809" y="220.75" width="1164" height="451"/>
<path d="M142.58 288.984C142.373 286.854 142.572 284.826 143.177 282.9C143.832 280.913 144.765 279.153 145.974 277.621C147.239 276.084 148.758 274.833 150.531 273.868C152.355 272.842 154.332 272.225 156.462 272.018C158.592 271.811 160.623 272.038 162.554 272.699C164.536 273.299 166.296 274.231 167.833 275.496C169.371 276.761 170.625 278.308 171.595 280.138C172.615 281.906 173.229 283.855 173.436 285.985C173.643 288.115 173.419 290.173 172.763 292.161C172.158 294.087 171.223 295.819 169.958 297.356C168.688 298.837 167.14 300.091 165.316 301.117C163.543 302.082 161.591 302.667 159.461 302.874C157.332 303.082 155.276 302.885 153.294 302.286C151.362 301.625 149.63 300.69 148.098 299.481C146.617 298.21 145.366 296.691 144.345 294.923C143.375 293.094 142.787 291.114 142.58 288.984Z"/>
<path d="M235.568 279.945C235.361 277.815 235.56 275.787 236.165 273.861C236.821 271.874 237.753 270.114 238.962 268.582C240.227 267.045 241.746 265.794 243.52 264.829C245.344 263.803 247.321 263.187 249.451 262.98C251.581 262.773 253.611 263 255.543 263.66C257.525 264.26 259.284 265.192 260.822 266.457C262.359 267.722 263.613 269.27 264.583 271.099C265.604 272.867 266.217 274.816 266.424 276.946C266.631 279.076 266.407 281.135 265.752 283.122C265.147 285.048 264.212 286.78 262.947 288.317C261.676 289.799 260.129 291.052 258.305 292.078C256.532 293.043 254.58 293.629 252.45 293.836C250.32 294.043 248.264 293.846 246.282 293.247C244.351 292.586 242.619 291.651 241.087 290.442C239.605 289.172 238.354 287.652 237.334 285.884C236.364 284.055 235.775 282.075 235.568 279.945Z"/>
<path d="M328.557 270.906C328.35 268.776 328.549 266.749 329.154 264.823C329.809 262.835 330.742 261.075 331.951 259.543C333.216 258.006 334.735 256.755 336.508 255.79C338.332 254.764 340.309 254.148 342.439 253.941C344.569 253.734 346.6 253.961 348.531 254.622C350.513 255.221 352.273 256.153 353.81 257.418C355.348 258.684 356.602 260.231 357.572 262.06C358.592 263.828 359.206 265.777 359.413 267.907C359.62 270.037 359.396 272.096 358.74 274.083C358.135 276.009 357.2 277.741 355.935 279.278C354.665 280.76 353.117 282.013 351.293 283.039C349.52 284.004 347.568 284.59 345.438 284.797C343.309 285.004 341.253 284.808 339.271 284.208C337.339 283.547 335.607 282.612 334.075 281.403C332.594 280.133 331.343 278.613 330.322 276.845C329.352 275.016 328.764 273.036 328.557 270.906Z"/>
<path d="M421.545 261.868C421.338 259.738 421.537 257.71 422.142 255.784C422.798 253.796 423.73 252.036 424.939 250.504C426.204 248.967 427.723 247.716 429.497 246.751C431.321 245.725 433.298 245.109 435.428 244.902C437.558 244.695 439.588 244.922 441.52 245.583C443.502 246.182 445.261 247.115 446.799 248.38C448.336 249.645 449.59 251.192 450.56 253.021C451.581 254.789 452.194 256.738 452.401 258.868C452.608 260.998 452.384 263.057 451.729 265.044C451.124 266.97 450.189 268.702 448.924 270.239C447.653 271.721 446.106 272.975 444.282 274.001C442.509 274.965 440.557 275.551 438.427 275.758C436.297 275.965 434.241 275.769 432.259 275.169C430.328 274.508 428.596 273.573 427.064 272.364C425.582 271.094 424.331 269.575 423.311 267.807C422.341 265.977 421.752 263.997 421.545 261.868Z"/>
<path d="M514.534 252.829C514.327 250.699 514.526 248.671 515.131 246.745C515.786 244.757 516.718 242.998 517.927 241.466C519.193 239.928 520.712 238.677 522.485 237.713C524.309 236.687 526.286 236.07 528.416 235.863C530.546 235.656 532.577 235.883 534.508 236.544C536.49 237.143 538.25 238.076 539.787 239.341C541.325 240.606 542.579 242.153 543.548 243.983C544.569 245.75 545.183 247.699 545.39 249.829C545.597 251.959 545.373 254.018 544.717 256.005C544.112 257.931 543.177 259.663 541.912 261.201C540.642 262.682 539.094 263.936 537.27 264.962C535.497 265.926 533.545 266.512 531.415 266.719C529.286 266.926 527.23 266.73 525.247 266.13C523.316 265.469 521.584 264.534 520.052 263.325C518.571 262.055 517.32 260.536 516.299 258.768C515.329 256.938 514.741 254.959 514.534 252.829Z"/>
<path d="M607.522 243.79C607.315 241.66 607.514 239.632 608.119 237.706C608.775 235.719 609.707 233.959 610.916 232.427C612.181 230.889 613.7 229.638 615.474 228.674C617.298 227.648 619.275 227.031 621.405 226.824C623.535 226.617 625.565 226.844 627.497 227.505C629.479 228.105 631.238 229.037 632.776 230.302C634.313 231.567 635.567 233.114 636.537 234.944C637.558 236.712 638.171 238.661 638.378 240.791C638.585 242.92 638.361 244.979 637.706 246.967C637.101 248.893 636.166 250.624 634.901 252.162C633.63 253.643 632.083 254.897 630.259 255.923C628.486 256.887 626.534 257.473 624.404 257.68C622.274 257.887 620.218 257.691 618.236 257.092C616.305 256.431 614.573 255.496 613.041 254.287C611.559 253.016 610.308 251.497 609.288 249.729C608.318 247.899 607.729 245.92 607.522 243.79Z"/>
<path d="M89.9268 342.081C91.9338 341.338 93.9456 341.014 95.9621 341.109C98.051 341.237 99.9901 341.69 101.779 342.469C103.588 343.301 105.185 344.452 106.569 345.921C108.026 347.424 109.125 349.179 109.868 351.186C110.61 353.193 110.908 355.214 110.761 357.251C110.685 359.32 110.232 361.259 109.4 363.068C108.568 364.877 107.391 366.483 105.869 367.887C104.419 369.324 102.691 370.414 100.684 371.156C98.6765 371.899 96.6286 372.206 94.5397 372.078C92.5232 371.984 90.6105 371.52 88.8016 370.688C87.0455 369.837 85.4391 368.66 83.9825 367.157C82.5983 365.688 81.5349 363.95 80.7924 361.943C80.0499 359.936 79.7162 357.897 79.7912 355.828C79.9387 353.792 80.4019 351.879 81.181 350.09C82.0325 348.334 83.1831 346.737 84.633 345.3C86.1552 343.896 87.9198 342.823 89.9268 342.081Z"/>
<path d="M122.344 429.703C124.351 428.961 126.362 428.637 128.379 428.732C130.468 428.859 132.407 429.313 134.196 430.092C136.005 430.924 137.602 432.075 138.986 433.544C140.443 435.047 141.542 436.801 142.285 438.809C143.027 440.816 143.325 442.837 143.177 444.873C143.102 446.942 142.649 448.882 141.817 450.69C140.985 452.499 139.808 454.106 138.286 455.51C136.836 456.947 135.107 458.036 133.1 458.779C131.093 459.521 129.045 459.829 126.956 459.701C124.94 459.606 123.027 459.143 121.218 458.311C119.462 457.46 117.856 456.283 116.399 454.78C115.015 453.31 113.952 451.572 113.209 449.565C112.467 447.558 112.133 445.52 112.208 443.451C112.355 441.415 112.819 439.502 113.598 437.713C114.449 435.957 115.6 434.36 117.05 432.923C118.572 431.519 120.337 430.446 122.344 429.703Z"/>
<path d="M154.76 517.326C156.767 516.583 158.779 516.26 160.796 516.354C162.884 516.482 164.824 516.936 166.613 517.715C168.422 518.547 170.018 519.697 171.403 521.167C172.859 522.669 173.959 524.424 174.701 526.431C175.444 528.438 175.741 530.46 175.594 532.496C175.519 534.565 175.065 536.504 174.233 538.313C173.402 540.122 172.225 541.728 170.702 543.132C169.252 544.569 167.524 545.659 165.517 546.401C163.51 547.144 161.462 547.451 159.373 547.323C157.357 547.229 155.444 546.766 153.635 545.934C151.879 545.082 150.273 543.905 148.816 542.402C147.432 540.933 146.368 539.195 145.626 537.188C144.883 535.181 144.55 533.143 144.625 531.073C144.772 529.037 145.235 527.125 146.014 525.335C146.866 523.579 148.017 521.983 149.466 520.545C150.989 519.142 152.753 518.068 154.76 517.326Z"/>
<path d="M187.177 604.949C189.184 604.206 191.196 603.882 193.212 603.977C195.301 604.105 197.24 604.558 199.03 605.337C200.839 606.169 202.435 607.32 203.819 608.789C205.276 610.292 206.376 612.047 207.118 614.054C207.861 616.061 208.158 618.082 208.011 620.118C207.936 622.188 207.482 624.127 206.65 625.936C205.818 627.745 204.641 629.351 203.119 630.755C201.669 632.192 199.941 633.282 197.934 634.024C195.927 634.767 193.879 635.074 191.79 634.946C189.773 634.851 187.861 634.388 186.052 633.556C184.296 632.705 182.689 631.528 181.233 630.025C179.848 628.556 178.785 626.817 178.043 624.81C177.3 622.803 176.966 620.765 177.041 618.696C177.189 616.66 177.652 614.747 178.431 612.958C179.283 611.202 180.433 609.605 181.883 608.168C183.405 606.764 185.17 605.691 187.177 604.949Z"/>
<path d="M272.695 651.968C272.442 649.843 272.596 647.812 273.159 645.873C273.77 643.872 274.664 642.092 275.839 640.534C277.07 638.969 278.562 637.685 280.313 636.682C282.114 635.616 284.077 634.956 286.202 634.702C288.327 634.449 290.362 634.631 292.308 635.249C294.302 635.805 296.082 636.699 297.647 637.93C299.212 639.161 300.499 640.68 301.509 642.488C302.568 644.233 303.225 646.168 303.478 648.293C303.732 650.418 303.553 652.481 302.941 654.482C302.379 656.421 301.482 658.173 300.251 659.738C299.013 661.247 297.494 662.534 295.693 663.6C293.941 664.603 292.003 665.231 289.878 665.485C287.753 665.739 285.693 665.588 283.698 665.032C281.753 664.413 280.001 663.517 278.443 662.342C276.934 661.104 275.65 659.612 274.591 657.867C273.581 656.06 272.949 654.093 272.695 651.968Z"/>
<path d="M365.463 640.892C365.21 638.767 365.364 636.735 365.927 634.797C366.538 632.795 367.432 631.015 368.607 629.457C369.838 627.892 371.329 626.608 373.081 625.605C374.882 624.539 376.845 623.88 378.97 623.626C381.095 623.372 383.13 623.555 385.076 624.173C387.07 624.729 388.85 625.622 390.415 626.853C391.98 628.085 393.267 629.604 394.277 631.412C395.336 633.157 395.992 635.092 396.246 637.217C396.5 639.342 396.321 641.405 395.709 643.406C395.147 645.345 394.25 647.097 393.019 648.661C391.781 650.17 390.262 651.458 388.461 652.524C386.709 653.527 384.77 654.155 382.646 654.409C380.521 654.663 378.461 654.512 376.466 653.956C374.521 653.337 372.769 652.44 371.211 651.265C369.702 650.028 368.418 648.536 367.359 646.791C366.349 644.983 365.717 643.017 365.463 640.892Z"/>
<path d="M458.231 629.816C457.977 627.691 458.132 625.659 458.694 623.72C459.306 621.719 460.2 619.939 461.375 618.381C462.606 616.816 464.097 615.532 465.849 614.529C467.65 613.463 469.613 612.803 471.738 612.55C473.863 612.296 475.898 612.478 477.843 613.097C479.838 613.653 481.618 614.546 483.183 615.777C484.748 617.008 486.035 618.528 487.045 620.335C488.104 622.081 488.76 624.016 489.014 626.14C489.268 628.265 489.089 630.328 488.477 632.33C487.914 634.269 487.018 636.02 485.787 637.585C484.549 639.094 483.029 640.381 481.228 641.447C479.477 642.45 477.538 643.079 475.413 643.333C473.288 643.586 471.229 643.435 469.234 642.879C467.289 642.261 465.537 641.364 463.979 640.189C462.47 638.951 461.186 637.46 460.127 635.715C459.117 633.907 458.485 631.941 458.231 629.816Z"/>
<path d="M550.999 618.74C550.745 616.615 550.9 614.583 551.462 612.644C552.074 610.643 552.967 608.863 554.143 607.305C555.374 605.74 556.865 604.456 558.617 603.453C560.418 602.387 562.381 601.727 564.506 601.474C566.631 601.22 568.666 601.402 570.611 602.021C572.606 602.576 574.386 603.47 575.951 604.701C577.515 605.932 578.803 607.451 579.813 609.259C580.872 611.004 581.528 612.939 581.782 615.064C582.036 617.189 581.857 619.252 581.245 621.254C580.682 623.192 579.785 624.944 578.554 626.509C577.317 628.018 575.797 629.305 573.996 630.371C572.244 631.374 570.306 632.003 568.181 632.256C566.056 632.51 563.997 632.359 562.002 631.803C560.056 631.185 558.305 630.288 556.746 629.113C555.237 627.875 553.953 626.384 552.894 624.638C551.885 622.831 551.253 620.864 550.999 618.74Z"/>
<path d="M643.767 607.663C643.513 605.538 643.668 603.507 644.23 601.568C644.842 599.566 645.735 597.787 646.91 596.228C648.141 594.664 649.633 593.38 651.385 592.376C653.186 591.311 655.149 590.651 657.274 590.397C659.399 590.144 661.434 590.326 663.379 590.944C665.374 591.5 667.154 592.394 668.718 593.625C670.283 594.856 671.571 596.375 672.581 598.183C673.64 599.928 674.296 601.863 674.55 603.988C674.803 606.113 674.624 608.176 674.013 610.177C673.45 612.116 672.553 613.868 671.322 615.433C670.085 616.942 668.565 618.229 666.764 619.295C665.012 620.298 663.074 620.926 660.949 621.18C658.824 621.434 656.764 621.283 654.77 620.727C652.824 620.108 651.072 619.212 649.514 618.036C648.005 616.799 646.721 615.307 645.662 613.562C644.652 611.754 644.021 609.788 643.767 607.663Z"/>
<path d="M736.535 596.587C736.281 594.462 736.435 592.43 736.998 590.492C737.61 588.49 738.503 586.71 739.678 585.152C740.909 583.587 742.401 582.303 744.153 581.3C745.954 580.234 747.917 579.575 750.042 579.321C752.166 579.067 754.202 579.25 756.147 579.868C758.142 580.424 759.921 581.317 761.486 582.548C763.051 583.779 764.339 585.299 765.348 587.107C766.407 588.852 767.064 590.787 767.318 592.912C767.571 595.036 767.392 597.1 766.78 599.101C766.218 601.04 765.321 602.792 764.09 604.356C762.852 605.865 761.333 607.153 759.532 608.218C757.78 609.222 755.842 609.85 753.717 610.104C751.592 610.357 749.532 610.206 747.538 609.651C745.592 609.032 743.84 608.135 742.282 606.96C740.773 605.722 739.489 604.231 738.43 602.486C737.42 600.678 736.788 598.712 736.535 596.587Z"/>
<path d="M829.303 585.511C829.049 583.386 829.203 581.354 829.766 579.415C830.378 577.414 831.271 575.634 832.446 574.076C833.677 572.511 835.169 571.227 836.92 570.224C838.722 569.158 840.685 568.498 842.809 568.245C844.934 567.991 846.969 568.173 848.915 568.792C850.91 569.348 852.689 570.241 854.254 571.472C855.819 572.703 857.106 574.223 858.116 576.03C859.175 577.775 859.832 579.71 860.085 581.835C860.339 583.96 860.16 586.023 859.548 588.025C858.986 589.963 858.089 591.715 856.858 593.28C855.62 594.789 854.101 596.076 852.3 597.142C850.548 598.145 848.61 598.774 846.485 599.027C844.36 599.281 842.3 599.13 840.305 598.574C838.36 597.956 836.608 597.059 835.05 595.884C833.541 594.646 832.257 593.155 831.198 591.41C830.188 589.602 829.556 587.636 829.303 585.511Z"/>
<path d="M922.07 574.434C921.817 572.31 921.971 570.278 922.534 568.339C923.145 566.338 924.039 564.558 925.214 563C926.445 561.435 927.936 560.151 929.688 559.148C931.489 558.082 933.452 557.422 935.577 557.168C937.702 556.915 939.737 557.097 941.683 557.716C943.677 558.271 945.457 559.165 947.022 560.396C948.587 561.627 949.874 563.146 950.884 564.954C951.943 566.699 952.6 568.634 952.853 570.759C953.107 572.884 952.928 574.947 952.316 576.948C951.754 578.887 950.857 580.639 949.626 582.204C948.388 583.713 946.869 585 945.068 586.066C943.316 587.069 941.378 587.698 939.253 587.951C937.128 588.205 935.068 588.054 933.073 587.498C931.128 586.88 929.376 585.983 927.818 584.808C926.309 583.57 925.025 582.079 923.966 580.333C922.956 578.526 922.324 576.559 922.07 574.434Z"/>
<path d="M1014.84 563.358C1014.58 561.233 1014.74 559.201 1015.3 557.263C1015.91 555.261 1016.81 553.482 1017.98 551.923C1019.21 550.359 1020.7 549.075 1022.46 548.071C1024.26 547.006 1026.22 546.346 1028.35 546.092C1030.47 545.838 1032.51 546.021 1034.45 546.639C1036.45 547.195 1038.22 548.089 1039.79 549.32C1041.35 550.551 1042.64 552.07 1043.65 553.878C1044.71 555.623 1045.37 557.558 1045.62 559.683C1045.87 561.808 1045.7 563.871 1045.08 565.872C1044.52 567.811 1043.62 569.563 1042.39 571.128C1041.16 572.637 1039.64 573.924 1037.84 574.99C1036.08 575.993 1034.15 576.621 1032.02 576.875C1029.9 577.129 1027.84 576.978 1025.84 576.422C1023.9 575.803 1022.14 574.907 1020.59 573.731C1019.08 572.494 1017.79 571.002 1016.73 569.257C1015.72 567.449 1015.09 565.483 1014.84 563.358Z"/>
<path d="M1107.61 552.282C1107.35 550.157 1107.51 548.125 1108.07 546.186C1108.68 544.185 1109.57 542.405 1110.75 540.847C1111.98 539.282 1113.47 537.998 1115.22 536.995C1117.03 535.929 1118.99 535.27 1121.11 535.016C1123.24 534.762 1125.27 534.945 1127.22 535.563C1129.21 536.119 1130.99 537.012 1132.56 538.243C1134.12 539.474 1135.41 540.994 1136.42 542.801C1137.48 544.547 1138.14 546.482 1138.39 548.607C1138.64 550.731 1138.46 552.795 1137.85 554.796C1137.29 556.735 1136.39 558.486 1135.16 560.051C1133.92 561.56 1132.4 562.848 1130.6 563.913C1128.85 564.917 1126.91 565.545 1124.79 565.799C1122.66 566.052 1120.6 565.901 1118.61 565.345C1116.66 564.727 1114.91 563.83 1113.35 562.655C1111.84 561.417 1110.56 559.926 1109.5 558.181C1108.49 556.373 1107.86 554.407 1107.61 552.282Z"/>
<path d="M1200.37 541.206C1200.12 539.081 1200.27 537.049 1200.84 535.11C1201.45 533.109 1202.34 531.329 1203.52 529.771C1204.75 528.206 1206.24 526.922 1207.99 525.919C1209.79 524.853 1211.76 524.193 1213.88 523.94C1216.01 523.686 1218.04 523.868 1219.99 524.487C1221.98 525.043 1223.76 525.936 1225.33 527.167C1226.89 528.398 1228.18 529.917 1229.19 531.725C1230.25 533.47 1230.9 535.405 1231.16 537.53C1231.41 539.655 1231.23 541.718 1230.62 543.72C1230.06 545.658 1229.16 547.41 1227.93 548.975C1226.69 550.484 1225.17 551.771 1223.37 552.837C1221.62 553.84 1219.68 554.469 1217.56 554.722C1215.43 554.976 1213.37 554.825 1211.38 554.269C1209.43 553.651 1207.68 552.754 1206.12 551.579C1204.61 550.341 1203.33 548.85 1202.27 547.105C1201.26 545.297 1200.63 543.331 1200.37 541.206Z"/>
</mask>
<path d="M142.58 288.984C142.373 286.854 142.572 284.826 143.177 282.9C143.832 280.913 144.765 279.153 145.974 277.621C147.239 276.084 148.758 274.833 150.531 273.868C152.355 272.842 154.332 272.225 156.462 272.018C158.592 271.811 160.623 272.038 162.554 272.699C164.536 273.299 166.296 274.231 167.833 275.496C169.371 276.761 170.625 278.308 171.595 280.138C172.615 281.906 173.229 283.855 173.436 285.985C173.643 288.115 173.419 290.173 172.763 292.161C172.158 294.087 171.223 295.819 169.958 297.356C168.688 298.837 167.14 300.091 165.316 301.117C163.543 302.082 161.591 302.667 159.461 302.874C157.332 303.082 155.276 302.885 153.294 302.286C151.362 301.625 149.63 300.69 148.098 299.481C146.617 298.21 145.366 296.691 144.345 294.923C143.375 293.094 142.787 291.114 142.58 288.984Z" fill="#FFF8EE"/>
<path d="M235.568 279.945C235.361 277.815 235.56 275.787 236.165 273.861C236.821 271.874 237.753 270.114 238.962 268.582C240.227 267.045 241.746 265.794 243.52 264.829C245.344 263.803 247.321 263.187 249.451 262.98C251.581 262.773 253.611 263 255.543 263.66C257.525 264.26 259.284 265.192 260.822 266.457C262.359 267.722 263.613 269.27 264.583 271.099C265.604 272.867 266.217 274.816 266.424 276.946C266.631 279.076 266.407 281.135 265.752 283.122C265.147 285.048 264.212 286.78 262.947 288.317C261.676 289.799 260.129 291.052 258.305 292.078C256.532 293.043 254.58 293.629 252.45 293.836C250.32 294.043 248.264 293.846 246.282 293.247C244.351 292.586 242.619 291.651 241.087 290.442C239.605 289.172 238.354 287.652 237.334 285.884C236.364 284.055 235.775 282.075 235.568 279.945Z" fill="#FFF8EE"/>
<path d="M328.557 270.906C328.35 268.776 328.549 266.749 329.154 264.823C329.809 262.835 330.742 261.075 331.951 259.543C333.216 258.006 334.735 256.755 336.508 255.79C338.332 254.764 340.309 254.148 342.439 253.941C344.569 253.734 346.6 253.961 348.531 254.622C350.513 255.221 352.273 256.153 353.81 257.418C355.348 258.684 356.602 260.231 357.572 262.06C358.592 263.828 359.206 265.777 359.413 267.907C359.62 270.037 359.396 272.096 358.74 274.083C358.135 276.009 357.2 277.741 355.935 279.278C354.665 280.76 353.117 282.013 351.293 283.039C349.52 284.004 347.568 284.59 345.438 284.797C343.309 285.004 341.253 284.808 339.271 284.208C337.339 283.547 335.607 282.612 334.075 281.403C332.594 280.133 331.343 278.613 330.322 276.845C329.352 275.016 328.764 273.036 328.557 270.906Z" fill="#FFF8EE"/>
<path d="M421.545 261.868C421.338 259.738 421.537 257.71 422.142 255.784C422.798 253.796 423.73 252.036 424.939 250.504C426.204 248.967 427.723 247.716 429.497 246.751C431.321 245.725 433.298 245.109 435.428 244.902C437.558 244.695 439.588 244.922 441.52 245.583C443.502 246.182 445.261 247.115 446.799 248.38C448.336 249.645 449.59 251.192 450.56 253.021C451.581 254.789 452.194 256.738 452.401 258.868C452.608 260.998 452.384 263.057 451.729 265.044C451.124 266.97 450.189 268.702 448.924 270.239C447.653 271.721 446.106 272.975 444.282 274.001C442.509 274.965 440.557 275.551 438.427 275.758C436.297 275.965 434.241 275.769 432.259 275.169C430.328 274.508 428.596 273.573 427.064 272.364C425.582 271.094 424.331 269.575 423.311 267.807C422.341 265.977 421.752 263.997 421.545 261.868Z" fill="#FFF8EE"/>
<path d="M514.534 252.829C514.327 250.699 514.526 248.671 515.131 246.745C515.786 244.757 516.718 242.998 517.927 241.466C519.193 239.928 520.712 238.677 522.485 237.713C524.309 236.687 526.286 236.07 528.416 235.863C530.546 235.656 532.577 235.883 534.508 236.544C536.49 237.143 538.25 238.076 539.787 239.341C541.325 240.606 542.579 242.153 543.548 243.983C544.569 245.75 545.183 247.699 545.39 249.829C545.597 251.959 545.373 254.018 544.717 256.005C544.112 257.931 543.177 259.663 541.912 261.201C540.642 262.682 539.094 263.936 537.27 264.962C535.497 265.926 533.545 266.512 531.415 266.719C529.286 266.926 527.23 266.73 525.247 266.13C523.316 265.469 521.584 264.534 520.052 263.325C518.571 262.055 517.32 260.536 516.299 258.768C515.329 256.938 514.741 254.959 514.534 252.829Z" fill="#FFF8EE"/>
<path d="M607.522 243.79C607.315 241.66 607.514 239.632 608.119 237.706C608.775 235.719 609.707 233.959 610.916 232.427C612.181 230.889 613.7 229.638 615.474 228.674C617.298 227.648 619.275 227.031 621.405 226.824C623.535 226.617 625.565 226.844 627.497 227.505C629.479 228.105 631.238 229.037 632.776 230.302C634.313 231.567 635.567 233.114 636.537 234.944C637.558 236.712 638.171 238.661 638.378 240.791C638.585 242.92 638.361 244.979 637.706 246.967C637.101 248.893 636.166 250.624 634.901 252.162C633.63 253.643 632.083 254.897 630.259 255.923C628.486 256.887 626.534 257.473 624.404 257.68C622.274 257.887 620.218 257.691 618.236 257.092C616.305 256.431 614.573 255.496 613.041 254.287C611.559 253.016 610.308 251.497 609.288 249.729C608.318 247.899 607.729 245.92 607.522 243.79Z" fill="#FFF8EE"/>
<path d="M89.9268 342.081C91.9338 341.338 93.9456 341.014 95.9621 341.109C98.051 341.237 99.9901 341.69 101.779 342.469C103.588 343.301 105.185 344.452 106.569 345.921C108.026 347.424 109.125 349.179 109.868 351.186C110.61 353.193 110.908 355.214 110.761 357.251C110.685 359.32 110.232 361.259 109.4 363.068C108.568 364.877 107.391 366.483 105.869 367.887C104.419 369.324 102.691 370.414 100.684 371.156C98.6765 371.899 96.6286 372.206 94.5397 372.078C92.5232 371.984 90.6105 371.52 88.8016 370.688C87.0455 369.837 85.4391 368.66 83.9825 367.157C82.5983 365.688 81.5349 363.95 80.7924 361.943C80.0499 359.936 79.7162 357.897 79.7912 355.828C79.9387 353.792 80.4019 351.879 81.181 350.09C82.0325 348.334 83.1831 346.737 84.633 345.3C86.1552 343.896 87.9198 342.823 89.9268 342.081Z" fill="#FFF8EE"/>
<path d="M122.344 429.703C124.351 428.961 126.362 428.637 128.379 428.732C130.468 428.859 132.407 429.313 134.196 430.092C136.005 430.924 137.602 432.075 138.986 433.544C140.443 435.047 141.542 436.801 142.285 438.809C143.027 440.816 143.325 442.837 143.177 444.873C143.102 446.942 142.649 448.882 141.817 450.69C140.985 452.499 139.808 454.106 138.286 455.51C136.836 456.947 135.107 458.036 133.1 458.779C131.093 459.521 129.045 459.829 126.956 459.701C124.94 459.606 123.027 459.143 121.218 458.311C119.462 457.46 117.856 456.283 116.399 454.78C115.015 453.31 113.952 451.572 113.209 449.565C112.467 447.558 112.133 445.52 112.208 443.451C112.355 441.415 112.819 439.502 113.598 437.713C114.449 435.957 115.6 434.36 117.05 432.923C118.572 431.519 120.337 430.446 122.344 429.703Z" fill="#FFF8EE"/>
<path d="M154.76 517.326C156.767 516.583 158.779 516.26 160.796 516.354C162.884 516.482 164.824 516.936 166.613 517.715C168.422 518.547 170.018 519.697 171.403 521.167C172.859 522.669 173.959 524.424 174.701 526.431C175.444 528.438 175.741 530.46 175.594 532.496C175.519 534.565 175.065 536.504 174.233 538.313C173.402 540.122 172.225 541.728 170.702 543.132C169.252 544.569 167.524 545.659 165.517 546.401C163.51 547.144 161.462 547.451 159.373 547.323C157.357 547.229 155.444 546.766 153.635 545.934C151.879 545.082 150.273 543.905 148.816 542.402C147.432 540.933 146.368 539.195 145.626 537.188C144.883 535.181 144.55 533.143 144.625 531.073C144.772 529.037 145.235 527.125 146.014 525.335C146.866 523.579 148.017 521.983 149.466 520.545C150.989 519.142 152.753 518.068 154.76 517.326Z" fill="#FFF8EE"/>
<path d="M187.177 604.949C189.184 604.206 191.196 603.882 193.212 603.977C195.301 604.105 197.24 604.558 199.03 605.337C200.839 606.169 202.435 607.32 203.819 608.789C205.276 610.292 206.376 612.047 207.118 614.054C207.861 616.061 208.158 618.082 208.011 620.118C207.936 622.188 207.482 624.127 206.65 625.936C205.818 627.745 204.641 629.351 203.119 630.755C201.669 632.192 199.941 633.282 197.934 634.024C195.927 634.767 193.879 635.074 191.79 634.946C189.773 634.851 187.861 634.388 186.052 633.556C184.296 632.705 182.689 631.528 181.233 630.025C179.848 628.556 178.785 626.817 178.043 624.81C177.3 622.803 176.966 620.765 177.041 618.696C177.189 616.66 177.652 614.747 178.431 612.958C179.283 611.202 180.433 609.605 181.883 608.168C183.405 606.764 185.17 605.691 187.177 604.949Z" fill="#FFF8EE"/>
<path d="M272.695 651.968C272.442 649.843 272.596 647.812 273.159 645.873C273.77 643.872 274.664 642.092 275.839 640.534C277.07 638.969 278.562 637.685 280.313 636.682C282.114 635.616 284.077 634.956 286.202 634.702C288.327 634.449 290.362 634.631 292.308 635.249C294.302 635.805 296.082 636.699 297.647 637.93C299.212 639.161 300.499 640.68 301.509 642.488C302.568 644.233 303.225 646.168 303.478 648.293C303.732 650.418 303.553 652.481 302.941 654.482C302.379 656.421 301.482 658.173 300.251 659.738C299.013 661.247 297.494 662.534 295.693 663.6C293.941 664.603 292.003 665.231 289.878 665.485C287.753 665.739 285.693 665.588 283.698 665.032C281.753 664.413 280.001 663.517 278.443 662.342C276.934 661.104 275.65 659.612 274.591 657.867C273.581 656.06 272.949 654.093 272.695 651.968Z" fill="#FFF8EE"/>
<path d="M365.463 640.892C365.21 638.767 365.364 636.735 365.927 634.797C366.538 632.795 367.432 631.015 368.607 629.457C369.838 627.892 371.329 626.608 373.081 625.605C374.882 624.539 376.845 623.88 378.97 623.626C381.095 623.372 383.13 623.555 385.076 624.173C387.07 624.729 388.85 625.622 390.415 626.853C391.98 628.085 393.267 629.604 394.277 631.412C395.336 633.157 395.992 635.092 396.246 637.217C396.5 639.342 396.321 641.405 395.709 643.406C395.147 645.345 394.25 647.097 393.019 648.661C391.781 650.17 390.262 651.458 388.461 652.524C386.709 653.527 384.77 654.155 382.646 654.409C380.521 654.663 378.461 654.512 376.466 653.956C374.521 653.337 372.769 652.44 371.211 651.265C369.702 650.028 368.418 648.536 367.359 646.791C366.349 644.983 365.717 643.017 365.463 640.892Z" fill="#FFF8EE"/>
<path d="M458.231 629.816C457.977 627.691 458.132 625.659 458.694 623.72C459.306 621.719 460.2 619.939 461.375 618.381C462.606 616.816 464.097 615.532 465.849 614.529C467.65 613.463 469.613 612.803 471.738 612.55C473.863 612.296 475.898 612.478 477.843 613.097C479.838 613.653 481.618 614.546 483.183 615.777C484.748 617.008 486.035 618.528 487.045 620.335C488.104 622.081 488.76 624.016 489.014 626.14C489.268 628.265 489.089 630.328 488.477 632.33C487.914 634.269 487.018 636.02 485.787 637.585C484.549 639.094 483.029 640.381 481.228 641.447C479.477 642.45 477.538 643.079 475.413 643.333C473.288 643.586 471.229 643.435 469.234 642.879C467.289 642.261 465.537 641.364 463.979 640.189C462.47 638.951 461.186 637.46 460.127 635.715C459.117 633.907 458.485 631.941 458.231 629.816Z" fill="#FFF8EE"/>
<path d="M550.999 618.74C550.745 616.615 550.9 614.583 551.462 612.644C552.074 610.643 552.967 608.863 554.143 607.305C555.374 605.74 556.865 604.456 558.617 603.453C560.418 602.387 562.381 601.727 564.506 601.474C566.631 601.22 568.666 601.402 570.611 602.021C572.606 602.576 574.386 603.47 575.951 604.701C577.515 605.932 578.803 607.451 579.813 609.259C580.872 611.004 581.528 612.939 581.782 615.064C582.036 617.189 581.857 619.252 581.245 621.254C580.682 623.192 579.785 624.944 578.554 626.509C577.317 628.018 575.797 629.305 573.996 630.371C572.244 631.374 570.306 632.003 568.181 632.256C566.056 632.51 563.997 632.359 562.002 631.803C560.056 631.185 558.305 630.288 556.746 629.113C555.237 627.875 553.953 626.384 552.894 624.638C551.885 622.831 551.253 620.864 550.999 618.74Z" fill="#FFF8EE"/>
<path d="M643.767 607.663C643.513 605.538 643.668 603.507 644.23 601.568C644.842 599.566 645.735 597.787 646.91 596.228C648.141 594.664 649.633 593.38 651.385 592.376C653.186 591.311 655.149 590.651 657.274 590.397C659.399 590.144 661.434 590.326 663.379 590.944C665.374 591.5 667.154 592.394 668.718 593.625C670.283 594.856 671.571 596.375 672.581 598.183C673.64 599.928 674.296 601.863 674.55 603.988C674.803 606.113 674.624 608.176 674.013 610.177C673.45 612.116 672.553 613.868 671.322 615.433C670.085 616.942 668.565 618.229 666.764 619.295C665.012 620.298 663.074 620.926 660.949 621.18C658.824 621.434 656.764 621.283 654.77 620.727C652.824 620.108 651.072 619.212 649.514 618.036C648.005 616.799 646.721 615.307 645.662 613.562C644.652 611.754 644.021 609.788 643.767 607.663Z" fill="#FFF8EE"/>
<path d="M736.535 596.587C736.281 594.462 736.435 592.43 736.998 590.492C737.61 588.49 738.503 586.71 739.678 585.152C740.909 583.587 742.401 582.303 744.153 581.3C745.954 580.234 747.917 579.575 750.042 579.321C752.166 579.067 754.202 579.25 756.147 579.868C758.142 580.424 759.921 581.317 761.486 582.548C763.051 583.779 764.339 585.299 765.348 587.107C766.407 588.852 767.064 590.787 767.318 592.912C767.571 595.036 767.392 597.1 766.78 599.101C766.218 601.04 765.321 602.792 764.09 604.356C762.852 605.865 761.333 607.153 759.532 608.218C757.78 609.222 755.842 609.85 753.717 610.104C751.592 610.357 749.532 610.206 747.538 609.651C745.592 609.032 743.84 608.135 742.282 606.96C740.773 605.722 739.489 604.231 738.43 602.486C737.42 600.678 736.788 598.712 736.535 596.587Z" fill="#FFF8EE"/>
<path d="M829.303 585.511C829.049 583.386 829.203 581.354 829.766 579.415C830.378 577.414 831.271 575.634 832.446 574.076C833.677 572.511 835.169 571.227 836.92 570.224C838.722 569.158 840.685 568.498 842.809 568.245C844.934 567.991 846.969 568.173 848.915 568.792C850.91 569.348 852.689 570.241 854.254 571.472C855.819 572.703 857.106 574.223 858.116 576.03C859.175 577.775 859.832 579.71 860.085 581.835C860.339 583.96 860.16 586.023 859.548 588.025C858.986 589.963 858.089 591.715 856.858 593.28C855.62 594.789 854.101 596.076 852.3 597.142C850.548 598.145 848.61 598.774 846.485 599.027C844.36 599.281 842.3 599.13 840.305 598.574C838.36 597.956 836.608 597.059 835.05 595.884C833.541 594.646 832.257 593.155 831.198 591.41C830.188 589.602 829.556 587.636 829.303 585.511Z" fill="#FFF8EE"/>
<path d="M922.07 574.434C921.817 572.31 921.971 570.278 922.534 568.339C923.145 566.338 924.039 564.558 925.214 563C926.445 561.435 927.936 560.151 929.688 559.148C931.489 558.082 933.452 557.422 935.577 557.168C937.702 556.915 939.737 557.097 941.683 557.716C943.677 558.271 945.457 559.165 947.022 560.396C948.587 561.627 949.874 563.146 950.884 564.954C951.943 566.699 952.6 568.634 952.853 570.759C953.107 572.884 952.928 574.947 952.316 576.948C951.754 578.887 950.857 580.639 949.626 582.204C948.388 583.713 946.869 585 945.068 586.066C943.316 587.069 941.378 587.698 939.253 587.951C937.128 588.205 935.068 588.054 933.073 587.498C931.128 586.88 929.376 585.983 927.818 584.808C926.309 583.57 925.025 582.079 923.966 580.333C922.956 578.526 922.324 576.559 922.07 574.434Z" fill="#FFF8EE"/>
<path d="M1014.84 563.358C1014.58 561.233 1014.74 559.201 1015.3 557.263C1015.91 555.261 1016.81 553.482 1017.98 551.923C1019.21 550.359 1020.7 549.075 1022.46 548.071C1024.26 547.006 1026.22 546.346 1028.35 546.092C1030.47 545.838 1032.51 546.021 1034.45 546.639C1036.45 547.195 1038.22 548.089 1039.79 549.32C1041.35 550.551 1042.64 552.07 1043.65 553.878C1044.71 555.623 1045.37 557.558 1045.62 559.683C1045.87 561.808 1045.7 563.871 1045.08 565.872C1044.52 567.811 1043.62 569.563 1042.39 571.128C1041.16 572.637 1039.64 573.924 1037.84 574.99C1036.08 575.993 1034.15 576.621 1032.02 576.875C1029.9 577.129 1027.84 576.978 1025.84 576.422C1023.9 575.803 1022.14 574.907 1020.59 573.731C1019.08 572.494 1017.79 571.002 1016.73 569.257C1015.72 567.449 1015.09 565.483 1014.84 563.358Z" fill="#FFF8EE"/>
<path d="M1107.61 552.282C1107.35 550.157 1107.51 548.125 1108.07 546.186C1108.68 544.185 1109.57 542.405 1110.75 540.847C1111.98 539.282 1113.47 537.998 1115.22 536.995C1117.03 535.929 1118.99 535.27 1121.11 535.016C1123.24 534.762 1125.27 534.945 1127.22 535.563C1129.21 536.119 1130.99 537.012 1132.56 538.243C1134.12 539.474 1135.41 540.994 1136.42 542.801C1137.48 544.547 1138.14 546.482 1138.39 548.607C1138.64 550.731 1138.46 552.795 1137.85 554.796C1137.29 556.735 1136.39 558.486 1135.16 560.051C1133.92 561.56 1132.4 562.848 1130.6 563.913C1128.85 564.917 1126.91 565.545 1124.79 565.799C1122.66 566.052 1120.6 565.901 1118.61 565.345C1116.66 564.727 1114.91 563.83 1113.35 562.655C1111.84 561.417 1110.56 559.926 1109.5 558.181C1108.49 556.373 1107.86 554.407 1107.61 552.282Z" fill="#FFF8EE"/>
<path d="M1200.37 541.206C1200.12 539.081 1200.27 537.049 1200.84 535.11C1201.45 533.109 1202.34 531.329 1203.52 529.771C1204.75 528.206 1206.24 526.922 1207.99 525.919C1209.79 524.853 1211.76 524.193 1213.88 523.94C1216.01 523.686 1218.04 523.868 1219.99 524.487C1221.98 525.043 1223.76 525.936 1225.33 527.167C1226.89 528.398 1228.18 529.917 1229.19 531.725C1230.25 533.47 1230.9 535.405 1231.16 537.53C1231.41 539.655 1231.23 541.718 1230.62 543.72C1230.06 545.658 1229.16 547.41 1227.93 548.975C1226.69 550.484 1225.17 551.771 1223.37 552.837C1221.62 553.84 1219.68 554.469 1217.56 554.722C1215.43 554.976 1213.37 554.825 1211.38 554.269C1209.43 553.651 1207.68 552.754 1206.12 551.579C1204.61 550.341 1203.33 548.85 1202.27 547.105C1201.26 545.297 1200.63 543.331 1200.37 541.206Z" fill="#FFF8EE"/>
<path d="M142.58 288.984C142.373 286.854 142.572 284.826 143.177 282.9C143.832 280.913 144.765 279.153 145.974 277.621C147.239 276.084 148.758 274.833 150.531 273.868C152.355 272.842 154.332 272.225 156.462 272.018C158.592 271.811 160.623 272.038 162.554 272.699C164.536 273.299 166.296 274.231 167.833 275.496C169.371 276.761 170.625 278.308 171.595 280.138C172.615 281.906 173.229 283.855 173.436 285.985C173.643 288.115 173.419 290.173 172.763 292.161C172.158 294.087 171.223 295.819 169.958 297.356C168.688 298.837 167.14 300.091 165.316 301.117C163.543 302.082 161.591 302.667 159.461 302.874C157.332 303.082 155.276 302.885 153.294 302.286C151.362 301.625 149.63 300.69 148.098 299.481C146.617 298.21 145.366 296.691 144.345 294.923C143.375 293.094 142.787 291.114 142.58 288.984Z" stroke="#1D1E20" stroke-width="12" mask="url(#path-6-outside-2_17_3)"/>
<path d="M235.568 279.945C235.361 277.815 235.56 275.787 236.165 273.861C236.821 271.874 237.753 270.114 238.962 268.582C240.227 267.045 241.746 265.794 243.52 264.829C245.344 263.803 247.321 263.187 249.451 262.98C251.581 262.773 253.611 263 255.543 263.66C257.525 264.26 259.284 265.192 260.822 266.457C262.359 267.722 263.613 269.27 264.583 271.099C265.604 272.867 266.217 274.816 266.424 276.946C266.631 279.076 266.407 281.135 265.752 283.122C265.147 285.048 264.212 286.78 262.947 288.317C261.676 289.799 260.129 291.052 258.305 292.078C256.532 293.043 254.58 293.629 252.45 293.836C250.32 294.043 248.264 293.846 246.282 293.247C244.351 292.586 242.619 291.651 241.087 290.442C239.605 289.172 238.354 287.652 237.334 285.884C236.364 284.055 235.775 282.075 235.568 279.945Z" stroke="#1D1E20" stroke-width="12" mask="url(#path-6-outside-2_17_3)"/>
<path d="M328.557 270.906C328.35 268.776 328.549 266.749 329.154 264.823C329.809 262.835 330.742 261.075 331.951 259.543C333.216 258.006 334.735 256.755 336.508 255.79C338.332 254.764 340.309 254.148 342.439 253.941C344.569 253.734 346.6 253.961 348.531 254.622C350.513 255.221 352.273 256.153 353.81 257.418C355.348 258.684 356.602 260.231 357.572 262.06C358.592 263.828 359.206 265.777 359.413 267.907C359.62 270.037 359.396 272.096 358.74 274.083C358.135 276.009 357.2 277.741 355.935 279.278C354.665 280.76 353.117 282.013 351.293 283.039C349.52 284.004 347.568 284.59 345.438 284.797C343.309 285.004 341.253 284.808 339.271 284.208C337.339 283.547 335.607 282.612 334.075 281.403C332.594 280.133 331.343 278.613 330.322 276.845C329.352 275.016 328.764 273.036 328.557 270.906Z" stroke="#1D1E20" stroke-width="12" mask="url(#path-6-outside-2_17_3)"/>
<path d="M421.545 261.868C421.338 259.738 421.537 257.71 422.142 255.784C422.798 253.796 423.73 252.036 424.939 250.504C426.204 248.967 427.723 247.716 429.497 246.751C431.321 245.725 433.298 245.109 435.428 244.902C437.558 244.695 439.588 244.922 441.52 245.583C443.502 246.182 445.261 247.115 446.799 248.38C448.336 249.645 449.59 251.192 450.56 253.021C451.581 254.789 452.194 256.738 452.401 258.868C452.608 260.998 452.384 263.057 451.729 265.044C451.124 266.97 450.189 268.702 448.924 270.239C447.653 271.721 446.106 272.975 444.282 274.001C442.509 274.965 440.557 275.551 438.427 275.758C436.297 275.965 434.241 275.769 432.259 275.169C430.328 274.508 428.596 273.573 427.064 272.364C425.582 271.094 424.331 269.575 423.311 267.807C422.341 265.977 421.752 263.997 421.545 261.868Z" stroke="#1D1E20" stroke-width="12" mask="url(#path-6-outside-2_17_3)"/>
<path d="M514.534 252.829C514.327 250.699 514.526 248.671 515.131 246.745C515.786 244.757 516.718 242.998 517.927 241.466C519.193 239.928 520.712 238.677 522.485 237.713C524.309 236.687 526.286 236.07 528.416 235.863C530.546 235.656 532.577 235.883 534.508 236.544C536.49 237.143 538.25 238.076 539.787 239.341C541.325 240.606 542.579 242.153 543.548 243.983C544.569 245.75 545.183 247.699 545.39 249.829C545.597 251.959 545.373 254.018 544.717 256.005C544.112 257.931 543.177 259.663 541.912 261.201C540.642 262.682 539.094 263.936 537.27 264.962C535.497 265.926 533.545 266.512 531.415 266.719C529.286 266.926 527.23 266.73 525.247 266.13C523.316 265.469 521.584 264.534 520.052 263.325C518.571 262.055 517.32 260.536 516.299 258.768C515.329 256.938 514.741 254.959 514.534 252.829Z" stroke="#1D1E20" stroke-width="12" mask="url(#path-6-outside-2_17_3)"/>
<path d="M607.522 243.79C607.315 241.66 607.514 239.632 608.119 237.706C608.775 235.719 609.707 233.959 610.916 232.427C612.181 230.889 613.7 229.638 615.474 228.674C617.298 227.648 619.275 227.031 621.405 226.824C623.535 226.617 625.565 226.844 627.497 227.505C629.479 228.105 631.238 229.037 632.776 230.302C634.313 231.567 635.567 233.114 636.537 234.944C637.558 236.712 638.171 238.661 638.378 240.791C638.585 242.92 638.361 244.979 637.706 246.967C637.101 248.893 636.166 250.624 634.901 252.162C633.63 253.643 632.083 254.897 630.259 255.923C628.486 256.887 626.534 257.473 624.404 257.68C622.274 257.887 620.218 257.691 618.236 257.092C616.305 256.431 614.573 255.496 613.041 254.287C611.559 253.016 610.308 251.497 609.288 249.729C608.318 247.899 607.729 245.92 607.522 243.79Z" stroke="#1D1E20" stroke-width="12" mask="url(#path-6-outside-2_17_3)"/>
<path d="M89.9268 342.081C91.9338 341.338 93.9456 341.014 95.9621 341.109C98.051 341.237 99.9901 341.69 101.779 342.469C103.588 343.301 105.185 344.452 106.569 345.921C108.026 347.424 109.125 349.179 109.868 351.186C110.61 353.193 110.908 355.214 110.761 357.251C110.685 359.32 110.232 361.259 109.4 363.068C108.568 364.877 107.391 366.483 105.869 367.887C104.419 369.324 102.691 370.414 100.684 371.156C98.6765 371.899 96.6286 372.206 94.5397 372.078C92.5232 371.984 90.6105 371.52 88.8016 370.688C87.0455 369.837 85.4391 368.66 83.9825 367.157C82.5983 365.688 81.5349 363.95 80.7924 361.943C80.0499 359.936 79.7162 357.897 79.7912 355.828C79.9387 353.792 80.4019 351.879 81.181 350.09C82.0325 348.334 83.1831 346.737 84.633 345.3C86.1552 343.896 87.9198 342.823 89.9268 342.081Z" stroke="#1D1E20" stroke-width="12" mask="url(#path-6-outside-2_17_3)"/>
<path d="M122.344 429.703C124.351 428.961 126.362 428.637 128.379 428.732C130.468 428.859 132.407 429.313 134.196 430.092C136.005 430.924 137.602 432.075 138.986 433.544C140.443 435.047 141.542 436.801 142.285 438.809C143.027 440.816 143.325 442.837 143.177 444.873C143.102 446.942 142.649 448.882 141.817 450.69C140.985 452.499 139.808 454.106 138.286 455.51C136.836 456.947 135.107 458.036 133.1 458.779C131.093 459.521 129.045 459.829 126.956 459.701C124.94 459.606 123.027 459.143 121.218 458.311C119.462 457.46 117.856 456.283 116.399 454.78C115.015 453.31 113.952 451.572 113.209 449.565C112.467 447.558 112.133 445.52 112.208 443.451C112.355 441.415 112.819 439.502 113.598 437.713C114.449 435.957 115.6 434.36 117.05 432.923C118.572 431.519 120.337 430.446 122.344 429.703Z" stroke="#1D1E20" stroke-width="12" mask="url(#path-6-outside-2_17_3)"/>
<path d="M154.76 517.326C156.767 516.583 158.779 516.26 160.796 516.354C162.884 516.482 164.824 516.936 166.613 517.715C168.422 518.547 170.018 519.697 171.403 521.167C172.859 522.669 173.959 524.424 174.701 526.431C175.444 528.438 175.741 530.46 175.594 532.496C175.519 534.565 175.065 536.504 174.233 538.313C173.402 540.122 172.225 541.728 170.702 543.132C169.252 544.569 167.524 545.659 165.517 546.401C163.51 547.144 161.462 547.451 159.373 547.323C157.357 547.229 155.444 546.766 153.635 545.934C151.879 545.082 150.273 543.905 148.816 542.402C147.432 540.933 146.368 539.195 145.626 537.188C144.883 535.181 144.55 533.143 144.625 531.073C144.772 529.037 145.235 527.125 146.014 525.335C146.866 523.579 148.017 521.983 149.466 520.545C150.989 519.142 152.753 518.068 154.76 517.326Z" stroke="#1D1E20" stroke-width="12" mask="url(#path-6-outside-2_17_3)"/>
<path d="M187.177 604.949C189.184 604.206 191.196 603.882 193.212 603.977C195.301 604.105 197.24 604.558 199.03 605.337C200.839 606.169 202.435 607.32 203.819 608.789C205.276 610.292 206.376 612.047 207.118 614.054C207.861 616.061 208.158 618.082 208.011 620.118C207.936 622.188 207.482 624.127 206.65 625.936C205.818 627.745 204.641 629.351 203.119 630.755C201.669 632.192 199.941 633.282 197.934 634.024C195.927 634.767 193.879 635.074 191.79 634.946C189.773 634.851 187.861 634.388 186.052 633.556C184.296 632.705 182.689 631.528 181.233 630.025C179.848 628.556 178.785 626.817 178.043 624.81C177.3 622.803 176.966 620.765 177.041 618.696C177.189 616.66 177.652 614.747 178.431 612.958C179.283 611.202 180.433 609.605 181.883 608.168C183.405 606.764 185.17 605.691 187.177 604.949Z" stroke="#1D1E20" stroke-width="12" mask="url(#path-6-outside-2_17_3)"/>
<path d="M272.695 651.968C272.442 649.843 272.596 647.812 273.159 645.873C273.77 643.872 274.664 642.092 275.839 640.534C277.07 638.969 278.562 637.685 280.313 636.682C282.114 635.616 284.077 634.956 286.202 634.702C288.327 634.449 290.362 634.631 292.308 635.249C294.302 635.805 296.082 636.699 297.647 637.93C299.212 639.161 300.499 640.68 301.509 642.488C302.568 644.233 303.225 646.168 303.478 648.293C303.732 650.418 303.553 652.481 302.941 654.482C302.379 656.421 301.482 658.173 300.251 659.738C299.013 661.247 297.494 662.534 295.693 663.6C293.941 664.603 292.003 665.231 289.878 665.485C287.753 665.739 285.693 665.588 283.698 665.032C281.753 664.413 280.001 663.517 278.443 662.342C276.934 661.104 275.65 659.612 274.591 657.867C273.581 656.06 272.949 654.093 272.695 651.968Z" stroke="#1D1E20" stroke-width="12" mask="url(#path-6-outside-2_17_3)"/>
<path d="M365.463 640.892C365.21 638.767 365.364 636.735 365.927 634.797C366.538 632.795 367.432 631.015 368.607 629.457C369.838 627.892 371.329 626.608 373.081 625.605C374.882 624.539 376.845 623.88 378.97 623.626C381.095 623.372 383.13 623.555 385.076 624.173C387.07 624.729 388.85 625.622 390.415 626.853C391.98 628.085 393.267 629.604 394.277 631.412C395.336 633.157 395.992 635.092 396.246 637.217C396.5 639.342 396.321 641.405 395.709 643.406C395.147 645.345 394.25 647.097 393.019 648.661C391.781 650.17 390.262 651.458 388.461 652.524C386.709 653.527 384.77 654.155 382.646 654.409C380.521 654.663 378.461 654.512 376.466 653.956C374.521 653.337 372.769 652.44 371.211 651.265C369.702 650.028 368.418 648.536 367.359 646.791C366.349 644.983 365.717 643.017 365.463 640.892Z" stroke="#1D1E20" stroke-width="12" mask="url(#path-6-outside-2_17_3)"/>
<path d="M458.231 629.816C457.977 627.691 458.132 625.659 458.694 623.72C459.306 621.719 460.2 619.939 461.375 618.381C462.606 616.816 464.097 615.532 465.849 614.529C467.65 613.463 469.613 612.803 471.738 612.55C473.863 612.296 475.898 612.478 477.843 613.097C479.838 613.653 481.618 614.546 483.183 615.777C484.748 617.008 486.035 618.528 487.045 620.335C488.104 622.081 488.76 624.016 489.014 626.14C489.268 628.265 489.089 630.328 488.477 632.33C487.914 634.269 487.018 636.02 485.787 637.585C484.549 639.094 483.029 640.381 481.228 641.447C479.477 642.45 477.538 643.079 475.413 643.333C473.288 643.586 471.229 643.435 469.234 642.879C467.289 642.261 465.537 641.364 463.979 640.189C462.47 638.951 461.186 637.46 460.127 635.715C459.117 633.907 458.485 631.941 458.231 629.816Z" stroke="#1D1E20" stroke-width="12" mask="url(#path-6-outside-2_17_3)"/>
<path d="M550.999 618.74C550.745 616.615 550.9 614.583 551.462 612.644C552.074 610.643 552.967 608.863 554.143 607.305C555.374 605.74 556.865 604.456 558.617 603.453C560.418 602.387 562.381 601.727 564.506 601.474C566.631 601.22 568.666 601.402 570.611 602.021C572.606 602.576 574.386 603.47 575.951 604.701C577.515 605.932 578.803 607.451 579.813 609.259C580.872 611.004 581.528 612.939 581.782 615.064C582.036 617.189 581.857 619.252 581.245 621.254C580.682 623.192 579.785 624.944 578.554 626.509C577.317 628.018 575.797 629.305 573.996 630.371C572.244 631.374 570.306 632.003 568.181 632.256C566.056 632.51 563.997 632.359 562.002 631.803C560.056 631.185 558.305 630.288 556.746 629.113C555.237 627.875 553.953 626.384 552.894 624.638C551.885 622.831 551.253 620.864 550.999 618.74Z" stroke="#1D1E20" stroke-width="12" mask="url(#path-6-outside-2_17_3)"/>
<path d="M643.767 607.663C643.513 605.538 643.668 603.507 644.23 601.568C644.842 599.566 645.735 597.787 646.91 596.228C648.141 594.664 649.633 593.38 651.385 592.376C653.186 591.311 655.149 590.651 657.274 590.397C659.399 590.144 661.434 590.326 663.379 590.944C665.374 591.5 667.154 592.394 668.718 593.625C670.283 594.856 671.571 596.375 672.581 598.183C673.64 599.928 674.296 601.863 674.55 603.988C674.803 606.113 674.624 608.176 674.013 610.177C673.45 612.116 672.553 613.868 671.322 615.433C670.085 616.942 668.565 618.229 666.764 619.295C665.012 620.298 663.074 620.926 660.949 621.18C658.824 621.434 656.764 621.283 654.77 620.727C652.824 620.108 651.072 619.212 649.514 618.036C648.005 616.799 646.721 615.307 645.662 613.562C644.652 611.754 644.021 609.788 643.767 607.663Z" stroke="#1D1E20" stroke-width="12" mask="url(#path-6-outside-2_17_3)"/>
<path d="M736.535 596.587C736.281 594.462 736.435 592.43 736.998 590.492C737.61 588.49 738.503 586.71 739.678 585.152C740.909 583.587 742.401 582.303 744.153 581.3C745.954 580.234 747.917 579.575 750.042 579.321C752.166 579.067 754.202 579.25 756.147 579.868C758.142 580.424 759.921 581.317 761.486 582.548C763.051 583.779 764.339 585.299 765.348 587.107C766.407 588.852 767.064 590.787 767.318 592.912C767.571 595.036 767.392 597.1 766.78 599.101C766.218 601.04 765.321 602.792 764.09 604.356C762.852 605.865 761.333 607.153 759.532 608.218C757.78 609.222 755.842 609.85 753.717 610.104C751.592 610.357 749.532 610.206 747.538 609.651C745.592 609.032 743.84 608.135 742.282 606.96C740.773 605.722 739.489 604.231 738.43 602.486C737.42 600.678 736.788 598.712 736.535 596.587Z" stroke="#1D1E20" stroke-width="12" mask="url(#path-6-outside-2_17_3)"/>
<path d="M829.303 585.511C829.049 583.386 829.203 581.354 829.766 579.415C830.378 577.414 831.271 575.634 832.446 574.076C833.677 572.511 835.169 571.227 836.92 570.224C838.722 569.158 840.685 568.498 842.809 568.245C844.934 567.991 846.969 568.173 848.915 568.792C850.91 569.348 852.689 570.241 854.254 571.472C855.819 572.703 857.106 574.223 858.116 576.03C859.175 577.775 859.832 579.71 860.085 581.835C860.339 583.96 860.16 586.023 859.548 588.025C858.986 589.963 858.089 591.715 856.858 593.28C855.62 594.789 854.101 596.076 852.3 597.142C850.548 598.145 848.61 598.774 846.485 599.027C844.36 599.281 842.3 599.13 840.305 598.574C838.36 597.956 836.608 597.059 835.05 595.884C833.541 594.646 832.257 593.155 831.198 591.41C830.188 589.602 829.556 587.636 829.303 585.511Z" stroke="#1D1E20" stroke-width="12" mask="url(#path-6-outside-2_17_3)"/>
<path d="M922.07 574.434C921.817 572.31 921.971 570.278 922.534 568.339C923.145 566.338 924.039 564.558 925.214 563C926.445 561.435 927.936 560.151 929.688 559.148C931.489 558.082 933.452 557.422 935.577 557.168C937.702 556.915 939.737 557.097 941.683 557.716C943.677 558.271 945.457 559.165 947.022 560.396C948.587 561.627 949.874 563.146 950.884 564.954C951.943 566.699 952.6 568.634 952.853 570.759C953.107 572.884 952.928 574.947 952.316 576.948C951.754 578.887 950.857 580.639 949.626 582.204C948.388 583.713 946.869 585 945.068 586.066C943.316 587.069 941.378 587.698 939.253 587.951C937.128 588.205 935.068 588.054 933.073 587.498C931.128 586.88 929.376 585.983 927.818 584.808C926.309 583.57 925.025 582.079 923.966 580.333C922.956 578.526 922.324 576.559 922.07 574.434Z" stroke="#1D1E20" stroke-width="12" mask="url(#path-6-outside-2_17_3)"/>
<path d="M1014.84 563.358C1014.58 561.233 1014.74 559.201 1015.3 557.263C1015.91 555.261 1016.81 553.482 1017.98 551.923C1019.21 550.359 1020.7 549.075 1022.46 548.071C1024.26 547.006 1026.22 546.346 1028.35 546.092C1030.47 545.838 1032.51 546.021 1034.45 546.639C1036.45 547.195 1038.22 548.089 1039.79 549.32C1041.35 550.551 1042.64 552.07 1043.65 553.878C1044.71 555.623 1045.37 557.558 1045.62 559.683C1045.87 561.808 1045.7 563.871 1045.08 565.872C1044.52 567.811 1043.62 569.563 1042.39 571.128C1041.16 572.637 1039.64 573.924 1037.84 574.99C1036.08 575.993 1034.15 576.621 1032.02 576.875C1029.9 577.129 1027.84 576.978 1025.84 576.422C1023.9 575.803 1022.14 574.907 1020.59 573.731C1019.08 572.494 1017.79 571.002 1016.73 569.257C1015.72 567.449 1015.09 565.483 1014.84 563.358Z" stroke="#1D1E20" stroke-width="12" mask="url(#path-6-outside-2_17_3)"/>
<path d="M1107.61 552.282C1107.35 550.157 1107.51 548.125 1108.07 546.186C1108.68 544.185 1109.57 542.405 1110.75 540.847C1111.98 539.282 1113.47 537.998 1115.22 536.995C1117.03 535.929 1118.99 535.27 1121.11 535.016C1123.24 534.762 1125.27 534.945 1127.22 535.563C1129.21 536.119 1130.99 537.012 1132.56 538.243C1134.12 539.474 1135.41 540.994 1136.42 542.801C1137.48 544.547 1138.14 546.482 1138.39 548.607C1138.64 550.731 1138.46 552.795 1137.85 554.796C1137.29 556.735 1136.39 558.486 1135.16 560.051C1133.92 561.56 1132.4 562.848 1130.6 563.913C1128.85 564.917 1126.91 565.545 1124.79 565.799C1122.66 566.052 1120.6 565.901 1118.61 565.345C1116.66 564.727 1114.91 563.83 1113.35 562.655C1111.84 561.417 1110.56 559.926 1109.5 558.181C1108.49 556.373 1107.86 554.407 1107.61 552.282Z" stroke="#1D1E20" stroke-width="12" mask="url(#path-6-outside-2_17_3)"/>
<path d="M1200.37 541.206C1200.12 539.081 1200.27 537.049 1200.84 535.11C1201.45 533.109 1202.34 531.329 1203.52 529.771C1204.75 528.206 1206.24 526.922 1207.99 525.919C1209.79 524.853 1211.76 524.193 1213.88 523.94C1216.01 523.686 1218.04 523.868 1219.99 524.487C1221.98 525.043 1223.76 525.936 1225.33 527.167C1226.89 528.398 1228.18 529.917 1229.19 531.725C1230.25 533.47 1230.9 535.405 1231.16 537.53C1231.41 539.655 1231.23 541.718 1230.62 543.72C1230.06 545.658 1229.16 547.41 1227.93 548.975C1226.69 550.484 1225.17 551.771 1223.37 552.837C1221.62 553.84 1219.68 554.469 1217.56 554.722C1215.43 554.976 1213.37 554.825 1211.38 554.269C1209.43 553.651 1207.68 552.754 1206.12 551.579C1204.61 550.341 1203.33 548.85 1202.27 547.105C1201.26 545.297 1200.63 543.331 1200.37 541.206Z" stroke="#1D1E20" stroke-width="12" mask="url(#path-6-outside-2_17_3)"/>
<path d="M138.916 335.77C142.38 363.951 122.343 389.604 94.1617 393.067C65.9809 396.531 40.3281 376.494 36.8645 348.313C33.4008 320.132 53.4381 294.479 81.6189 291.015C109.8 287.552 135.453 307.589 138.916 335.77Z" fill="#1D1E20"/>
<path d="M285.703 317.729C289.167 345.91 269.129 371.562 240.948 375.026C212.768 378.49 187.115 358.452 183.651 330.272C180.188 302.091 200.225 276.438 228.406 272.974C256.586 269.511 282.239 289.548 285.703 317.729Z" fill="#1D1E20"/>
<path d="M432.49 299.688C435.953 327.868 415.916 353.521 387.735 356.985C359.554 360.449 333.902 340.411 330.438 312.231C326.974 284.05 347.012 258.397 375.192 254.933C403.373 251.47 429.026 271.507 432.49 299.688Z" fill="#1D1E20"/>
<path d="M579.276 281.647C582.74 309.827 562.703 335.48 534.522 338.944C506.341 342.407 480.688 322.37 477.225 294.189C473.761 266.009 493.798 240.356 521.979 236.892C550.16 233.429 575.813 253.466 579.276 281.647Z" fill="#1D1E20"/>
<path d="M807.145 253.64C810.609 281.821 790.572 307.474 762.391 310.937C734.21 314.401 708.557 294.364 705.094 266.183C701.63 238.002 721.667 212.349 749.848 208.885C778.029 205.422 803.682 225.459 807.145 253.64Z" fill="#1D1E20"/>
<path d="M953.932 235.599C957.396 263.78 937.358 289.433 909.178 292.896C880.997 296.36 855.344 276.322 851.88 248.142C848.417 219.961 868.454 194.308 896.635 190.844C924.816 187.381 950.468 207.418 953.932 235.599Z" fill="#1D1E20"/>
<path d="M1100.72 217.558C1104.18 245.739 1084.15 271.391 1055.96 274.855C1027.78 278.319 1002.13 258.281 998.667 230.101C995.203 201.92 1015.24 176.267 1043.42 172.803C1071.6 169.34 1097.26 189.377 1100.72 217.558Z" fill="#1D1E20"/>
<path d="M1247.51 199.517C1250.97 227.697 1230.93 253.35 1202.75 256.814C1174.57 260.278 1148.92 240.24 1145.45 212.06C1141.99 183.879 1162.03 158.226 1190.21 154.762C1218.39 151.299 1244.04 171.336 1247.51 199.517Z" fill="#1D1E20"/>
<path d="M1394.29 181.476C1397.76 209.656 1377.72 235.309 1349.54 238.773C1321.36 242.236 1295.7 222.199 1292.24 194.018C1288.78 165.838 1308.81 140.185 1336.99 136.721C1365.18 133.258 1390.83 153.295 1394.29 181.476Z" fill="#1D1E20"/>
<path d="M139.938 332.136C143.2 358.672 124.332 382.828 97.7955 386.09C71.2592 389.351 47.1033 370.483 43.8418 343.947C40.5803 317.41 59.4483 293.255 85.9846 289.993C112.521 286.732 136.677 305.6 139.938 332.136ZM286.725 314.095C289.987 340.631 271.119 364.787 244.582 368.048C218.046 371.31 193.89 352.442 190.629 325.906C187.367 299.369 206.235 275.213 232.771 271.952C259.308 268.69 283.464 287.558 286.725 314.095ZM433.512 296.054C436.773 322.59 417.905 346.746 391.369 350.007C364.833 353.269 340.677 334.401 337.415 307.865C334.154 281.328 353.022 257.172 379.558 253.911C406.094 250.649 430.25 269.517 433.512 296.054ZM580.298 278.013C583.56 304.549 564.692 328.705 538.156 331.966C511.619 335.228 487.463 316.36 484.202 289.823C480.94 263.287 499.808 239.131 526.345 235.87C552.881 232.608 577.037 251.476 580.298 278.013ZM808.167 250.006C811.429 276.542 792.561 300.698 766.025 303.96C739.488 307.221 715.332 288.353 712.071 261.817C708.81 235.28 727.677 211.125 754.214 207.863C780.75 204.602 804.906 223.47 808.167 250.006ZM954.954 231.965C958.216 258.501 939.348 282.657 912.811 285.919C886.275 289.18 862.119 270.312 858.858 243.776C855.596 217.239 874.464 193.083 901.001 189.822C927.537 186.56 951.693 205.428 954.954 231.965ZM1101.74 213.924C1105 240.46 1086.13 264.616 1059.6 267.877C1033.06 271.139 1008.91 252.271 1005.64 225.735C1002.38 199.198 1021.25 175.042 1047.79 171.781C1074.32 168.519 1098.48 187.387 1101.74 213.924ZM1248.53 195.883C1251.79 222.419 1232.92 246.575 1206.38 249.836C1179.85 253.098 1155.69 234.23 1152.43 207.694C1149.17 181.157 1168.04 157.001 1194.57 153.74C1221.11 150.478 1245.27 169.346 1248.53 195.883ZM1395.31 177.842C1398.58 204.378 1379.71 228.534 1353.17 231.795C1326.64 235.057 1302.48 216.189 1299.22 189.652C1295.96 163.116 1314.82 138.96 1341.36 135.699C1367.9 132.437 1392.05 151.305 1395.31 177.842Z" fill="#FFF8EE" stroke="#1D1E20" stroke-width="6"/>
<path d="M94.9858 357.5C92.0744 357.858 89.3573 357.693 86.8346 357.006C84.312 356.318 82.0494 355.193 80.047 353.629C78.0446 352.065 76.4044 350.142 75.1266 347.861C73.8488 345.58 73.0332 343.002 72.6798 340.127C72.3265 337.251 72.4935 334.553 73.1809 332.03C73.8683 329.507 74.994 327.245 76.5581 325.242C78.1222 323.24 80.0448 321.6 82.3259 320.322C84.6071 319.044 87.1852 318.228 90.0602 317.875C92.9353 317.522 95.6341 317.689 98.1568 318.376C100.68 319.064 102.942 320.189 104.944 321.753C106.947 323.317 108.569 325.242 109.81 327.528C111.088 329.809 111.904 332.387 112.257 335.262C112.606 338.101 112.439 340.8 111.756 343.359C111.105 345.877 109.997 348.137 108.433 350.14C106.869 352.142 104.947 353.782 102.666 355.06C100.384 356.338 97.8245 357.151 94.9858 357.5ZM93.8577 348.773C95.3498 348.589 96.681 348.149 97.8513 347.451C99.0579 346.748 100.056 345.85 100.845 344.755C101.666 343.62 102.248 342.348 102.592 340.939C102.936 339.529 103.01 338.024 102.813 336.423C102.616 334.822 102.18 333.379 101.505 332.095C100.83 330.811 99.9594 329.736 98.8924 328.87C97.8574 327.963 96.6694 327.314 95.3286 326.925C94.0241 326.531 92.6258 326.426 91.1337 326.609C89.6416 326.793 88.2922 327.236 87.0856 327.938C85.9153 328.636 84.9197 329.553 84.0987 330.688C83.2733 331.787 82.6886 333.041 82.3446 334.45C82.037 335.855 81.9816 337.358 82.1784 338.959C82.3752 340.56 82.7951 342.023 83.4382 343.348C84.1132 344.632 84.9842 345.707 86.0512 346.574C87.1181 347.44 88.3039 348.07 89.6083 348.464C90.9492 348.853 92.3656 348.956 93.8577 348.773Z" fill="#D5304F"/>
<path d="M228.37 340.552L223.673 302.34L240.159 300.314C242.561 300.018 244.757 300.303 246.747 301.166C248.774 302.025 250.449 303.334 251.774 305.092C253.135 306.846 253.96 308.906 254.251 311.271C254.555 313.746 254.264 316.035 253.377 318.139C252.523 320.202 251.218 321.914 249.465 323.275C247.747 324.631 245.688 325.457 243.286 325.752L236.08 326.638L237.65 339.412L228.37 340.552ZM234.916 318.524L240.976 317.779C241.776 317.681 242.48 317.391 243.086 316.911C243.691 316.43 244.152 315.819 244.467 315.078C244.783 314.338 244.884 313.512 244.773 312.603C244.656 311.656 244.358 310.88 243.877 310.274C243.396 309.669 242.806 309.224 242.106 308.941C241.406 308.657 240.656 308.565 239.855 308.663L233.796 309.408L234.916 318.524Z" fill="#D5304F"/>
<path d="M376.335 322.366L371.639 284.154L398.278 280.88L399.251 288.795L381.619 290.962L384.37 313.344L402.548 311.11L403.521 319.025L376.335 322.366ZM378.777 306.162L377.851 298.629L397.667 296.194L398.593 303.727L378.777 306.162Z" fill="#D5304F"/>
<path d="M517.998 304.955L513.302 266.743L521.599 265.723L544.988 290.555L543.153 290.503C542.824 289.325 542.537 288.196 542.294 287.118C542.05 286.04 541.809 284.979 541.57 283.938C541.368 282.891 541.163 281.826 540.956 280.744C540.786 279.656 540.604 278.478 540.411 277.209C540.254 275.935 540.084 274.552 539.901 273.06L538.74 263.616L547.747 262.509L552.444 300.721L544.037 301.755L519.668 276.156L522.499 276.196C522.895 277.921 523.224 279.395 523.485 280.619C523.779 281.802 524.02 282.862 524.209 283.799C524.434 284.732 524.612 285.578 524.743 286.338C524.873 287.098 524.985 287.86 525.079 288.624C525.205 289.348 525.324 290.164 525.435 291.074L527.005 303.848L517.998 304.955Z" fill="#D5304F"/>
<path d="M764.06 274.712L760.262 243.815L765.243 243.313L753.512 261.934L752.001 260.457L777.33 257.344L778.27 264.986L748.791 268.609L744.2 261.914L760.797 235.991L768.276 235.072L773.013 273.612L764.06 274.712Z" fill="#D5304F"/>
<path d="M910.569 256.872C907.949 257.194 905.504 256.995 903.237 256.277C901 255.517 899.14 254.36 897.656 252.806C896.173 251.252 895.299 249.402 895.035 247.255C894.86 245.835 894.886 244.539 895.111 243.366C895.332 242.157 895.752 241.071 896.373 240.108C897.025 239.104 897.841 238.228 898.82 237.48C899.832 236.691 901.004 236.011 902.338 235.441L901.951 237.705C900.883 237.43 899.895 237.052 898.986 236.573C898.077 236.094 897.287 235.526 896.616 234.869C895.939 234.177 895.384 233.414 894.949 232.581C894.55 231.743 894.293 230.851 894.177 229.905C893.926 227.867 894.269 225.996 895.205 224.293C896.177 222.584 897.574 221.175 899.395 220.065C901.249 218.913 903.376 218.19 905.778 217.895C908.144 217.604 910.347 217.795 912.388 218.468C914.46 219.1 916.175 220.127 917.532 221.548C918.889 222.97 919.692 224.7 919.943 226.738C920.059 227.684 920.025 228.612 919.842 229.521C919.658 230.43 919.32 231.285 918.827 232.084C918.329 232.847 917.7 233.589 916.939 234.311C916.174 234.996 915.272 235.624 914.234 236.195L913.501 234.29C914.779 234.466 915.983 234.798 917.115 235.287C918.242 235.739 919.243 236.374 920.119 237.19C920.991 237.969 921.698 238.916 922.242 240.032C922.817 241.106 923.192 242.353 923.366 243.773C923.635 245.956 923.237 247.981 922.174 249.848C921.11 251.715 919.565 253.272 917.539 254.519C915.512 255.765 913.189 256.55 910.569 256.872ZM909.67 249.557C910.689 249.431 911.574 249.119 912.325 248.621C913.077 248.122 913.647 247.498 914.035 246.748C914.423 245.999 914.561 245.169 914.449 244.259C914.333 243.313 913.996 242.523 913.438 241.89C912.911 241.216 912.205 240.73 911.319 240.432C910.465 240.094 909.528 239.987 908.509 240.113C907.49 240.238 906.607 240.568 905.86 241.103C905.109 241.602 904.541 242.244 904.157 243.03C903.769 243.78 903.633 244.628 903.75 245.574C903.857 246.448 904.19 247.201 904.748 247.834C905.306 248.467 906.012 248.953 906.867 249.292C907.716 249.594 908.651 249.682 909.67 249.557ZM907.603 232.743C908.477 232.636 909.239 232.376 909.89 231.963C910.573 231.51 911.079 230.968 911.408 230.336C911.732 229.668 911.845 228.934 911.747 228.133C911.648 227.333 911.361 226.648 910.885 226.078C910.408 225.509 909.784 225.087 909.011 224.812C908.275 224.533 907.47 224.447 906.597 224.555C905.687 224.667 904.891 224.949 904.207 225.403C903.561 225.851 903.075 226.41 902.751 227.078C902.427 227.746 902.314 228.48 902.412 229.281C902.511 230.081 902.798 230.766 903.274 231.336C903.746 231.869 904.35 232.275 905.086 232.554C905.854 232.792 906.693 232.855 907.603 232.743Z" fill="#D5304F"/>
<path d="M1064.58 237.777L1059.88 199.564L1069.16 198.424L1073.86 236.636L1064.58 237.777ZM1040.89 240.688L1036.19 202.476L1045.47 201.335L1050.17 239.548L1040.89 240.688ZM1042.66 225.343L1041.69 217.039L1066.64 213.972L1067.66 222.27L1042.66 225.343Z" fill="#D5304F"/>
<path d="M1189.78 222.389L1185.08 184.176L1202.28 182.063C1204.72 181.763 1206.98 182.02 1209.08 182.834C1211.21 183.643 1212.95 184.907 1214.31 186.624C1215.66 188.305 1216.48 190.31 1216.77 192.639C1217.06 195.041 1216.76 197.276 1215.87 199.343C1214.98 201.374 1213.61 203.057 1211.78 204.39C1209.95 205.723 1207.8 206.542 1205.32 206.846L1196.97 207.873L1198.62 221.302L1189.78 222.389ZM1210.96 219.785L1199.12 203.729L1208.45 201.197L1221.55 218.484L1210.96 219.785ZM1196.1 200.776L1203.63 199.85C1204.58 199.734 1205.37 199.433 1206.02 198.948C1206.69 198.422 1207.16 197.754 1207.43 196.945C1207.74 196.132 1207.83 195.234 1207.71 194.251C1207.59 193.268 1207.27 192.44 1206.74 191.766C1206.21 191.055 1205.5 190.551 1204.61 190.254C1203.76 189.952 1202.76 189.873 1201.59 190.016L1194.88 190.841L1196.1 200.776Z" fill="#D5304F"/>
<path d="M1347.67 203.537C1345.16 203.846 1342.85 203.834 1340.74 203.502C1338.66 203.13 1336.77 202.475 1335.07 201.54C1333.36 200.567 1331.79 199.375 1330.36 197.962L1335.2 190.884C1337.32 193.099 1339.34 194.513 1341.26 195.126C1343.22 195.735 1345.18 195.919 1347.15 195.677C1348.13 195.556 1349 195.319 1349.77 194.966C1350.54 194.613 1351.12 194.173 1351.49 193.646C1351.87 193.083 1352.01 192.438 1351.92 191.71C1351.85 191.164 1351.65 190.691 1351.3 190.29C1351 189.884 1350.58 189.547 1350.07 189.277C1349.56 189.008 1348.96 188.786 1348.27 188.612C1347.58 188.401 1346.86 188.25 1346.11 188.157C1345.36 188.028 1344.59 187.938 1343.8 187.886C1341.64 187.673 1339.73 187.316 1338.08 186.817C1336.43 186.318 1335.01 185.642 1333.84 184.789C1332.69 183.895 1331.79 182.843 1331.12 181.632C1330.45 180.384 1330.02 178.96 1329.82 177.359C1329.61 175.648 1329.8 174.036 1330.39 172.523C1331.01 170.969 1331.92 169.602 1333.1 168.422C1334.32 167.201 1335.77 166.21 1337.45 165.45C1339.12 164.653 1340.9 164.138 1342.8 163.905C1345.31 163.597 1347.49 163.606 1349.34 163.932C1351.22 164.218 1352.86 164.774 1354.25 165.6C1355.69 166.422 1356.94 167.468 1358.02 168.739L1352.97 174.957C1352.09 174.105 1351.15 173.425 1350.17 172.919C1349.22 172.407 1348.21 172.05 1347.15 171.848C1346.13 171.641 1345.09 171.603 1344.04 171.733C1342.94 171.867 1342.02 172.129 1341.25 172.518C1340.52 172.867 1339.96 173.323 1339.59 173.886C1339.21 174.413 1339.07 175.022 1339.15 175.713C1339.23 176.332 1339.47 176.837 1339.89 177.229C1340.31 177.621 1340.85 177.961 1341.51 178.249C1342.17 178.501 1342.92 178.705 1343.75 178.861C1344.58 178.981 1345.44 179.06 1346.33 179.098C1348.38 179.252 1350.24 179.559 1351.93 180.017C1353.64 180.471 1355.14 181.099 1356.42 181.902C1357.74 182.701 1358.79 183.717 1359.57 184.951C1360.38 186.145 1360.89 187.596 1361.1 189.307C1361.43 191.964 1361.05 194.301 1359.97 196.318C1358.92 198.294 1357.33 199.912 1355.19 201.172C1353.09 202.391 1350.58 203.179 1347.67 203.537Z" fill="#D5304F"/>
</svg>
