<?xml version="1.0" encoding="UTF-8" standalone="no"?>
<svg
   xmlns:dc="http://purl.org/dc/elements/1.1/"
   xmlns:cc="http://creativecommons.org/ns#"
   xmlns:rdf="http://www.w3.org/1999/02/22-rdf-syntax-ns#"
   xmlns:svg="http://www.w3.org/2000/svg"
   xmlns="http://www.w3.org/2000/svg"
   viewBox="0 0 1632 2112"
   height="2112"
   width="1632"
   xml:space="preserve"
   id="svg2"
   version="1.1"><metadata
     id="metadata8"><rdf:RDF><cc:Work
         rdf:about=""><dc:format>image/svg+xml</dc:format><dc:type
           rdf:resource="http://purl.org/dc/dcmitype/StillImage" /></cc:Work></rdf:RDF></metadata><defs
     id="defs6"><clipPath
       id="clipPath20"
       clipPathUnits="userSpaceOnUse"><path
         id="path18"
         d="M 0,1584 H 1224 V 0 H 0 Z" /></clipPath></defs><g
     transform="matrix(1.3333333,0,0,-1.3333333,0,2112)"
     id="g10"><path
       id="path12"
       style="fill:#bad0ec;fill-opacity:0;fill-rule:nonzero;stroke:none"
       d="M 0,0 H 1224 V 1584 H 0 Z" /><g
       id="g14"><g
         clip-path="url(#clipPath20)"
         id="g16"><g
           transform="translate(1094.6672,658.1652)"
           id="g22"><path
             id="path24"
             style="fill:none;stroke:#f04c54;stroke-width:31;stroke-linecap:butt;stroke-linejoin:miter;stroke-miterlimit:10;stroke-dasharray:none;stroke-opacity:1"
             d="m 0,0 c -0.152,-36.913 -0.268,-73.826 -0.469,-110.739 -0.182,-33.591 -0.098,-67.188 -0.802,-100.768 -0.599,-28.586 -2.793,-57.112 -11.988,-84.476 -13.058,-38.856 -38.948,-66.794 -74.785,-85.893 -23.668,-12.614 -49.078,-20.144 -75.269,-25.344 -26.469,-5.256 -53.269,-7.529 -80.15,-9.127 -3.576,-0.951 -7.318,0.461 -10.875,-0.766 h -2.713 c -2.458,0.982 -5.024,0.227 -7.53,0.467 -2.136,0 -4.269,-0.002 -6.404,0 -4.438,0.254 -8.905,-0.519 -13.319,0.414 -0.09,1.494 -0.259,2.989 -0.259,4.484 -0.014,40.664 0.045,81.328 -0.108,121.992 -0.013,3.703 1.014,4.417 4.503,4.33 24.847,-0.622 49.681,-0.338 74.348,3.152 10.562,1.495 20.89,3.988 30.542,8.844 13.475,6.78 18.505,18.968 21.253,32.652 3.436,17.103 3.373,34.47 2.542,51.716 -1.58,32.816 -1.218,65.633 -1.343,98.454 -0.019,4.819 -0.021,9.639 -0.031,14.458 2.837,-0.244 2.967,-2.733 3.567,-4.602 3.415,-10.63 7.52,-20.99 11.967,-31.219 3.625,-8.338 7.856,-16.423 14.479,-22.737 11.251,-10.725 23.039,-11.4 38.085,-5 13.868,5.899 23.018,17.123 31.483,29.019 24.814,34.869 38.552,74.076 45.51,115.945 1.901,11.441 3.575,22.91 4.802,34.45 0.262,2.473 -0.341,5.536 2.425,7.307 C 0,46.763 0.243,46.347 0.203,45.754 0.069,30.497 0.464,15.246 0,0 Z" /></g><g
           transform="translate(941.8102,1115.4402)"
           id="g26"><path
             id="path28"
             style="fill:none;stroke:#f04c54;stroke-width:31;stroke-linecap:butt;stroke-linejoin:miter;stroke-miterlimit:10;stroke-dasharray:none;stroke-opacity:1"
             d="m 0,0 c -0.699,31.204 2.321,62.304 2.617,93.48 0.15,15.804 0.012,31.595 -3.606,47.119 -5.498,23.59 -14.803,32.355 -38.558,36.675 -24.601,4.475 -49.44,4.273 -74.286,4.086 -4.972,-0.038 -9.945,-0.128 -14.914,-0.301 -1.951,-0.068 -3.028,0.219 -3.022,2.622 0.116,42.942 0.155,85.884 0.216,128.826 0,0.143 0.085,0.287 0.13,0.431 9.495,0.958 19.015,0.169 28.517,0.425 2.733,-10e-4 5.47,10e-4 8.203,0 2.558,0.218 5.175,-0.489 7.691,0.466 h 1.808 c 3.584,-1.052 7.251,-0.182 10.869,-0.466 39.82,-0.206 78.553,-6.18 115.625,-21.373 22.982,-9.418 43.888,-22.122 61.629,-39.503 14.203,-13.917 25.153,-30.288 33.56,-48.383 9.524,-20.5 14.691,-41.978 15.778,-64.528 0.79,-16.382 2.033,-32.763 1.624,-49.164 -1.945,-78.016 -0.107,-156.045 -1.009,-234.061 -0.167,-14.456 -0.201,-28.832 0.958,-43.244 0.488,-6.07 2.636,-9.728 8.659,-12.051 18.277,-7.05 37.06,-11.464 56.558,-13.18 9.749,-0.858 19.537,-0.853 29.276,-1.769 1.374,-0.129 2.692,-0.32 3.768,-1.278 v -0.905 c -0.805,-1.243 -0.45,-2.637 -0.45,-3.96 -0.02,-40.464 -0.02,-80.927 0,-121.391 0,-1.323 -0.355,-2.716 0.45,-3.96 v -0.904 c -4.34,-2.086 -9.092,-1.893 -13.667,-2.074 -27.806,-1.103 -54.228,-7.334 -78.841,-20.583 -1.326,-0.713 -2.648,-1.465 -4.243,-1.344 -1.833,0.554 -1.911,2.137 -2.072,3.63 -0.146,1.349 -0.122,2.711 -0.083,4.065 0.322,11.265 0.414,22.508 0.243,33.797 -0.528,34.852 -3.776,69.403 -8.7,103.858 -1.447,10.123 -2.018,20.341 -2.498,30.577 -0.868,18.469 -0.673,37.044 -4.08,55.321 -4.373,23.46 -15.818,43.691 -28.755,63.328 C 97.652,-57.893 80.231,-46.766 63.051,-35.38 44.56,-23.126 24.838,-13.037 4.675,-3.814 2.814,-2.962 0.553,-2.499 0,0 Z" /></g><g
           transform="translate(369.1836,241.8148)"
           id="g30"><path
             id="path32"
             style="fill:none;stroke:#f04c54;stroke-width:31;stroke-linecap:butt;stroke-linejoin:miter;stroke-miterlimit:10;stroke-dasharray:none;stroke-opacity:1"
             d="m 0,0 c -23.559,1.585 -47.062,3.62 -70.277,8.187 -33.27,6.545 -65.052,16.916 -93.19,36.492 -32.626,22.699 -52.968,54.166 -65.326,91.449 -10.221,30.833 -13.152,62.609 -11.945,94.729 2.748,73.152 2.245,146.322 2.316,219.494 0.002,2.703 0.317,5.406 0.487,8.109 -0.273,1.154 -0.905,2.399 0.778,3.052 2.32,-2.418 1.839,-5.649 2.146,-8.505 3.721,-34.695 10.307,-68.758 22.016,-101.714 6.338,-17.837 14.384,-34.832 26.413,-49.585 9.209,-11.294 19.74,-21.058 33.863,-26.201 16.794,-6.116 30.418,-2.244 41.03,12.053 6.066,8.172 10.171,17.385 13.992,26.738 3.531,8.641 6.896,17.346 10.141,26.099 0.634,1.709 0.839,3.979 3.349,4.336 0.46,-34.496 -0.507,-68.949 -2.201,-103.411 -1.077,-21.914 -1.361,-43.914 3.172,-65.64 5.06,-24.247 15.943,-35.067 40.293,-39.879 27.672,-5.468 55.677,-5.169 83.678,-4.958 5.801,0.043 5.798,0.165 5.798,-5.559 C 46.532,85.058 46.537,44.831 46.515,4.604 46.514,2.815 46.268,1.026 46.137,-0.763 H 28.051 c -3.256,0.993 -6.596,0.224 -9.888,0.467 -1.818,0 -3.635,-0.001 -5.453,0 -1.581,0 -3.161,-0.002 -4.742,0 C 5.314,-0.136 2.636,-0.639 0,0 Z" /></g><g
           transform="translate(284.02,1113.3378)"
           id="g34"><path
             id="path36"
             style="fill:none;stroke:#f04c54;stroke-width:31;stroke-linecap:butt;stroke-linejoin:miter;stroke-miterlimit:10;stroke-dasharray:none;stroke-opacity:1"
             d="m 0,0 c 0.699,31.204 -2.321,62.304 -2.617,93.48 -0.15,15.804 -0.012,31.595 3.606,47.119 5.498,23.59 14.803,32.355 38.558,36.675 24.601,4.475 49.44,4.273 74.286,4.086 4.972,-0.038 9.945,-0.128 14.914,-0.301 1.951,-0.068 3.028,0.219 3.021,2.622 -0.116,42.942 -0.154,85.884 -0.215,128.826 0,0.143 -0.085,0.287 -0.131,0.431 -9.494,0.958 -19.014,0.169 -28.516,0.425 -2.733,-10e-4 -5.47,10e-4 -8.204,0 -2.557,0.218 -5.174,-0.489 -7.69,0.466 h -1.808 c -3.584,-1.052 -7.251,-0.182 -10.869,-0.466 -39.82,-0.206 -78.552,-6.18 -115.624,-21.373 -22.983,-9.418 -43.889,-22.122 -61.629,-39.503 -14.204,-13.917 -25.154,-30.288 -33.561,-48.383 -9.524,-20.5 -14.691,-41.978 -15.778,-64.528 -0.789,-16.382 -2.033,-32.763 -1.624,-49.164 1.945,-78.016 0.107,-156.045 1.009,-234.061 0.167,-14.456 0.201,-28.832 -0.958,-43.244 -0.488,-6.07 -2.636,-9.728 -8.658,-12.051 -18.277,-7.05 -37.06,-11.464 -56.559,-13.18 -9.749,-0.858 -19.537,-0.853 -29.275,-1.769 -1.375,-0.129 -2.692,-0.32 -3.769,-1.278 v -0.905 c 0.805,-1.243 0.45,-2.637 0.451,-3.96 0.019,-40.464 0.019,-80.927 0,-121.391 -0.001,-1.323 0.354,-2.716 -0.451,-3.96 v -0.904 c 4.34,-2.086 9.093,-1.893 13.668,-2.074 27.806,-1.103 54.227,-7.334 78.841,-20.583 1.325,-0.713 2.647,-1.465 4.242,-1.344 1.833,0.554 1.911,2.137 2.072,3.63 0.146,1.349 0.122,2.711 0.083,4.065 -0.322,11.265 -0.414,22.508 -0.243,33.797 0.528,34.852 3.776,69.403 8.7,103.858 1.447,10.123 2.018,20.341 2.499,30.577 0.867,18.469 0.673,37.044 4.079,55.321 4.373,23.46 15.818,43.691 28.756,63.328 11.742,17.823 29.163,28.95 46.343,40.336 18.491,12.254 38.213,22.343 58.376,31.566 C -2.814,-2.962 -0.553,-2.499 0,0 Z" /></g><g
           transform="translate(284.9765,586.5482)"
           id="g38"><path
             id="path40"
             style="fill:none;stroke:#f04c54;stroke-width:31;stroke-linecap:butt;stroke-linejoin:miter;stroke-miterlimit:10;stroke-dasharray:none;stroke-opacity:1"
             d="m 0,0 c -3.322,-5.599 -4.678,-11.981 -7.128,-17.93 -4.922,-11.956 -9.275,-24.172 -16.172,-35.208 -5.9,-9.442 -13.144,-17.249 -24.709,-19.622 -7.375,-1.514 -14.373,-0.01 -21.204,2.596 -17.017,6.492 -29.287,18.666 -39.332,33.361 -14.985,21.925 -23.658,46.575 -30.381,71.976 -7.06,26.669 -11.28,53.857 -13.936,81.297 -0.6,0.257 0.257,2.224 -1.424,1.213 0.833,7.283 -0.079,14.544 -0.258,21.816 -0.125,5.068 -0.846,10.064 -1.624,15.056 1.033,1.002 0.588,2.26 0.535,3.417 -1.925,41.761 -1.099,83.51 5.132,124.827 4.687,31.078 5.843,62.298 7.747,93.521 1.648,27.012 12.614,50.287 27.049,72.65 12.642,19.586 30.392,33.089 49.259,45.652 19.832,13.206 40.854,24.243 62.485,34.164 1.361,0.624 2.69,1.319 4.034,1.981 12.855,5.068 25.609,10.415 38.587,15.147 27.971,10.197 56.406,18.862 85.644,24.717 2.401,0.481 4.719,0.692 5.885,3.827 7.473,20.084 22.965,31.868 42.144,39.395 17.429,6.841 35.755,10.153 54.213,12.836 12.162,1.767 24.276,3.871 36.432,5.692 6.072,0.909 12.171,1.774 18.29,2.218 15.723,1.141 31.425,3.064 47.213,2.699 20.581,-0.476 41.198,-0.767 61.696,-2.702 27.388,-2.585 54.522,-6.771 80.325,-16.976 19.763,-7.815 37.478,-18.513 50.07,-36.257 0.174,-0.245 0.47,-0.437 0.56,-0.703 2.967,-8.736 10.118,-10.753 18.23,-12.661 38.712,-9.106 76.236,-21.914 112.765,-37.638 1.501,-0.646 3.135,-0.985 4.707,-1.468 5.526,-2.706 11.045,-5.428 16.581,-8.114 27.702,-13.443 54.114,-28.92 77.948,-48.602 6.152,-5.08 10.851,-11.243 15.315,-17.669 12.777,-18.394 23.558,-37.765 28.623,-59.85 2.771,-12.083 3.897,-24.411 4.033,-36.733 0.325,-29.584 4.151,-58.805 7.897,-88.069 2.216,-17.319 3.307,-34.771 3.892,-52.225 0.61,-18.212 1.123,-36.435 0.25,-54.661 -0.069,-1.439 -0.564,-3.024 0.597,-4.33 -1.14,-4.213 -1.287,-8.564 -1.474,-12.86 -0.33,-7.591 -0.262,-15.199 -0.36,-22.8 -1.141,-1.339 -0.242,-3.31 -1.433,-4.634 -3.891,-37.493 -9.96,-74.529 -24.465,-109.621 -8.66,-20.953 -20.176,-40.361 -34.244,-58.132 -9.263,-11.701 -20.653,-20.473 -35.934,-23.246 -12.358,-2.243 -22.157,1.91 -30.204,11.044 -5.531,6.277 -9.339,13.623 -12.694,21.212 -4.619,10.45 -8.818,21.066 -12.311,31.952 -0.455,1.417 -0.626,2.975 -2.017,3.909 -0.596,8.176 -3.879,15.7 -5.742,23.569 -4.909,20.735 -9.984,41.434 -15.303,62.066 -6.2,24.047 -13.362,47.764 -25.168,69.828 -1.988,3.715 -3.883,4.761 -8.068,3.611 -18.549,-5.097 -37.559,-7.683 -56.621,-10.051 -12.046,-1.497 -24.087,-3.42 -35.587,-7.57 -17.864,-6.446 -29.714,-19.396 -38.192,-35.863 -9.454,-18.361 -14.973,-38.008 -17.984,-58.303 -5.173,-34.868 -11.338,-69.53 -19.321,-103.872 -7.784,-33.492 -15.416,-67.032 -26.784,-99.535 -7.642,-21.85 -15.331,-43.733 -26.229,-64.26 -7.507,-14.141 -16.776,-26.897 -31.308,-34.623 -19.607,-10.424 -37.318,-10.565 -55.035,6.004 -13.262,12.402 -21.968,27.804 -29.425,43.994 -22.197,48.189 -34.99,99.343 -47.135,150.692 -5.182,21.908 -8.464,44.139 -11.889,66.367 -4.064,26.376 -7.841,52.865 -17.084,78.126 -5.21,14.239 -12.086,27.452 -22.491,38.761 -8.342,9.067 -18.717,14.032 -30.43,16.454 -21.138,4.37 -42.321,8.527 -63.525,12.567 -7.552,1.439 -15.256,1.466 -22.937,1.115 -3.822,-0.174 -6.204,-1.682 -7.349,-5.78 C 35.021,119.406 26.657,90.095 18.218,60.806 12.937,42.477 7.538,24.18 1.392,6.115 0.715,4.126 -0.021,2.149 0,0 Z" /></g><g
           transform="translate(894.962,971.3856)"
           id="g42"><path
             id="path44"
             style="fill:#f04c54;fill-opacity:1;fill-rule:nonzero;stroke:none"
             d="M 0,0 C -18.427,0.022 -33.499,15.137 -33.535,33.631 -33.572,52.927 -18.481,68.012 0.772,67.925 19.48,67.841 34.492,52.777 34.572,34.01 34.653,14.971 19.411,-0.023 0,0" /></g><g
           transform="translate(895.4045,815.8152)"
           id="g46"><path
             id="path48"
             style="fill:#f04c54;fill-opacity:1;fill-rule:nonzero;stroke:none"
             d="M 0,0 C -19.013,0.02 -34.043,15.132 -33.97,34.155 -33.898,52.922 -18.849,67.94 -0.097,67.96 18.899,67.981 34.066,52.94 34.129,34.017 34.193,15.135 18.988,-0.02 0,0" /></g><g
           transform="translate(816.9135,893.5829)"
           id="g50"><path
             id="path52"
             style="fill:#f04c54;fill-opacity:1;fill-rule:nonzero;stroke:none"
             d="m 0,0 c -19.092,0.008 -33.958,14.954 -33.916,34.098 0.042,19.016 15.08,33.897 34.218,33.86 C 18.997,67.922 34.035,52.804 34.05,34.033 34.065,14.973 19.076,-0.008 0,0" /></g><g
           transform="translate(970.9104,893.6288)"
           id="g54"><path
             id="path56"
             style="fill:#f04c54;fill-opacity:1;fill-rule:nonzero;stroke:none"
             d="M 0,0 C -18.823,0.018 -33.761,14.973 -33.792,33.83 -33.823,52.806 -18.697,67.911 0.307,67.88 18.894,67.85 34.39,52.368 34.235,33.981 34.074,14.884 19.061,-0.018 0,0" /></g><g
           transform="translate(351.3817,992.4996)"
           id="g58"><path
             id="path60"
             style="fill:#f04c54;fill-opacity:1;fill-rule:nonzero;stroke:none"
             d="m 0,0 c 0.078,2.919 -0.737,3.861 -3.742,3.8 -9.338,-0.189 -18.686,-0.199 -28.024,0.004 -3.124,0.068 -4.09,-0.731 -4.049,-3.963 0.18,-14.163 -0.063,-28.331 0.173,-42.491 0.061,-3.71 -1.144,-4.446 -4.567,-4.403 -14.162,0.18 -28.329,0.004 -42.492,0.135 -2.877,0.027 -3.886,-0.684 -3.823,-3.724 0.196,-9.339 0.209,-18.687 -0.003,-28.025 -0.075,-3.28 1.074,-3.991 4.13,-3.958 13.861,0.147 27.727,-0.065 41.587,0.147 3.858,0.059 5.247,-0.843 5.171,-4.978 -0.258,-14.009 -0.007,-28.027 -0.165,-42.039 -0.038,-3.366 1.008,-4.467 4.38,-4.395 9.038,0.192 18.089,0.277 27.119,-0.036 3.802,-0.131 4.346,1.296 4.309,4.595 -0.157,14.162 0.029,28.329 -0.136,42.491 -0.04,3.421 1.101,4.379 4.421,4.343 14.012,-0.152 28.028,0.024 42.04,-0.131 3.189,-0.035 4.517,0.554 4.412,4.146 -0.268,9.185 -0.227,18.385 -0.014,27.572 0.073,3.162 -0.816,4.045 -3.986,4.006 -14.012,-0.17 -28.029,0.045 -42.04,-0.155 -3.566,-0.051 -5.072,0.56 -4.864,4.572 0.36,6.913 0.1,13.858 0.1,20.79 C -0.064,-14.464 -0.193,-7.228 0,0 m -18.025,-176.524 c -62.279,0.213 -111.794,50.199 -111.543,112.604 0.245,60.861 50.717,110.784 111.826,110.61 C 44.58,46.512 94.032,-3.664 93.777,-66.461 93.53,-127.004 43.016,-176.733 -18.025,-176.524" /></g></g></g></g></svg>